<?xml version="1.0" encoding="utf-8"?>
<!-- Generator: Adobe Illustrator 28.1.0, SVG Export Plug-In . SVG Version: 6.00 Build 0)  -->
<svg version="1.1" id="Layer_1" xmlns="http://www.w3.org/2000/svg" xmlns:xlink="http://www.w3.org/1999/xlink" x="0px" y="0px"
	 viewBox="0 0 674.5 125.4" style="enable-background:new 0 0 674.5 125.4;" xml:space="preserve">
<style type="text/css">
	.st0{fill:#4A505C;}
</style>
<path class="st0" d="M208.2,62.2c-0.4-13.4-0.5-19.1,0.1-21.3c0.5-2.2,1.8-4.1,5.7-5v-2.9c-3.7,0.2-7.4,0.3-11.9,0.3h-5.6
	c-5.7,15.7-11.3,27.3-18.3,42.6c-7.1-14.5-13.9-26.9-20.1-42.6h-6.9c-3,0-6.4-0.1-10.3-0.3l-0.6,2.9l6,1.9c0.3,4.1,0.3,9.3-0.6,24.4
	c-0.6,12.3-1.4,17.5-1.8,20c-0.7,3.7-2.4,5.3-5.7,6.3v2.9c2.8-0.2,5.5-0.3,8.9-0.3c3.6,0,6.3,0.1,10.6,0.5l0.6-3.1l-7.7-2.9
	c-0.4-5.6-0.1-11.3,0.5-22.5c0.2-5.1,0.5-10.3,0.9-15.7c7.1,15.1,14.6,29.2,21.1,44.5l5-0.6c5.9-16,12.4-29.7,19.4-45.7
	c0.3,3.5,0.5,7.2,0.7,17.5c0.3,10.1,0.3,15.4,0.1,17.6c-0.3,5.4-2.1,7-6.1,7.8v2.9c4.1-0.2,7.3-0.3,11.1-0.3c4.3,0,7.7,0.1,11.8,0.5
	l0.7-3.1l-6.4-2.1C208.7,80.7,208.6,75.2,208.2,62.2z M249.7,69.3c0.3-1.5,0.5-2.8,0.5-4.2c0-7.5-5.4-12.4-13.9-12.4
	c-12.1,0-19.9,9.1-19.9,20.4c0,10.1,5.6,18.8,19.9,18.9c6.2-1.2,9.8-3.6,13.7-7.4l-1.6-2.9c-3.4,1.7-6.4,2.3-9.4,2.3
	c-7,0-12.8-3.8-12.8-13.9c0-0.3,0-0.6,0-0.8H249.7z M234.4,56.7c4.2,0,6.1,3.9,6.2,8.9h-14C227.6,60.3,230.5,56.7,234.4,56.7z
	 M318.8,73.7V62.4c0-6.6-2.9-9.6-9.6-9.7c-5.4,1.3-10.2,4.5-14.7,8.8c-0.3-5.9-3.2-8.6-9.5-8.8c-5.5,1.4-9.9,4.3-14.7,8.7l-0.7-0.6
	c0-3.3,0.3-4.9,0.8-6.7l-2.3-2.3c-3.3,2.3-7.7,4.4-12.2,5.5v2.9l4.2,1.1c0.5,5.1,0.5,8.5,0.5,12.4c0,4.6-0.2,7.8-0.6,10.1
	c-0.5,2.4-2,4-4.5,4.6v2.9c3.4-0.2,6.6-0.3,9.9-0.3c3.3,0,5.5,0.1,9.2,0.5l0.6-3.1l-4.5-1.4c-0.5-5.5-0.5-8.7-0.5-13.3h0.1v-7.9
	c4.3-3.2,7.3-4.5,9.9-4.5c2.9,0,4.6,1.7,4.6,5.6v6.8c0,4.6-0.2,7.8-0.6,10.1c-0.6,2.4-2,4-4.3,4.6v2.9c3.4-0.2,6.4-0.3,9.7-0.3
	c3.3,0,5.5,0.1,9.2,0.5l0.6-3.1l-4.5-1.4c-0.5-5.5-0.5-8.7-0.5-13.3v-7.8c4.3-3.2,7.3-4.6,10-4.6c2.9,0,4.5,1.7,4.5,5.6v6.8
	c0,4.6-0.2,7.8-0.6,10.1c-0.5,2.4-1.9,4-4.2,4.6v2.9c3.4-0.2,6.4-0.3,9.7-0.3c3.3,0,6.6,0.1,10.3,0.5l0.7-3.1l-5.7-1.4
	C318.8,81.6,318.8,78.3,318.8,73.7z M348.5,52.7c-11.7,0-21,8.5-21,20.3c0,10.1,6.8,19,18.8,19c11.9,0,20.9-8.5,20.9-20.3
	C367.2,61.6,360.5,52.7,348.5,52.7z M348.4,87.7c-6.3,0-10-8.1-10-17.4c0-8.4,3.1-13.3,8-13.3c6.3,0,10,8.2,10,17.4
	C356.4,82.8,353.3,87.7,348.4,87.7z M395.9,52.7c-4.5,1.5-8.7,5.4-11.3,9.8l-0.6-0.6c0-3.3,0.2-6,0.7-7.8l-2.3-2.3
	c-3.3,2.3-7.7,4.4-12.2,5.5v2.9l4.2,1.1c0.5,5.1,0.5,8.5,0.5,12.4c0,4.6-0.2,7.8-0.6,10.1c-0.5,2.4-1.9,4-4.5,4.6v2.9
	c3.4-0.2,6.6-0.3,10-0.3c3.7,0,6.2,0.1,11.7,0.5l0.6-3.1l-7-1.4c-0.5-5.5-0.5-8.7-0.5-13.3v-6c2.4-3.5,4.8-4.8,7-4.8
	c2.2,0,3,1.4,3,3.4c4.6,0,8.3-2.5,8.3-7.3C402.9,55.2,400.3,52.7,395.9,52.7z M435.8,53.3l-0.6,2.9l5,1.8c-2.7,8.5-5,14.2-8.5,22.6
	c-3.7-7.7-6.7-14.4-8.3-18.8c-1.4-4,0.5-5.3,3.9-5.7v-2.9c-4.2,0.2-6.9,0.3-10.6,0.3c-3.7,0-6.2-0.1-9.3-0.3l-0.6,2.9l3.3,0.9
	c5.6,12.3,11.8,23.3,16.8,35.7c-4.7,9.9-7.7,14.3-12.1,14.3c-1.7,0-3.2-0.6-4.4-1.7c-2.8,5.2,0,9.6,4.7,9.6c4.4,0,8.7-3.7,11.9-11.2
	l4.9-11.6c3.8-8.8,10.1-23.9,12.9-29.7c1.9-4.1,3.5-6,6-6.2v-2.9c-2,0.2-4.9,0.3-7.3,0.3C440.7,53.6,438.2,53.5,435.8,53.3z
	 M492.2,83.6c-12.5,0-22.2-8.9-22.2-23.8c0-14.9,9-22.5,21-22.5c5.1,0,12.4,1.6,15.5,13.1l3.2-0.5c-0.5-4.7-0.6-9.7-0.5-14.3
	c-6.4-2.1-12.3-3.2-17.6-3.2c-17,0-32.8,11.4-32.8,30.6c0,16,10.9,29,29.6,29.1c9.6-1.5,15.8-4.6,22.7-9.9l-1.8-3.3
	C503.4,82,497.6,83.6,492.2,83.6z M548.6,85.1c-1.7,0-3-1.2-3-3.9c0-5.5,1.4-12.4,1.4-18.1c0-7.2-4.2-10.5-13.5-10.5
	c-10.4,2.1-16.1,5.1-16.1,9.8c0,3.6,2.9,5.5,7.4,4.9c0-6.5,2.9-10.2,6.9-10.2s5.1,2.4,5.1,7.6c0,1.5,0,3.2-0.1,5
	c-16.2,2.6-20.5,8.3-20.5,13.8c0,5.4,4.7,8.2,9.5,8.5c4.1-0.8,8.1-2.9,11.1-5.6c0.9,3.1,3.9,5.4,7.4,5.6c3.7-0.6,6.9-2.4,9.6-5.1
	l-1.6-2.9C551.1,84.6,549.9,85.1,548.6,85.1z M536.4,82.2c-2.5,1.8-4.5,2.9-6.6,2.9c-2.6,0-3.8-1.8-3.8-3.8c0-3.6,2.3-6.4,10.6-8.3
	C536.5,76.1,536.4,79.3,536.4,82.2z M574.5,57c4.2,0,6.2,3.5,6.2,8.8c5,0,8.1-1.7,8.1-5.5c0-4.4-4-7.6-11.9-7.6
	c-12.7,0-21,8.8-21,20.7c0,9.6,5.3,18.5,19.3,18.7c6.2-1.4,9.8-4,13.7-7.5l-1.6-2.9c-3.4,1.7-6.4,2.5-9.7,2.5
	c-6.2,0-11.2-3.7-11.2-13.9C566.3,62.3,569.7,57,574.5,57z M633.1,73.7V62.4c0-6.6-2.9-9.6-9.6-9.7c-5.5,1.4-10.8,4.4-15.6,8.7
	c0-1.1,0-2.2,0-3.4c0-19.9,0-27.3,1.4-31.3l-2.3-2.2c-3.6,2.2-8.5,4.4-13.5,5.4v2.9l4.2,1.2c0.5,4.1,0.5,11,0.5,24
	c0,15.3-0.2,23.5-0.6,25.8c-0.5,2.4-1.9,4-4.5,4.6v2.9c3.4-0.2,6.6-0.3,10-0.3c3.4,0,6.3,0.1,9.8,0.5l0.6-3.1l-5.2-1.4
	C608,82.6,608,76.4,608,66c4.3-3.3,7.5-4.6,10.5-4.6c3.4,0,5,1.7,5,5.6v6.7c0,4.6-0.2,7.8-0.6,10.1c-0.5,2.4-1.9,4-4.5,4.6v2.9
	c3.4-0.2,6.6-0.3,10-0.3c3.4,0,6.6,0.1,10.3,0.5l0.6-3.1l-5.6-1.4C633.1,81.6,633.1,78.3,633.1,73.7z M663.3,84
	c-7,0-12.8-3.8-12.8-13.9c0-0.3,0-0.6,0-0.8H674c0.3-1.5,0.5-2.8,0.5-4.2c0-7.5-5.4-12.4-13.9-12.4c-12.1,0-19.9,9.1-19.9,20.4
	c0,10.1,5.6,18.8,19.9,18.9c6.2-1.2,9.8-3.6,13.7-7.4l-1.6-2.9C669.2,83.4,666.2,84,663.3,84z M658.8,56.7c4.2,0,6.1,3.9,6.2,8.9
	h-14C651.9,60.3,654.8,56.7,658.8,56.7z M114.8,76.9c0-0.1,0-0.3,0-0.4c0-0.1,0-0.2,0-0.3c0-0.2,0-0.4-0.1-0.5c0-0.1,0-0.1,0-0.2
	c0.1-0.3,0-0.6,0-0.8c0-0.1,0-0.2,0-0.2c0-0.2-0.1-0.5-0.1-0.7l0-0.4c0-0.1-0.1-0.2-0.1-0.2c0-0.2,0-0.5-0.1-0.6c0,0,0-0.1,0-0.1
	c-0.1-0.4-0.2-0.8-0.2-1.2c0-0.2-0.1-0.4-0.2-0.5c0,0,0-0.1-0.1-0.1l0-0.1c0-0.4,0-0.8-0.2-1.3c0-0.1,0-0.1,0-0.2
	c0-0.1-0.1-0.3-0.2-0.3c0,0-0.1,0-0.1,0c0-0.1,0-0.2-0.1-0.3c-0.1-0.3-0.1-0.6-0.1-0.8c0-0.1,0-0.2,0-0.2c0-0.1,0-0.1-0.1-0.2
	c-0.1-0.1-0.2-0.2-0.3-0.3c-0.2-0.2-0.3-0.3-0.4-0.5c0-0.1-0.1-0.2-0.1-0.4c0-0.1,0-0.2,0-0.3c0,0,0-0.1-0.1-0.1c0,0,0-0.1,0-0.2
	c0-0.3-0.3-0.4-0.4-0.5c0,0,0,0-0.1,0c0,0-0.1-0.1-0.1-0.1c-0.2-0.1-0.2-0.3-0.3-0.6c-0.1-0.2-0.1-0.5-0.3-0.7
	c-0.1-0.1-0.1-0.2-0.2-0.3c0,0,0,0,0-0.1c0-0.1,0-0.2-0.1-0.4c-0.1-0.1-0.2-0.3-0.3-0.4c-0.1-0.1-0.2-0.2-0.2-0.3
	c-0.3-0.4-0.6-0.7-0.8-1.1c-0.1-0.1-0.1-0.2-0.2-0.3l0-0.1c-0.1-0.1-0.1-0.2-0.2-0.4c-0.1-0.3-0.3-0.6-0.4-0.8
	c-0.2-0.3-0.4-0.5-0.7-0.8c-0.1-0.1-0.2-0.2-0.3-0.3c0,0-0.1-0.1-0.1-0.1c-0.1-0.3-0.3-0.5-0.5-0.7c0,0-0.1-0.1-0.1-0.1
	c-0.1-0.1-0.2-0.1-0.3-0.2c0,0-0.1,0-0.1-0.1c0-0.1,0-0.2-0.1-0.3c-0.1-0.1-0.2-0.1-0.3-0.2c0-0.1,0-0.2-0.1-0.2
	c-0.1-0.1-0.2-0.2-0.3-0.2c0-0.1-0.2-0.3-0.4-0.4c-0.2-0.2-0.5-0.2-0.7-0.1h0c0-0.1,0-0.1,0-0.2c0.1-0.1,0.1-0.2,0.1-0.3
	c0-0.1-0.1-0.2-0.1-0.3c-0.1-0.1-0.1-0.1-0.2-0.2c-0.1-0.1-0.2-0.2-0.3-0.3c-0.1-0.2-0.4-0.5-0.8-0.7c-0.1-0.4-0.4-0.6-0.6-0.7
	c0,0-0.1,0-0.1-0.1c-0.2-0.1-0.3-0.2-0.3-0.3c0-0.5-0.4-0.7-0.6-0.8c0,0-0.1,0-0.1-0.1c-0.1-0.1-0.2-0.2-0.3-0.3
	c0,0-0.1-0.1-0.1-0.1c0,0-0.1-0.1-0.1-0.2c-0.1-0.2-0.3-0.5-0.6-0.5c-0.1,0-0.2,0-0.4-0.2c0-0.1-0.1-0.1-0.2-0.2
	c0,0-0.1-0.1-0.1-0.1c0.1-0.1,0.2-0.3,0.3-0.4c0.3-0.4,0.5-0.9,0.8-1.3l0.3-0.4c0,0,0.1-0.2,0.1-0.4c0,0,0.1-0.1,0.1-0.1
	c0.1-0.1,0.3-0.3,0.3-0.5c0,0,0.1-0.1,0.1-0.2c0.1-0.2,0.2-0.3,0.3-0.5c0.1-0.1,0.2-0.1,0.2-0.3c0.2-0.5,0.4-0.9,0.8-1.3l0,0
	c0.2-0.2,0.5-0.5,0.4-0.9c0.1-0.1,0.1-0.1,0.2-0.2c0.1-0.2,0.2-0.4,0.4-0.6c0.2-0.3,0.5-0.7,0.5-1.1c0-0.2,0.1-0.3,0.2-0.5
	c0.1-0.1,0.1-0.3,0.2-0.4c0-0.1,0.1-0.2,0.1-0.3c0.1-0.3,0.1-0.5,0.3-0.7c0.2-0.2,0.2-0.4,0.3-0.6c0,0,0-0.1,0-0.1
	c0,0,0.1-0.1,0.1-0.2l0-0.1c0.1-0.3,0.3-0.6,0.4-0.9c0-0.1,0.1-0.2,0.1-0.3c0-0.1,0.1-0.2,0.1-0.3c0-0.1,0.1-0.2,0.2-0.3
	c0.1-0.2,0.3-0.5,0.3-0.8c0-0.3,0.1-0.7,0.3-1c0-0.1,0.1-0.2,0.1-0.3c0-0.1,0.1-0.1,0.1-0.2c0-0.1,0.1-0.2,0.1-0.2
	c0.1-0.2,0.1-0.3,0.2-0.5c0.1-0.4,0.3-0.7,0.4-1.1c0.1-0.3,0.1-0.5,0.2-0.8c0-0.1,0.1-0.2,0.1-0.4c0-0.2,0.1-0.4,0.2-0.6l0-0.1
	c0,0,0-0.1,0-0.1c0-0.1,0.1-0.2,0.1-0.3c0.1-0.3,0.2-0.5,0.2-0.8c0-0.2,0.1-0.4,0.1-0.6c0.2-0.6,0.3-1.2,0.4-2c0-0.2,0-0.5-0.1-0.7
	c0-0.1,0-0.2,0-0.3c0,0,0-0.1,0-0.1c0.3-0.3,0.3-0.8,0.3-1c0-0.1,0-0.1,0-0.2c0-0.1,0-0.2,0-0.4c0-0.4,0-0.7,0.1-1
	c0-0.1,0-0.3,0-0.4c0,0,0,0,0,0c0-0.1,0-0.2,0-0.3c0,0,0-0.1-0.1-0.1c0,0,0-0.1,0-0.1c0-0.2,0-0.4-0.2-0.6c0-0.1-0.1-0.1-0.1-0.1
	c0-0.2,0-0.3,0-0.5c0-0.2,0-0.3,0-0.5c0-0.2,0-0.3-0.1-0.4c0,0,0,0,0-0.1c0-0.1,0-0.2,0-0.3c0-0.2-0.2-0.3-0.3-0.4l-0.2-0.4
	c0-0.1-0.1-0.2-0.2-0.2l-0.1-0.5c0,0,0,0,0-0.1c0,0,0-0.1,0-0.1c0-0.1-0.1-0.3-0.2-0.3l-0.2-0.1l0-0.1c0-0.1,0-0.3-0.1-0.4l-0.6-0.6
	c0,0,0-0.1,0-0.1c0-0.1,0-0.2-0.1-0.3c-0.2-0.2-0.4-0.6-0.8-0.6c-0.4-0.5-0.9-0.8-1.4-1c-0.1,0-0.2-0.1-0.2-0.1
	c0-0.2-0.1-0.3-0.2-0.4c-0.1,0-0.2-0.1-0.3-0.1c0-0.1-0.2-0.2-0.3-0.2l-0.4-0.1c-0.3-0.1-0.7-0.1-1.1-0.1c-0.4-0.1-0.8-0.1-1.2-0.1
	c-0.2,0-0.4,0-0.5,0c-0.4,0-0.7,0-1-0.1c-0.3-0.1-0.5,0-0.7,0.1c0,0-0.1,0-0.1,0c-0.4,0-0.7,0-1,0.1c-0.3,0-0.5,0.1-0.7,0.1
	c-0.1,0-0.1,0-0.2,0c-0.4,0-0.9-0.1-1.3,0.2l0,0c-0.1,0-0.3-0.1-0.4,0c-0.3,0.1-0.6,0.2-0.9,0.3c-0.2,0.1-0.3,0.1-0.5,0.2
	c-0.3,0.1-0.7,0.2-1.1,0.3c-0.5,0.1-1.1,0.3-1.6,0.4l0,0c-0.1,0-0.2,0-0.3,0.1c-0.2,0-0.3,0.1-0.5,0.1c-0.1,0-0.2,0.1-0.3,0.1
	c-0.1,0-0.2,0.1-0.2,0.1c-0.1,0-0.2,0-0.3,0c-0.2,0-0.4,0.1-0.7,0.2c-0.4,0.2-0.8,0.3-1.3,0.4l-0.2,0.1c-0.2,0.1-0.4,0.2-0.5,0.3
	c-0.1,0-0.1,0.1-0.2,0.1c0,0,0,0-0.1,0c0,0-0.1,0-0.1,0c0,0-0.1,0-0.1,0l0,0c-0.4,0.1-0.9,0.3-1.3,0.4c-0.1,0-0.3,0.1-0.4,0.1
	c-0.2,0.1-0.3,0.1-0.5,0.2c-0.1,0-0.1,0-0.1,0c0,0,0,0,0,0c-0.1-0.3-0.3-0.4-0.5-0.6c-0.1,0-0.1-0.1-0.1-0.1c0,0,0,0,0-0.1
	c-0.1-0.1-0.1-0.3-0.3-0.4c-0.3-0.3-0.6-0.6-0.9-0.8c-0.2-0.2-0.4-0.4-0.6-0.6c-0.2-0.2-0.3-0.3-0.5-0.5c-0.2-0.2-0.3-0.3-0.5-0.5
	c-0.2-0.2-0.5-0.4-0.7-0.6c-0.1-0.1-0.3-0.2-0.4-0.3c-0.2-0.1-0.3-0.2-0.5-0.3c0,0-0.1-0.1-0.1-0.1c0-0.1-0.1-0.1-0.1-0.2
	c0,0,0,0-0.1-0.1l-0.1-0.1c-0.1-0.1-0.1-0.1-0.2-0.2c-0.2-0.2-0.3-0.3-0.5-0.5c0,0,0,0,0,0c0-0.1-0.1-0.2-0.2-0.2
	c-0.2-0.1-0.3-0.2-0.5-0.3c-0.3-0.2-0.6-0.3-0.9-0.5c-0.2-0.2-0.3-0.2-0.5-0.3c0,0-0.1,0-0.1-0.1c-0.1,0-0.1-0.1-0.2-0.1
	c-0.2-0.1-0.4-0.2-0.5-0.3c-0.4-0.7-1.1-0.8-1.6-0.9c0,0-0.1,0-0.1,0c0,0,0,0,0,0c-0.1-0.1-0.2-0.1-0.3-0.2
	c-0.2-0.1-0.4-0.2-0.6-0.3c-0.1,0-0.1,0-0.2-0.1c-0.2-0.1-0.4-0.2-0.7-0.2c0,0,0,0,0,0c-0.1-0.1-0.2-0.2-0.3-0.2
	c-0.1,0-0.3-0.1-0.4-0.1c-0.4-0.1-0.7-0.1-0.9-0.4c-0.1-0.1-0.3-0.1-0.4-0.1h0c-0.1,0-0.2,0-0.4,0c-0.2,0-0.4,0-0.6-0.1
	c-0.4-0.2-0.7-0.3-1.1-0.5c-0.2-0.1-0.3-0.1-0.5-0.2c-0.2-0.1-0.3-0.1-0.5-0.1c0,0-0.1,0-0.1,0c-0.1,0-0.2,0-0.4,0
	c-0.2,0-0.5,0-0.7-0.1c0,0-0.1,0-0.1-0.1c-0.1,0-0.1-0.1-0.2-0.1c-0.3-0.1-0.6-0.1-0.9-0.1c-0.3,0-0.6,0-0.8-0.1
	c-0.2-0.1-0.4,0-0.4,0c-0.1,0-0.1,0-0.1,0c0-0.1-0.1-0.1-0.1-0.1c-0.2-0.1-0.4-0.1-0.6-0.1c-0.1,0-0.1,0-0.1,0
	c-0.3-0.2-0.7-0.3-1.1-0.4c-0.2,0-0.3-0.1-0.5-0.1c0,0,0,0,0,0c0,0-0.1-0.1-0.1-0.1c0,0,0,0-0.1-0.1C59.9,5.2,59.8,5,59.6,5l0,0
	c-0.3,0-0.5-0.1-0.7-0.2c-0.3-0.2-0.6-0.2-0.9-0.2c0-0.1-0.1-0.1-0.2-0.2c-0.2-0.1-0.4-0.1-0.5-0.1c-0.2,0-0.3,0-0.4-0.1
	c-0.1-0.1-0.2-0.2-0.4-0.3c0,0,0,0-0.1,0c-0.2-0.1-0.4-0.2-0.7,0c0,0,0,0-0.1,0c-0.1,0-0.1-0.1-0.2-0.1c0,0,0,0,0,0
	c-0.1-0.1-0.2-0.2-0.5-0.2c-0.1,0-0.1,0-0.2,0.1c-0.2-0.2-0.4-0.4-0.7-0.4C54.1,3,54,2.9,53.8,2.9c-0.2-0.1-0.3,0-0.4,0.1
	c-0.1,0-0.1,0-0.2-0.1L53,2.8c-0.2-0.1-0.4-0.1-0.6-0.2c-0.1,0-0.2-0.1-0.3-0.1c-0.2-0.1-0.5-0.2-0.8-0.2c-0.1,0-0.3,0-0.5-0.1
	c-0.1,0-0.3-0.1-0.4-0.1c0,0-0.1-0.1-0.1-0.1c0,0-0.1,0-0.1-0.1c-0.2-0.1-0.4-0.2-0.7-0.1c-0.1,0-0.2,0-0.4,0
	c-0.1-0.1-0.3-0.1-0.4-0.1c0,0-0.1,0-0.1,0c-0.5-0.3-1.1-0.6-1.8-0.6c0,0-0.1-0.1-0.1-0.1c-0.1-0.1-0.2-0.1-0.4-0.1
	c-0.1,0-0.1,0-0.1,0c0,0-0.1,0-0.1,0c-0.2,0-0.4,0-0.6-0.1c0,0-0.1,0-0.2-0.1c-0.1,0-0.1-0.1-0.2-0.1c0,0-0.1,0-0.1,0
	c-0.1,0-0.3-0.1-0.5-0.1c0,0,0,0,0,0c-0.1-0.1-0.2-0.1-0.3-0.1c-0.1,0-0.1,0-0.2,0.1c-0.1,0-0.1,0-0.1,0c-0.4-0.1-0.7-0.1-1.1-0.2
	c-0.3-0.1-0.5-0.1-0.8-0.2c-0.3-0.1-0.6,0-0.8,0.1L41.1,0c-0.1-0.1-0.3,0-0.4,0.1l0,0c-0.1,0-0.2,0-0.2,0c-0.2,0.1-0.4,0.1-0.6,0.1
	c-0.3,0-0.6,0.1-0.8,0.1c-0.4,0-0.9,0.1-1.3,0.2c-0.1,0-0.3,0.1-0.4,0.2c-0.2,0.1-0.3,0.2-0.4,0.3c-0.2,0.1-0.4,0.3-0.7,0.4
	c-0.9,0.4-1.4,1-1.7,1.8l0,0.1c-0.1,0.4-0.3,0.8-0.6,1.1c-0.1,0.1-0.2,0.3-0.2,0.4c-0.2,0-0.4,0.1-0.6,0.3C33,5,32.9,5,32.7,5
	c-0.2,0-0.3,0.1-0.5,0.2c-0.2,0.1-0.5,0.2-0.7,0.3c-0.2,0.1-0.4,0.1-0.6,0.2c-0.2,0.1-0.3,0.2-0.5,0.2C30.3,6,30.1,6.1,30,6.1
	c-0.4,0.1-0.7,0.4-0.8,0.7c-0.1,0-0.2,0-0.3,0.1c-0.3,0.1-0.5,0.3-0.5,0.5c-0.1,0.1-0.2,0.2-0.4,0.3c-0.2,0.1-0.4,0.2-0.6,0.5
	c-0.1,0.2-0.3,0.4-0.5,0.6c-0.1,0-0.1,0.1-0.2,0.1c-0.1,0-0.2,0-0.3,0.1c-0.2,0.1-0.4,0.4-0.5,0.8c0,0,0,0-0.1,0
	c-0.2,0.1-0.3,0.4-0.3,0.5c0,0,0,0,0,0c0,0,0,0.1,0,0.1c-0.3,0.2-0.5,0.6-0.7,0.9c-0.1,0.2-0.2,0.3-0.2,0.4
	c-0.1,0.2-0.2,0.4-0.3,0.6c0,0.1-0.1,0.2-0.1,0.3c0,0.1-0.1,0.2-0.1,0.2c-0.2,0.3-0.3,0.6-0.5,0.8l0,0.1c-0.2,0.2-0.4,0.5-0.3,0.8
	c0,0,0,0.1,0,0.1c-0.1,0.2-0.2,0.3-0.2,0.5c-0.1,0.2-0.1,0.3-0.2,0.5c0,0.1,0,0.1-0.1,0.2c0,0,0,0.1,0,0.1c-0.1,0.2-0.2,0.3-0.2,0.6
	c0,0,0,0,0,0c-0.1,0.1-0.2,0.3-0.2,0.6c0,0,0,0.1,0,0.1c0,0.1-0.1,0.2-0.1,0.3c0,0.4-0.1,0.8-0.3,1.2c-0.2,0.5-0.3,1-0.4,1.5
	c0,0.2-0.1,0.3-0.1,0.5c0,0.1,0,0.2-0.1,0.2c0,0-0.1,0-0.3,0c-0.4-0.1-0.8,0-1.2,0.1l-0.1,0c-0.2,0-0.3,0.1-0.5,0.1
	c-0.1,0-0.2,0.1-0.3,0.1c-0.4,0.1-0.8,0.1-1.1,0.1c-0.3,0-0.5,0.1-0.8,0.1c-0.1,0-0.3,0.1-0.4,0.1c0,0,0,0-0.1,0c-0.1,0-0.3,0-0.4,0
	c-0.1,0-0.2,0.1-0.3,0.1c0,0-0.1,0-0.1,0.1c-0.6-0.1-1.1,0.2-1.5,0.4c-0.1,0.1-0.2,0.1-0.3,0.2c0,0-0.1,0-0.1,0l0,0
	c-0.1,0-0.3,0-0.3,0c0,0,0,0,0,0c-0.1,0-0.2,0.1-0.3,0.2c0,0,0,0.1,0,0.1c-0.1,0-0.2,0.1-0.3,0.1c0,0-0.1,0-0.1,0
	c-0.3,0-0.5,0.1-0.6,0.2c0,0-0.1,0.1-0.1,0.1c-0.1,0-0.2,0.1-0.2,0.2c-0.1,0.1-0.2,0.1-0.2,0.3c0,0,0,0.1,0,0.1
	c-0.6,0.2-0.9,0.7-1.2,1.1c-0.1,0.2-0.3,0.4-0.4,0.5c-0.2,0.2-0.3,0.4-0.4,0.7c-0.2,0.5-0.4,0.9-0.5,1.4c-0.1,0.1-0.1,0.3-0.1,0.4
	c0,0.1,0,0.1,0,0.2c0,0,0,0.1,0,0.1c-0.1,0.2-0.2,0.4-0.2,0.6c0,0.2,0,0.4,0,0.6c0,0.2,0,0.3,0,0.4c0,0.1,0,0.3-0.1,0.4
	c0,0.2-0.1,0.4-0.1,0.6c0,0.4,0,0.8,0,1.3c0,0.2,0.1,0.3,0.1,0.4c0,0.1,0.1,0.3,0.1,0.3c-0.1,0.5,0,0.9,0.1,1.2
	c0.1,0.3,0.1,0.7,0.1,1c0,0.1,0,0.2,0,0.3v0c0,0.2,0,0.4,0.1,0.6c0,0.1,0.1,0.2,0.2,0.3c0.1,0.1,0.1,0.2,0.1,0.2
	c0,0.2,0.1,0.4,0.2,0.6c0,0.1,0.1,0.2,0.1,0.2c0,0,0,0.1,0,0.2c0,0.1,0,0.2,0.1,0.4c0.1,0.3,0.2,0.6,0.4,0.9
	c0.1,0.3,0.2,0.6,0.3,0.9c0.1,0.1,0.1,0.3,0.1,0.4c0.1,0.2,0.1,0.5,0.2,0.7c0.1,0.2,0.2,0.3,0.3,0.5c0.1,0.2,0.3,0.4,0.3,0.6
	c0,0.2,0.1,0.3,0.2,0.4c0,0,0,0,0,0c0,0.1,0.1,0.3,0.1,0.4c0,0.1,0.1,0.3,0.1,0.4c0,0.1,0.1,0.2,0.2,0.3c0,0,0,0,0,0
	c0.1,0.1,0.1,0.2,0.2,0.2c0.1,0.1,0.2,0.2,0.3,0.3c0.1,0.3,0.2,0.5,0.4,0.8c0.2,0.3,0.4,0.7,0.4,1c0.1,0.4,0.3,0.7,0.6,1.1
	c0.1,0.1,0.2,0.3,0.3,0.4c0.2,0.4,0.4,0.8,0.6,1.1c0,0,0,0.1-0.1,0.1c-0.1,0.2-0.2,0.4-0.1,0.6c0,0.1,0,0.1-0.3,0.3
	c-0.1,0-0.3,0.1-0.4,0.4c-0.1,0.3-0.3,0.5-0.6,0.7l-0.1,0.1c-0.2,0.2-0.4,0.3-0.6,0.5c-0.4,0.2-0.9,0.6-1.2,1.2
	c-0.1,0-0.2,0-0.3,0.1c0,0,0,0,0,0c0,0-0.1,0.1-0.1,0.2c-0.2,0.3-0.5,0.7-0.8,0.9c-0.4,0.4-0.8,0.8-1.1,1.1L9,54.6
	c-0.1,0.1-0.1,0.3-0.2,0.3c0,0,0,0,0,0c-0.2,0.3-0.5,0.5-0.8,0.8L7.9,56c-0.1,0-0.2,0.1-0.3,0.2c0,0.1,0,0.1-0.1,0.2
	c-0.1,0.3-0.2,0.5-0.4,0.7c0,0,0,0-0.1,0.1c-0.2,0.2-0.5,0.4-0.5,0.9c0,0,0,0,0,0c0,0,0,0-0.1,0.1c-0.1,0.1-0.2,0.1-0.2,0.2
	c-0.4,0.4-0.9,0.8-1,1.5c0,0.1-0.1,0.3-0.3,0.5c-0.1,0.1-0.1,0.2-0.2,0.2c-0.1,0.2-0.2,0.4-0.4,0.6c-0.1,0.1-0.2,0.2-0.2,0.3
	c0,0.1-0.1,0.1-0.1,0.2c-0.1,0.2-0.3,0.4-0.4,0.6c0,0-0.1,0.1-0.1,0.1c-0.1,0.1-0.3,0.4-0.3,0.7c0,0-0.1,0.1-0.1,0.1
	C3,63.2,3,63.4,3,63.5c0,0.1,0,0.1-0.1,0.2c-0.3,0.2-0.4,0.5-0.5,0.7c0,0.1-0.1,0.2-0.1,0.2c0,0,0,0.1,0,0.1
	c-0.1,0.2-0.2,0.4-0.1,0.6c0,0,0,0,0,0c0,0,0,0,0,0.1C2,65.5,2,65.6,1.9,65.7c0,0-0.1,0.1-0.1,0.1c-0.1,0.1-0.1,0.2-0.1,0.3
	c0,0,0,0.1,0,0.1l0,0c-0.1,0.3-0.2,0.6-0.3,1c0,0.1,0,0.2,0,0.2c0,0.2,0,0.4-0.1,0.6l-0.1,0.1c-0.2,0.4-0.4,1-0.5,1.5
	c0,0.1-0.1,0.3-0.1,0.4c-0.1,0.2-0.1,0.3-0.2,0.6c0,0.1,0,0.2,0,0.2c-0.1,0.2-0.1,0.5,0,0.8c0,0-0.1,0.1-0.1,0.1c0,0.2,0,0.3,0,0.4
	c0,0.2,0,0.3-0.1,0.4c-0.1,0.2-0.1,0.4,0.1,0.5c0,0,0,0.1,0,0.1c0,0.1,0,0.1,0,0.2c0,0.3,0,0.6-0.1,0.9c0,0.1,0,0.2,0,0.4
	C0.1,74.9,0,75,0,75.1c0,0.1,0,0.3,0.1,0.4C0,75.5,0,75.6,0,75.7c0,0.1,0,0.2,0,0.3c0,0.1,0,0.2,0,0.2c0,0.2,0,0.4,0.1,0.6
	c0,0.1,0.1,0.3,0.1,0.4c0,0.2,0.1,0.4,0.1,0.5c0.1,0.2,0.1,0.2,0.1,0.2c-0.1,0.1-0.1,0.3,0,0.4l0,0c0,0.1,0,0.3,0,0.4
	c0,0.1,0,0.2,0,0.3c0,0.2,0,0.5,0.1,0.8c0,0,0,0.1,0,0.1c0,0,0.1,0.1,0.1,0.1c0,0.5,0.2,0.9,0.4,1.2c0,0,0.1,0.1,0.1,0.1
	c0,0.4,0.2,0.8,0.3,1l0,0c0,0.1,0,0.1,0,0.2c0,0.1,0.1,0.2,0.1,0.3c0.1,0.3,0.2,0.6,0.3,0.9C2,84,2.1,84.2,2.1,84.3
	c0.1,0.3,0.3,0.7,0.6,1c0.1,0.3,0.2,0.6,0.4,0.8c0,0.1,0.1,0.1,0.1,0.2c0.2,0.4,0.5,0.7,0.7,1c0.1,0.1,0.2,0.3,0.3,0.4
	c0.1,0.1,0.1,0.2,0.2,0.2c0.1,0.1,0.1,0.2,0.2,0.3c0.1,0.1,0.1,0.2,0.2,0.3c0.1,0.1,0.1,0.2,0.2,0.3c0,0.1,0.1,0.1,0.1,0.1l0,0
	c0,0.1,0.1,0.2,0.1,0.3c0.1,0.2,0.2,0.4,0.4,0.6c0.3,0.4,0.7,0.7,1.1,1.1C6.8,91,7,91.2,7.3,91.4c0.3,0.2,0.5,0.5,0.8,0.7
	c0.3,0.3,0.5,0.5,0.8,0.6c0.3,0.2,0.5,0.4,0.8,0.6c0.3,0.3,0.7,0.5,1.1,0.7c0.2,0.1,0.3,0.2,0.4,0.2c0.1,0,0.1,0.1,0.2,0.1
	c0,0,0.1,0,0.1,0.1c0.2,0.3,0.5,0.5,0.7,0.7c0.2,0.1,0.4,0.2,0.6,0.4c0.5,0.3,0.9,0.5,1.2,0.8c0.1,0.1,0.3,0.2,0.4,0.3l0.1,0
	c0.1,0,0.2,0.1,0.3,0.1c0.1,0,0.2,0.1,0.3,0.1c0.1,0,0.2,0.1,0.3,0.2c0.1,0.1,0.3,0.2,0.4,0.2c0.2,0.1,0.3,0.1,0.5,0.2
	c0.1,0,0.1,0,0.2,0.1c0,0,0.1,0,0.1,0c0.1,0,0.2,0.1,0.3,0.1c0.1,0,0.2,0.2,0.2,0.3c0,0.2-0.1,0.4-0.1,0.6c-0.1,0.3-0.2,0.7-0.1,1.1
	c0,0.1,0,0.3,0,0.4c0,0.1,0,0.2-0.1,0.3c0,0.2,0,0.4,0,0.6c0,0.1,0,0.2,0,0.3c0,0.2,0,0.4-0.1,0.5c-0.1,0.2-0.2,0.4-0.1,0.7
	c0,0.2,0,0.3,0,0.6c0,0.2,0,0.4,0,0.6c0,0.3,0,0.6-0.1,0.9c0,0.3-0.1,0.7-0.1,1c0,0.1,0,0.2,0,0.3c0,0.2,0,0.5,0.1,0.8
	c0.1,0.2,0.1,0.4,0.1,0.7c0,0.2,0,0.4,0,0.6c0,0.2,0,0.4,0,0.6c0,0.2,0,0.3,0,0.5c0,0.2,0.1,0.3,0.1,0.5l0,0c-0.1,0.2,0,0.5,0.1,0.7
	c0,0.1,0,0.2,0,0.4c0,0.1,0,0.2,0,0.3c0,0.1,0,0.1,0,0.2c0,0.2,0,0.4,0.1,0.6c0,0.1,0.1,0.2,0.1,0.3c0,0,0,0.1,0,0.1
	c0.1,0.2,0.1,0.4,0.2,0.7c0,0,0,0,0,0c0,0,0,0.1,0,0.1c0,0,0,0.1,0,0.1c0,0.1,0,0.2,0,0.4c0.1,0.2,0.1,0.3,0.2,0.5
	c0.1,0.2,0.1,0.4,0.2,0.6c0,0,0,0.1,0,0.1c0,0.1,0,0.2,0,0.4c0,0.2,0.1,0.5,0.2,0.7c0,0.1,0.1,0.2,0.1,0.2c0.1,0.3,0.3,0.6,0.5,0.9
	c0,0,0,0.1,0.1,0.1c0.1,0.1,0.1,0.2,0.1,0.2c0.1,0.3,0.2,0.7,0.4,1c0.1,0.1,0.1,0.2,0.2,0.3c0.1,0.2,0.3,0.5,0.3,0.7
	c0,0.2,0.1,0.3,0.1,0.3c0.1,0.1,0.1,0.1,0.2,0.2c0.1,0.1,0.2,0.3,0.3,0.4c0.1,0.1,0.2,0.2,0.3,0.3c0.1,0.2,0.3,0.4,0.4,0.5
	c0.4,0.4,0.7,0.8,1,1.1c0.2,0.2,0.4,0.3,0.6,0.5c0.3,0.2,0.6,0.4,0.8,0.6l0.1,0c0.1,0.1,0.2,0.1,0.2,0.1c0,0,0.1,0,0.1,0
	c0,0,0.1,0.1,0.2,0.1l0.2,0.1c0.4,0.2,0.9,0.5,1.3,0.7c0.3,0.1,0.6,0.2,0.9,0.3l0.1,0c0.1,0,0.3,0,0.4,0c0.1,0,0.1,0,0.2,0
	c0.1,0,0.3,0.1,0.4,0.1c0.2,0.1,0.5,0.2,0.8,0.2c0.2,0,0.4,0,0.6,0.1c0.4,0.1,0.8,0.1,1.2,0.1c0.1,0,0.2,0,0.2-0.1
	c0.2,0.1,0.5,0.2,0.8,0.2c0.3,0,0.6-0.1,0.8-0.2c0,0,0.1,0,0.1,0c0.2,0,0.4,0,0.6,0c0.2,0,0.5-0.1,0.7-0.2c0.3-0.1,0.7-0.2,1-0.2
	c0.7-0.1,1.5-0.2,2.1-0.8c0,0,0.1,0,0.2-0.1c0.1,0,0.1,0,0.2-0.1c0,0,0.1,0,0.1,0c0.1,0,0.4-0.1,0.5-0.3c0.1-0.1,0.2-0.2,0.4-0.2
	c0.1,0,0.3-0.1,0.4-0.2c0.1,0,0.2-0.1,0.3-0.1c0.3-0.1,0.6-0.1,0.9-0.5c0.1-0.1,0.1-0.1,0.2-0.1c0.5,0,0.9-0.2,1.2-0.5
	c0.1-0.1,0.3-0.2,0.4-0.2c0.1-0.1,0.2-0.1,0.3-0.2c0,0,0.1-0.1,0.1-0.1c0.1-0.1,0.3-0.2,0.4-0.2c0.2-0.1,0.4-0.2,0.6-0.4
	c0,0,0,0,0.1,0c0.3-0.1,0.4-0.2,0.5-0.4c0.1,0,0.2-0.1,0.3-0.2c0.1-0.1,0.2-0.1,0.2-0.2c0,0,0.1-0.1,0.1-0.1
	c0.2-0.1,0.5-0.3,0.7-0.4c0.1-0.1,0.3-0.1,0.4-0.2l0.1,0c0.2-0.1,0.5-0.3,0.7-0.6c0,0,0,0,0.1,0c0,0,0.1,0,0.1,0
	c0.1,0,0.3-0.1,0.4-0.2c0.1-0.1,0.2-0.2,0.2-0.3l0.1,0c0.2-0.1,0.4-0.2,0.6-0.4c0.1-0.1,0.2-0.2,0.3-0.2c0.3-0.2,0.5-0.4,0.8-0.5
	c0.2,0,0.3-0.2,0.4-0.3c0,0,0.1-0.1,0.1-0.1c0.1-0.1,0.2-0.2,0.4-0.3c0.1-0.1,0.2-0.2,0.2-0.3c0.1-0.1,0.1-0.2,0.2-0.2
	c0.5-0.4,0.9-0.7,1.4-1.1c0.2-0.1,0.3-0.3,0.5-0.4c0.1-0.1,0.2-0.1,0.3-0.2c0.2-0.2,0.5-0.3,0.7-0.5c0.1-0.1,0.2-0.2,0.3-0.3
	c0.2-0.2,0.4-0.4,0.6-0.5c0.2-0.1,0.3-0.2,0.4-0.4c0,0,0,0,0-0.1c0.1,0,0.1-0.1,0.2-0.1c0.5-0.3,0.9-0.6,1.3-1
	c0.2-0.2,0.4-0.4,0.6-0.6c0.1-0.1,0.3-0.3,0.4-0.4c0.1-0.1,0.2-0.2,0.3-0.3c0.1-0.1,0.2-0.3,0.4-0.4c0.2-0.2,0.5-0.3,0.7-0.5
	c0.1-0.1,0.3-0.2,0.4-0.2c0.1-0.1,0.2-0.1,0.2-0.2c0.4-0.5,0.7-0.8,1-1.1l0,0c0.3-0.2,0.7-0.6,0.8-1.1c0.5-0.2,1.1-0.7,1.3-1.1
	c0.1,0,0.1,0,0.2,0c0.1,0,0.1,0,0.2,0c0,0,0.1,0,0.1,0c0.5,0.3,1,0.2,1.4,0.1c0,0,0.1,0,0.1,0c0.1,0,0.2,0.1,0.4,0.1
	c0,0,0.1,0,0.1,0c0.3,0.1,0.6,0.1,0.8,0c0.1,0,0.2,0,0.4,0c0.4-0.1,0.5-0.1,0.6,0c0.2,0.2,0.4,0.1,0.5,0.1l0,0
	c0.4-0.1,0.9-0.1,1.3,0c0.2,0,0.4,0,0.6,0c0.1,0,0.1,0,0.2,0h0.1h0c0,0,0,0,0.1,0c0.1,0,0.2,0.1,0.3,0.1c0.2,0,0.4,0,0.6,0
	c0.3,0,0.5,0,0.8,0.1c0.5,0.1,1,0,1.4,0c0.3,0,0.5-0.1,0.7-0.1c0.3,0,0.6,0,1-0.1c0.1,0,0.2-0.1,0.3-0.1c0.6,0.1,1.3,0.1,1.9,0
	c0.1,0,0.3-0.1,0.4-0.2c0.1,0,0.1,0,0.2,0c0.3,0,0.5-0.1,0.8-0.2c0.2,0,0.3-0.1,0.5-0.1c0.1,0,0.1,0,0.2-0.1c0,0,0,0,0.1,0
	c0.3,0,0.5,0,0.7-0.1c0.2,0,0.3-0.1,0.4,0c0.3,0.1,0.7,0,0.9-0.1c0.1,0,0.1,0,0.2-0.1c0.2-0.1,0.4-0.1,0.7-0.2
	c0.1,0,0.2-0.1,0.2-0.1c0.1,0,0.1,0,0.2,0c0.3-0.1,0.6-0.1,0.9-0.2c0.3,0,0.5-0.1,0.8-0.1c0.1,0,0.2,0,0.3,0c0.2,0,0.4,0,0.6-0.1
	c0,0,0,0,0.1,0c0.1,0,0.4,0,0.5-0.2l0,0c0.1,0.1,0.2,0.1,0.3,0.1c0.1,0,0.3-0.1,0.4-0.1c0.2-0.1,0.5-0.1,0.6-0.1
	c0.3,0,0.6,0.2,0.9,0.4c0.5,0.4,1,0.6,1.6,0.6c0,0,0,0,0,0c0.1,0,0.1,0.1,0.2,0.1c0.3,0.1,0.5,0.1,0.8,0.2l0,0c0.1,0,0.1,0,0.2,0
	c0,0,0.1,0,0.1,0c0,0,0.1,0,0.1,0c0.1,0.1,0.4,0.1,0.6,0c0.1,0.1,0.2,0.2,0.4,0.2c0,0,0.1,0,0.1,0l0.3-0.1c0,0,0.1,0,0.1,0
	c0.1,0,0.3,0,0.4-0.1c0,0,0.1-0.1,0.1-0.1l0,0c0.1,0,0.2-0.1,0.3-0.1c0.2,0,0.4-0.1,0.6-0.2c0.6-0.2,1-0.6,1.4-1.1
	c0.1-0.1,0.2-0.3,0.3-0.4c0.1-0.1,0.2-0.3,0.3-0.3c0.4-0.3,0.8-0.7,1.1-1.3l0.1-0.2c0.1-0.1,0.1-0.3,0.2-0.4
	c0.1-0.4,0.5-0.5,0.9-0.7c0.2-0.1,0.4-0.2,0.5-0.3c0,0,0.1-0.1,0.1-0.1c0.1,0,0.1,0,0.2-0.1l0.3-0.2c0.1-0.1,0.2-0.1,0.3-0.2
	c0.1-0.1,0.3-0.2,0.4-0.2c0.4-0.1,0.8-0.3,1.1-0.5c0.2-0.1,0.4-0.2,0.6-0.3c0.4-0.1,0.7-0.3,1-0.5c0.2-0.1,0.3-0.2,0.5-0.3
	c0.1,0,0.2-0.1,0.3-0.1c0.2,0,0.3-0.1,0.5-0.2c0.3-0.2,0.5-0.3,0.8-0.5c0.6-0.4,1.3-0.7,1.9-1.2c0.1-0.1,0.2-0.2,0.4-0.3
	c0.6-0.5,1.1-0.9,1.8-1.2c0.3-0.2,0.6-0.4,0.8-0.6c0.1-0.1,0.2-0.2,0.3-0.2c0.1-0.1,0.1-0.1,0.2-0.2c0.1-0.1,0.3-0.1,0.4-0.3
	l0.1-0.1c0.3-0.4,0.5-0.8,0.9-1c0.1-0.1,0.5-0.3,0.3-0.7c0,0,0.1,0,0.1-0.1c0.1-0.1,0.2-0.2,0.3-0.3c0.1-0.1,0.2-0.3,0.3-0.4
	c0,0,0.1-0.1,0.1-0.1c0,0,0.1,0,0.1-0.1c0-0.1,0.1-0.1,0.1-0.2c0.1-0.1,0.2-0.2,0.3-0.4c0,0,0.1-0.1,0.1-0.1
	c0.1-0.2,0.4-0.4,0.3-0.8c0.3-0.3,0.5-0.6,0.7-0.9c0,0,0.1-0.1,0.1-0.1l0,0c0.2-0.4,0.4-0.8,0.7-1.2c0.2-0.4,0.3-0.7,0.5-1
	c0.1-0.3,0.2-0.6,0.3-0.9c0.1-0.4,0.2-0.7,0.2-1.1c0-0.1,0.1-0.3,0.2-0.4c0.1-0.3,0.3-0.6,0.3-0.9c0,0,0-0.1,0.1-0.1
	c0.1-0.1,0.1-0.2,0.1-0.4c0.1-0.3,0.1-0.6,0.1-0.9c0-0.1,0-0.3,0-0.4l0,0c0,0,0,0,0,0c0-0.1,0.1-0.2,0.1-0.3c0-0.1,0-0.1,0-0.2
	c0-0.3,0.1-0.6,0-0.9c0-0.2,0-0.4,0-0.6C114.8,77.6,114.8,77.3,114.8,76.9L114.8,76.9z M110.8,78.4c0,0.3-0.1,0.6,0,0.9
	c0,0.3-0.1,0.6-0.1,1c0,0.1,0,0.2-0.1,0.2c0,0.1-0.1,0.3-0.2,0.4c-0.1,0.2-0.2,0.3-0.2,0.5c-0.1,0.3-0.2,0.7-0.2,1
	c0,0.3-0.1,0.5-0.2,0.8c0,0,0,0.1,0,0.1c0,0.1-0.1,0.3-0.1,0.4c-0.3,0.3-0.4,0.6-0.5,0.8c-0.1,0.1-0.1,0.3-0.2,0.4
	c-0.2,0.3-0.4,0.8-0.6,1.2c-0.1,0.3-0.3,0.4-0.5,0.6l0,0c-0.1,0.1-0.2,0.3-0.3,0.4c-0.1,0.1-0.1,0.1-0.2,0.2c0,0-0.1,0.1-0.1,0.1
	c0,0-0.1,0.1-0.1,0.1l0,0c-0.1,0.1-0.3,0.2-0.2,0.5l0,0c0,0-0.1,0.1-0.1,0.1c-0.1,0.1-0.2,0.1-0.3,0.2c-0.6,0.7-1.3,1.3-1.9,1.9
	l-0.2,0.2c-0.2,0.1-0.3,0.3-0.5,0.4l-0.1,0.1c-0.1,0.1-0.2,0.1-0.3,0.2c-0.2,0.1-0.5,0.3-0.7,0.5c-0.2,0.2-0.4,0.3-0.6,0.5
	c-0.3,0.2-0.5,0.3-0.8,0.6c0,0-0.1,0.1-0.2,0.1c-0.1,0-0.2,0.1-0.4,0.1c-0.2,0.1-0.5,0.3-0.6,0.6c0,0.1-0.1,0.1-0.3,0.2l-0.1,0
	c-0.3,0.1-0.5,0.3-0.8,0.4c-0.2,0.1-0.4,0.2-0.6,0.3c-0.4,0.2-0.9,0.4-1.3,0.6c0-0.1,0-0.1,0-0.2c0-0.2,0-0.4,0.1-0.7
	c0.1-0.3,0.2-0.6,0.1-0.9c0.2-0.3,0.2-0.6,0.1-0.8c0-0.1,0-0.2,0-0.3c0-0.1,0-0.2,0-0.3c0-0.1,0.1-0.1,0.1-0.2
	c0.1-0.2-0.1-0.4-0.1-0.5c0,0,0-0.1,0-0.2c0-0.1,0-0.1,0-0.2c0-0.3,0.1-0.6,0.1-0.9l0-0.2c0-0.2,0-0.4,0-0.6c0-0.3,0-0.5,0.1-0.7
	c0.1-0.1,0.1-0.2,0.1-0.3c0,0,0,0,0-0.1l0.1-0.6c0-0.1,0-0.2-0.1-0.3c-0.2-0.4-0.3-2.8-0.1-3.2c0.1-0.1,0.1-0.3,0-0.4
	c0,0-0.1-0.1-0.1-0.1c0-0.3,0-0.5-0.2-0.8c0-0.1,0-0.2,0-0.3c0-0.3,0-0.5,0-0.8c0-0.2,0.1-0.3,0.1-0.5c0-0.1,0.1-0.2,0.1-0.3
	c0-0.1,0-0.2,0-0.3c0-0.1,0-0.2,0.1-0.3c0.2-0.3,0.1-0.5,0.1-0.7c0,0,0,0,0,0l0,0c0-0.1,0.1-0.2,0.1-0.3c0-0.1,0.1-0.2,0.1-0.3
	c0.1-0.3,0.3-0.7,0.2-1c0-0.2,0-0.3,0.1-0.5c0-0.1,0.1-0.3,0.1-0.5c0-0.3,0.1-0.7,0.1-1.1c0-0.1,0-0.1,0-0.2c0,0,0,0,0,0l0,0
	c0,0,0-0.1,0-0.1c0-0.1,0.1-0.2,0.1-0.4l0-0.2c0.1-0.4,0.2-0.8,0.2-1.3c0-0.1,0-0.1,0-0.2c0-0.2,0.1-0.5,0-0.8c0-0.1,0-0.2,0.1-0.3
	c0-0.1,0.1-0.2,0.1-0.3c0-0.1,0-0.3,0.1-0.4c0.1-0.4,0.1-0.8,0.2-1.2c0-0.2,0-0.4,0-0.5c0-0.1,0-0.2,0-0.3c0-0.2,0-0.3,0.1-0.5
	c0-0.1,0.1-0.3,0.1-0.4c0-0.1,0-0.2,0-0.3l0.1-0.1c0.1-0.1,0.1-0.2,0-0.4c-0.1-0.2-0.1-0.4,0-0.7c0.1-0.2,0-0.5,0-0.7
	c0-0.1,0-0.2,0-0.3c0-0.3,0-0.6,0-0.9c0-0.3,0-0.5,0-0.8c0-0.1,0-0.2,0-0.3c0,0,0-0.1,0-0.1c0-0.1,0-0.2,0-0.4
	c0-0.3-0.1-0.6-0.1-0.9c0-0.2,0-0.4,0-0.7c0-0.1,0-0.3,0-0.4c0-0.2,0-0.4,0-0.6c-0.1-0.2,0-0.5,0-0.7c0-0.4,0-0.7-0.1-1.1
	c0-0.2-0.1-0.3-0.1-0.5c0-0.3,0-0.6,0-0.9l0-0.2c0-0.1,0-0.2,0-0.3l0-0.1c0,0,0-0.1,0-0.1c0,0,0-0.1,0-0.1c0-0.1,0.1-0.2,0.1-0.3
	c0-0.3,0-0.5,0-0.8c0-0.1-0.1-0.3-0.1-0.3l0-0.2c0.1,0.1,0.2,0.2,0.3,0.3c0.1,0.1,0.3,0.3,0.4,0.4c0.1,0.1,0.2,0.2,0.3,0.3
	c0,0,0.1,0.1,0.1,0.1c0,0.1,0.1,0.2,0.2,0.2c0.2,0.1,0.4,0.4,0.6,0.6c0.2,0.2,0.4,0.4,0.6,0.6c0.1,0.1,0.2,0.3,0.4,0.5
	c0.1,0.1,0.2,0.2,0.2,0.3c0.1,0.1,0.2,0.2,0.3,0.2c0,0,0,0,0.1,0c0,0,0.1,0.1,0.1,0.1c0.1,0.1,0.2,0.3,0.3,0.5
	c0.1,0.1,0.2,0.2,0.2,0.3c0.1,0.1,0.2,0.2,0.3,0.3c0,0,0.1,0.1,0.1,0.1c0.1,0.1,0.1,0.1,0.1,0.1c0.1,0.2,0.3,0.3,0.4,0.4
	c0.2,0.1,0.2,0.1,0.2,0.2c-0.1,0.3,0.1,0.4,0.3,0.5c0,0,0,0.1,0,0.1c0.1,0.2,0.2,0.3,0.3,0.3c0,0,0,0.1,0,0.1c0,0,0,0.1,0.1,0.1
	c0.2,0.4,0.5,0.7,0.8,1l0.1,0.1c0.3,0.3,0.4,0.5,0.5,0.8l0,0.1c0.1,0.2,0.2,0.7,0.7,0.8c0,0,0,0.1,0.1,0.1c0.1,0.2,0.2,0.3,0.3,0.5
	c0,0,0,0.1,0,0.1c0,0.1,0.1,0.3,0.3,0.5c0,0.3,0.2,0.7,0.5,1c0.1,0.6,0.4,1,0.7,1.4c0,0,0,0,0,0c-0.1,0.2,0,0.5,0,0.7
	c0,0.1,0.1,0.1,0.1,0.2c0,0.1,0.1,0.1,0.1,0.2c0,0.2,0.2,0.4,0.3,0.6c0.1,0.1,0.2,0.3,0.2,0.4c0.1,0.4,0.2,0.9,0.3,1.5
	c0.1,0.4,0.2,0.8,0.4,1.2c0.1,0.3,0.2,0.6,0.3,0.9c0.1,0.3,0.1,0.5,0.1,0.8c0,0.3,0.1,0.6,0.1,0.9c0,0.3,0,0.6,0,1
	c0,0.1,0,0.3,0,0.4c0,0.1,0,0.2,0.1,0.2c-0.1,0.1-0.1,0.2-0.1,0.4C110.8,78,110.8,78.2,110.8,78.4L110.8,78.4z M94.4,61.2
	c0,0.1-0.1,0.3-0.1,0.4c0,0.1-0.1,0.1-0.1,0.2c0,0,0,0.1-0.1,0.1c-0.1,0.1-0.1,0.2-0.2,0.4c-0.1,0.2-0.1,0.4-0.1,0.6
	c-0.1,0.3-0.1,0.6-0.2,0.9c0,0.1,0,0.1-0.1,0.2c0,0.1,0,0.1-0.1,0.2c0,0,0,0-0.1,0c0,0,0,0,0,0c0,0,0-0.1,0-0.1l-0.1-0.2
	c-0.1-0.1-0.1-0.3-0.2-0.4C93,63.3,93,63.1,92.9,63c0.1-0.3,0-0.6-0.1-0.7c0,0,0-0.1-0.1-0.1c0-0.1,0-0.1-0.1-0.2
	c0-0.1,0-0.1-0.1-0.1c-0.1-0.2-0.1-0.4-0.2-0.5c0.1,0,0.1-0.1,0.2-0.2c0.1-0.2,0.2-0.3,0.3-0.5c0.1-0.2,0.2-0.4,0.3-0.6
	c0.1-0.2,0.2-0.3,0.4-0.5c0.1-0.1,0.2-0.3,0.3-0.4c0.1-0.1,0.2-0.3,0.3-0.4c0.1-0.1,0.2-0.3,0.3-0.4c0.1-0.2,0.3-0.4,0.4-0.6
	c0.1-0.1,0.1-0.1,0.2-0.2c0,0.2,0,0.4,0,0.7c0,0.1-0.1,0.5-0.2,1.2l0,0.1c0,0.1-0.1,0.2-0.1,0.4C94.4,60.3,94.2,60.7,94.4,61.2
	L94.4,61.2z M93.5,91.8c0,0.1,0,0.2,0,0.3c0,0.1,0,0.2,0,0.3c0,0.1,0,0.2,0,0.3c0,0.1,0,0.3,0,0.4c0,0.1,0,0.2,0,0.3l0,0
	c0,0.3-0.1,0.7-0.1,1c-0.1,0.3-0.1,0.6-0.2,0.8c-0.1,0.2-0.1,0.5-0.2,0.7c0,0.1,0,0.2,0,0.3c0,0.1-0.1,0.2-0.1,0.3
	c0,0.3-0.2,0.4-0.6,0.7l0,0c-0.1,0.1-0.2,0.1-0.3,0.2c-0.2,0.1-0.4,0.3-0.6,0.3c-0.1,0-0.1,0-0.2,0c-0.2,0-0.3,0-0.5,0.1
	c-0.2,0.1-0.5,0.2-0.8,0.4c-0.3,0.2-0.6,0.3-1,0.3c0,0,0,0-0.1,0c-0.1-0.1-0.2-0.1-0.3,0c0,0-0.1,0-0.1,0c-0.1,0-0.2,0-0.3,0.1
	c0,0,0.1-0.1,0.1-0.1c0.2-0.3,0.4-0.5,0.7-0.8c0.1-0.1,0.2-0.1,0.3-0.2c0.5-0.3,0.8-0.8,1.1-1.2c0.1-0.1,0.2-0.3,0.3-0.4
	c0.1-0.1,0.2-0.2,0.2-0.3c0.1-0.1,0.2-0.3,0.3-0.5c0.1-0.1,0.2-0.3,0.2-0.4c0-0.1,0.1-0.1,0.1-0.2l0,0c0.1,0,0.1-0.1,0.2-0.2
	c0.1-0.1,0.1-0.2,0.2-0.3c0.3-0.4,0.5-0.8,0.8-1.2c0.1-0.2,0.2-0.4,0.3-0.6c0-0.1,0.1-0.2,0.1-0.3c0.1,0,0.2-0.1,0.2-0.2
	c0.1-0.2,0.3-0.4,0.4-0.6c0,0.1,0,0.1,0,0.2C93.5,91.4,93.5,91.6,93.5,91.8z M72,101.3c0,0-0.1,0-0.2,0c-0.1,0-0.1,0-0.2,0
	c-0.1,0-0.1,0-0.2,0c0,0,0,0-0.1,0c-0.1,0-0.3,0-0.5,0.1c-0.1,0.1-0.3,0.1-0.5,0.1c-0.1,0-0.3,0-0.5,0c-0.1,0-0.2,0-0.3,0
	c-0.2,0-0.4,0-0.6,0c-0.1,0-0.3,0-0.4,0c-0.3,0-0.6,0-0.9,0.1c0,0,0,0-0.1,0c-0.1,0-0.2-0.1-0.3-0.1l-0.2,0
	c-0.3-0.1-0.6-0.1-0.9-0.2c0,0-0.1,0-0.1,0c-0.2,0-0.3,0-0.5,0.1c0,0,0,0-0.1,0c-0.3-0.2-0.8-0.1-1.1,0.1c0.2-0.2,0.3-0.4,0.5-0.6
	c0.2-0.3,0.5-0.6,0.8-0.9c0.2-0.2,0.4-0.5,0.7-0.7c0.1-0.1,0.2-0.2,0.2-0.4c0.1-0.1,0.2-0.3,0.2-0.3c0,0,0.1-0.1,0.2-0.1
	c0.1-0.1,0.2-0.1,0.4-0.3c0.2-0.3,0.5-0.5,0.7-0.8c0.1-0.1,0.2-0.3,0.4-0.4c0.1-0.1,0.1-0.1,0.2-0.2c0.1-0.1,0.2-0.2,0.3-0.3
	c0.1-0.1,0.2-0.2,0.2-0.3c0.1-0.1,0.1-0.2,0.2-0.3c0,0,0.1-0.1,0.2-0.2c0.1-0.1,0.1-0.1,0.2-0.2c0.1-0.1,0.1-0.2,0.1-0.3
	c0,0,0,0,0-0.1l0,0l0.2-0.1c0.1,0,0.2-0.1,0.2-0.2c0-0.1,0-0.1,0-0.2c0.2-0.2,0.4-0.4,0.6-0.6c0.5-0.4,1-0.9,1.5-1.3
	c0.1-0.1,0.2-0.1,0.5-0.2c0.4-0.1,0.7-0.2,1-0.5c0,0,0.1-0.1,0.2-0.1c0.1-0.1,0.3-0.1,0.5-0.3c0.1,0,0.1-0.1,0.2-0.1
	c0,0,0,0.1,0.1,0.1c0.1,0.1,0.2,0.2,0.3,0.2c0,0.1,0,0.1,0.1,0.2c0.1,0.1,0.2,0.2,0.3,0.3c0.1,0.2,0.2,0.3,0.3,0.5
	c0.1,0.1,0.1,0.3,0.2,0.4c0.1,0.3,0.3,0.5,0.5,0.8c0.1,0.1,0.1,0.1,0.2,0.2c0.1,0.2,0.3,0.4,0.6,0.6c0,0,0,0,0,0.1
	c0,0.1,0.1,0.2,0.2,0.3c0,0.1,0.1,0.2,0.1,0.2c0.1,0.2,0.2,0.5,0.5,0.7c0.1,0.1,0.1,0.2,0.2,0.2c0,0,0.1,0,0.1,0.1
	c0.1,0,0.1,0.1,0.2,0.1c0.3,0.4,0.7,0.9,1,1.3l0.1,0.1c0.1,0.1,0.1,0.1,0.2,0.2c0,0,0,0.1,0,0.1c0,0.1,0.1,0.3,0.2,0.3
	c0,0,0.1,0,0.1,0c0,0,0,0,0,0c0,0.2,0.2,0.4,0.3,0.5c0,0,0,0,0,0c0.1,0.1,0.2,0.1,0.3,0.2c0.1,0.1,0.2,0.2,0.3,0.2c0,0,0,0.1,0,0.1
	c0,0,0,0,0,0.1c0,0,0,0,0,0c-0.1,0.1-0.3,0.2-0.4,0.3c-0.4-0.1-0.7,0.1-1,0.2c-0.1,0.1-0.2,0.1-0.3,0.1c-0.1,0-0.2,0-0.3,0
	c-0.2,0-0.4,0-0.5,0.1c-0.1,0-0.3,0.1-0.4,0.1c-0.2,0-0.4,0.1-0.6,0.1c-0.1,0-0.1,0-0.2,0c-0.2,0-0.4-0.1-0.6,0
	c-0.5,0.1-1,0.2-1.5,0.3c-0.1,0-0.3,0-0.5,0c-0.1,0-0.1,0-0.2,0c-0.1,0-0.1,0-0.2,0c-0.1,0-0.3,0-0.4,0.1c-0.3,0.1-0.6,0.1-0.9,0.1
	c-0.1,0-0.2,0-0.3,0.1C72.4,101.2,72.1,101.2,72,101.3L72,101.3z M47.6,113.1c-0.2,0.1-0.3,0.2-0.4,0.4c0,0,0,0,0,0
	c-0.1,0-0.2,0.1-0.3,0.2c-0.1,0.1-0.1,0.1-0.2,0.1c-0.2,0.1-0.3,0.2-0.4,0.3c0,0-0.1,0.1-0.1,0.1c-0.1,0.1-0.2,0.1-0.2,0.2
	c-0.2,0.2-0.4,0.4-0.7,0.6c-0.1,0-0.2,0.1-0.3,0.1c-0.1,0-0.2,0.1-0.3,0.1c-0.1,0.1-0.3,0.2-0.4,0.3c-0.3,0.4-0.6,0.7-0.9,0.9
	c-0.1,0-0.2,0.1-0.2,0.1c0,0-0.1,0.1-0.2,0.1c-0.5,0-0.7,0.3-0.9,0.6l0,0c0,0.1-0.1,0.1-0.2,0.2l0,0c-0.1,0-0.2,0-0.3,0.1
	c-0.2,0.2-0.4,0.3-0.6,0.5c-0.3,0.2-0.6,0.4-0.8,0.6c0,0-0.1,0-0.1,0c-0.1,0-0.2,0-0.3,0.1c-0.1,0-0.1,0.1-0.2,0.1
	c-0.2,0.1-0.5,0.2-0.7,0.4c-0.4,0.3-0.8,0.5-1.3,0.7c-0.2,0.1-0.5,0.2-0.7,0.3c-0.6,0.3-1.3,0.6-2,0.9c-0.2,0.1-0.3,0.1-0.5,0.2
	c-0.1,0-0.2,0-0.3,0.1c-0.1,0-0.2,0-0.4,0.1c-0.3,0.1-0.6,0.2-0.9,0.3l-0.2,0.1c0,0-0.1,0-0.1,0c-0.1,0-0.3-0.1-0.4-0.1
	c-0.5,0.1-1,0.1-1.4,0.3c0,0-0.1,0-0.2,0c-0.1,0-0.3-0.1-0.6,0c-0.4,0.2-0.9,0-1.4-0.1c-0.2-0.1-0.5-0.1-0.8-0.2
	c-0.2,0-0.4-0.1-0.5-0.1c0,0-0.1,0-0.1-0.1c-0.1,0-0.1-0.1-0.2-0.1c-0.3-0.1-0.6-0.2-0.8-0.3c-0.2-0.1-0.4-0.2-0.6-0.2
	c-0.3-0.5-0.7-0.7-1.2-0.9c-0.1,0-0.1-0.1-0.2-0.1c-0.1-0.1-0.1-0.1-0.1-0.1c0,0,0-0.1-0.1-0.1c-0.2-0.4-0.4-0.8-0.8-1.1
	c-0.1-0.1-0.2-0.2-0.3-0.4c-0.1-0.2-0.2-0.5-0.4-0.6c-0.1-0.2-0.2-0.4-0.3-0.5c0,0-0.1-0.1-0.1-0.1c-0.1-0.3-0.2-0.6-0.3-0.8
	c-0.2-0.3-0.3-0.6-0.4-1c-0.1-0.4-0.2-0.8-0.4-1.1c-0.1-0.2-0.2-0.4-0.3-0.7c-0.1-0.3-0.2-0.8-0.2-1.1c0-0.1,0-0.2,0-0.3
	c0-0.4,0-0.8-0.2-1.2c0-0.1,0-0.2,0-0.3c0-0.2,0-0.4,0-0.6c-0.1-0.2,0-0.4,0-0.7c0-0.3,0.1-0.6,0-0.9c0-0.1-0.1-0.3-0.1-0.4
	c-0.1-0.3-0.1-0.4-0.1-0.5c0.2-0.4,0.1-0.8,0-1.1c0-0.2-0.1-0.3-0.1-0.4c0-0.2,0-0.5,0-0.7c0-0.2,0-0.4,0.1-0.6
	c0.1-0.3,0.1-0.6,0.1-0.9c0-0.2,0-0.4,0-0.5c0-0.2,0.1-0.5,0.1-0.7c0-0.1,0-0.2,0.1-0.3c0-0.1,0.1-0.2,0.1-0.4
	c0-0.1-0.1-0.2-0.1-0.4c0-0.1-0.1-0.3-0.1-0.4c0,0,0,0,0,0c0-0.1,0-0.1,0-0.2c0-0.1,0-0.1,0-0.2c0-0.1,0-0.1,0-0.1c0,0,0-0.1,0-0.1
	c0-0.1,0-0.3,0-0.4c0.1-0.2,0.1-0.4,0.2-0.7c0.2,0.1,0.3,0.1,0.4,0l0.2,0.1c0.4,0.2,0.8,0.3,1.2,0.4c0.1,0,0.3,0,0.3,0c0,0,0,0,0,0
	c0.2,0.1,0.4,0.2,0.6,0.3c0.3,0.1,0.5,0.1,0.8,0.1c0.3,0,0.5,0.1,0.7,0.1c0.1,0,0.2,0.1,0.3,0.1c0.1,0.1,0.2,0.1,0.3,0.1l0,0
	c0.2,0.1,0.4,0.2,0.6,0.2l0.1,0c0.4,0,0.8,0.1,1,0.3c0.1,0.1,0.3,0.2,0.5,0.1c0.4-0.1,0.7,0,1.1,0.2c0.1,0,0.2,0.1,0.3,0.1
	c0.3,0.1,0.6,0.1,0.9,0.2c0.2,0,0.3,0,0.5,0.1c0.1,0,0.3,0.1,0.4,0.1c0.1,0,0.3,0.1,0.4,0.1c0.1,0,0.3,0,0.4,0c0,0,0.1,0,0.1,0
	c0,0,0.1,0,0.1,0c0.4,0.2,0.8,0.2,1.1,0.2c0.2,0,0.4,0,0.6,0.1c0.5,0.1,1,0.2,1.6,0.2c0.1,0.1,0.2,0.2,0.4,0.1
	c0.2,0.3,0.6,0.3,0.8,0.3c0.1,0,0.2,0,0.2,0c0.1,0.1,0.3,0.1,0.5,0l0,0c0,0,0,0,0.1,0c0.1,0,0.2,0,0.3,0c0.2,0,0.4,0.1,0.6,0.1
	c0.1,0,0.1,0,0.2,0.1c0.1,0,0.3,0.1,0.4,0.1c0.3,0,0.6,0,0.9,0.1c0.3,0,0.7,0,1.1,0.1c0.1,0,0.2,0.1,0.4,0.1c0.1,0,0.2,0.1,0.3,0.1
	c0.2,0.1,0.3,0.1,0.4,0c0.2-0.1,0.4,0,0.6,0.1c0.1,0,0.2,0,0.3,0.1c0.1,0,0.3,0.1,0.4,0.1c0.6,0.1,1.2,0.3,1.8,0.1
	c0.4-0.1,0.8,0,1.2,0.2c0.1,0,0.2,0.1,0.3,0.1c0.1,0,0.3,0,0.4-0.1c0.1,0,0.3,0.1,0.4,0.1c0.2,0,0.3,0.1,0.5,0.1l0.1,0
	c0,0,0.1,0,0.1,0c0.4,0.2,0.8,0.1,1.1,0c0,0,0.1,0,0.1,0c0,0,0.1,0,0.1,0c0.1,0,0.1,0,0.2,0c0.1,0,0.2,0,0.3,0c0.3,0,0.5,0,0.7,0.1
	c0.1,0,0.1,0,0.2,0c0.3,0.1,0.5,0.1,0.9,0.1c0.2,0,0.4,0,0.7,0.1c0.1,0,0.3,0.1,0.4,0.1c0.1,0,0.3,0,0.4,0.1c0.1,0,0.3,0,0.4,0.1
	c0.2,0,0.3,0.1,0.5,0.1l0.2,0c0.1,0,0.2,0,0.2,0c0.2,0.1,0.5,0,0.6,0c0.1,0,0.1,0,0.2,0c0.2,0,0.5,0,0.7,0c0.3,0,0.5,0,0.7,0
	c0.1,0,0.2,0,0.2,0.1c0,0,0,0,0,0.1l0,0c-0.2,0.1-0.4,0.3-0.6,0.4c-0.5,0.4-0.9,0.8-1.3,1.2c-0.1,0.1-0.2,0.2-0.2,0.3
	c-0.2,0.2-0.4,0.5-0.7,0.7c-0.2,0.2-0.6,0.4-0.8,0.7c-0.2,0.3-0.4,0.6-0.7,0.8c-0.2,0.2-0.4,0.3-0.6,0.5c-0.2,0.1-0.3,0.3-0.5,0.4
	c-0.2,0.1-0.3,0.3-0.4,0.4c0,0.1-0.1,0.1-0.1,0.2c0,0,0,0.1-0.1,0.1c-0.4,0.2-0.6,0.4-0.7,0.7c-0.1,0.1-0.1,0.2-0.2,0.3
	c-0.1,0.1-0.2,0.2-0.4,0.3c-0.3,0.1-0.6,0.3-0.8,0.6c-0.1,0-0.1,0-0.2,0.1c-0.2,0.1-0.3,0.2-0.4,0.3C47.8,112.9,47.7,113,47.6,113.1
	z M18.9,89.5c-0.1,0.3-0.2,0.7-0.3,1.1c-0.1,0.3-0.1,0.5-0.1,0.8c0,0.2,0,0.3-0.1,0.5c-0.1,0.2-0.1,0.4-0.1,0.6
	c0,0.1-0.1,0.2-0.1,0.4l0,0.1c0,0.1,0,0.2-0.1,0.3c-0.2,0.3-0.1,0.5-0.1,0.7c0,0,0,0,0,0.1l-0.1,0.3c-0.2-0.1-0.4-0.2-0.5-0.3
	c-0.1-0.1-0.3-0.1-0.4-0.1c-0.1,0-0.1,0-0.2,0c0-0.1,0-0.1,0-0.2c0-0.1-0.1-0.2-0.2-0.2c-0.1,0-0.1,0-0.2-0.1
	c-0.1,0-0.2-0.1-0.3-0.1l-0.2-0.1c-0.3-0.1-0.6-0.2-0.8-0.4c-0.2-0.1-0.3-0.2-0.4-0.3c-0.2-0.3-0.5-0.5-0.8-0.6
	c-0.1,0-0.2-0.1-0.2-0.1c0,0-0.1-0.1-0.2-0.2c0,0-0.1-0.1-0.1-0.1c-0.1-0.1-0.2-0.1-0.3-0.1c-0.1,0-0.2-0.1-0.2-0.2
	c0-0.1-0.1-0.2-0.2-0.3c-0.1,0-0.1,0-0.2,0c0-0.2-0.2-0.3-0.4-0.3c-0.2,0-0.8-0.4-0.9-0.6c0-0.2-0.2-0.3-0.4-0.3
	c-0.1,0-0.2-0.1-0.4-0.3c-0.1-0.1-0.1-0.2-0.2-0.2C10,89,10,88.9,9.9,88.8c-0.2-0.3-0.5-0.6-0.9-0.8c0-0.1,0-0.1-0.1-0.2
	c0,0-0.1-0.1-0.1-0.1c-0.1-0.1-0.2-0.2-0.3-0.3c-0.1,0-0.1-0.2-0.2-0.3C8.3,87,8.2,86.8,8,86.7c-0.1-0.1-0.2-0.2-0.3-0.3
	c-0.1-0.1-0.1-0.2-0.2-0.2c-0.1-0.1-0.1-0.2-0.2-0.4c-0.1-0.1-0.1-0.2-0.2-0.3c-0.1-0.2-0.3-0.4-0.4-0.6c-0.1-0.1-0.2-0.2-0.2-0.3
	C6.2,84.2,6.1,84,6,83.8c-0.1-0.1-0.1-0.3-0.2-0.4c-0.1-0.1-0.1-0.2-0.1-0.3c-0.1-0.1-0.1-0.2-0.2-0.3c-0.1-0.1-0.1-0.2-0.2-0.3l0,0
	c0-0.1,0-0.2,0-0.3c-0.1-0.4-0.3-0.8-0.4-1.2c-0.1-0.4-0.3-0.8-0.4-1.2c-0.2-0.5-0.3-1-0.4-1.4c0,0,0-0.1,0-0.1c0-0.1,0-0.2,0-0.3
	c0-0.2,0-0.3-0.1-0.4c0-0.2-0.1-0.5-0.1-0.7c0.1-0.4,0-0.7,0-1c0-0.1,0-0.2,0-0.3c0-0.1,0-0.2,0-0.3c0-0.1,0-0.2,0-0.4c0,0,0,0,0,0
	c0.1-0.1,0.1-0.3,0-0.6c-0.1-0.2-0.1-0.4,0-0.7c0-0.2,0.1-0.3,0.1-0.5C4,73,4,72.8,4.1,72.6c0.1-0.2,0.1-0.5,0.1-0.7
	c0-0.1,0-0.2,0-0.3c0.3-0.4,0.3-0.8,0.3-1.1c0,0,0-0.1,0-0.1c0.1,0,0.1-0.1,0.1-0.2l0.1-0.2c0-0.1,0.1-0.2,0.1-0.3
	c0-0.1,0.1-0.3,0.1-0.4c0.1-0.3,0.2-0.6,0.3-0.9c0-0.1,0-0.2,0-0.4c0.2-0.2,0.4-0.5,0.4-0.9c0-0.1,0.1-0.2,0.1-0.3
	c0-0.1,0-0.1,0.1-0.2l0-0.1C5.9,66.4,6,66,6.2,65.6c0.1,0,0.1-0.1,0.2-0.2c0,0,0.1-0.1,0.1-0.1c0.1-0.1,0.2-0.3,0.3-0.6
	c0.1-0.3,0.2-0.6,0.3-0.9c0-0.1,0.1-0.2,0.1-0.3c0-0.1,0.1-0.1,0.1-0.1c0.3-0.1,0.4-0.4,0.5-0.6c0,0,0-0.1,0-0.1
	C7.9,62.7,8,62.6,8,62.5c0-0.1,0.1-0.2,0.1-0.2c0-0.1,0.1-0.1,0.1-0.2c0.1-0.1,0.1-0.3,0.2-0.4l0.1-0.2c0.2-0.1,0.2-0.2,0.2-0.3
	c0,0,0,0,0.1,0c0,0,0.1,0,0.1,0c0.6-0.2,0.7-0.6,0.8-1.2c0,0,0,0,0.1-0.1c0,0,0,0,0.1-0.1c0.1-0.1,0.2-0.3,0.3-0.4
	c0.3-0.3,0.5-0.6,0.8-1l0-0.1c0.1-0.2,0.3-0.4,0.4-0.5c0.1-0.1,0.1-0.1,0.2-0.2c0.1-0.1,0.3-0.2,0.4-0.3c0.2-0.1,0.3-0.3,0.4-0.4
	l0,0c0,0,0.1,0,0.1-0.1c0.2-0.1,0.5-0.2,0.5-0.5c0-0.1,0.1-0.2,0.2-0.3c0,0,0,0.1,0,0.1l0,0.1c0,0.1,0,0.2,0,0.3c0,0.4,0,0.7-0.1,1
	c-0.1,0.3-0.1,0.6-0.1,0.8c0,0.1,0,0.2,0,0.2c-0.1,0.7-0.1,1.3-0.1,1.9c0,0.2,0,0.3,0,0.5c0,0.1,0,0.3,0,0.4c0,0.2,0,0.5-0.1,0.6
	c-0.1,0.2,0,0.5,0,0.7c0,0.2,0,0.4,0,0.5c-0.1,0.3-0.1,0.6-0.1,0.8c0,0.1,0,0.2,0,0.3c-0.1,0.2,0,0.3,0,0.4c-0.1,0.4,0,0.8,0,1
	c0,0.1,0,0.2,0,0.3c0,0.1,0,0.2,0,0.3c0,0.3,0,0.6,0,1l0,0.2c0,0.5,0,0.9,0.1,1.4c0,0.3,0.1,0.7,0.2,1.1c0.1,0.1,0.1,0.2,0,0.3
	c-0.1,0.2,0,0.4,0,0.4l0,0c0,0.1,0,0.2,0.1,0.3c0,0,0,0.1,0,0.1c0,0.3,0,0.6,0.2,0.9c-0.2,0.3-0.1,0.6,0.1,0.9
	c0.1,0.1,0.1,0.2,0.1,0.2c-0.1,0.4,0.1,0.8,0.2,1.1c0.1,0.2,0.2,0.4,0.2,0.6c0,0.2,0.1,0.3,0.2,0.4c0,0.1,0,0.1,0,0.2
	c0,0.2,0.1,0.5,0.1,0.7c0,0.1,0,0.2,0.1,0.2c0,0.1,0,0.2,0.1,0.2c0,0.2,0.1,0.4,0.2,0.6c0,0,0,0.1,0,0.1c0,0.1,0,0.4,0.2,0.6
	c0,0.3,0.1,0.6,0.2,0.8c0.1,0.1,0.1,0.2,0.1,0.3l0,0.1c0.1,0.3,0.1,0.6,0.4,1c0,0,0.1,0.2,0.1,0.3c0,0.2,0.1,0.4,0.2,0.6
	c0.3,0.4,0.5,0.8,0.5,1.3c0,0.1,0.1,0.2,0.1,0.3l0,0c0,0.1,0.1,0.2,0.1,0.3c0.1,0.2,0.2,0.3,0.2,0.4c0,0.4,0.2,0.7,0.4,1
	c0.2,0.1,0.2,0.3,0.3,0.6c0,0.1,0.1,0.2,0.2,0.3c0,0,0,0.1,0.1,0.1c0.1,0.2,0.1,0.4,0.4,0.6c0.1,0.3,0.3,0.5,0.4,0.7
	c0.1,0.1,0.2,0.2,0.2,0.2c0,0,0,0.1,0.1,0.1c0.1,0.3,0.3,0.5,0.5,0.8c0,0,0,0,0,0.1c0,0,0,0,0,0c0,0.1,0,0.3,0.2,0.4
	c0,0,0,0,0.1,0.2c0,0,0,0.1,0,0.2c0,0.1-0.1,0.2-0.1,0.3c0,0.1,0,0.3,0,0.4C19,89.2,18.9,89.4,18.9,89.5z M12.7,33.4
	c0-0.1-0.1-0.3-0.1-0.4c0-0.1-0.1-0.3-0.1-0.4c-0.1-0.5-0.2-1-0.2-1.5c0,0,0-0.1,0-0.2c0.4-0.3,0.4-0.7,0.3-0.9l0-0.1
	c0-0.2,0-0.4,0.1-0.6c0.2-0.3,0.2-0.6,0.2-0.9c0-0.1,0-0.2,0-0.3c0-0.1,0-0.1,0.1-0.2l0-0.1c0,0,0,0,0-0.1c0-0.1,0.1-0.1,0.1-0.2
	c0-0.2,0.1-0.3,0.3-0.5c0.2-0.2,0.4-0.4,0.5-0.5c0.1-0.1,0.1-0.2,0.2-0.2c0,0,0,0,0,0c0.4-0.1,0.6-0.3,0.9-0.5
	c0.1,0,0.1-0.1,0.2-0.1c0.1,0,0.1-0.1,0.1-0.1c0,0,0,0,0.1-0.1c0.1,0,0.2,0.1,0.3,0c0.1,0,0.3-0.1,0.3-0.2c0-0.1,0-0.1,0.3-0.1
	c0.1,0,0.3,0,0.5-0.1c0.3-0.1,0.6-0.2,1-0.3c0.1,0,0.1,0,0.2,0c0.1,0,0.2,0,0.3-0.1c0.3-0.1,0.5-0.1,0.8-0.1c0.4,0,0.8,0,1.1,0
	c0.1,0,0.2,0,0.3,0c0,0.4-0.1,0.8-0.1,1.1c0,0.2,0,0.4,0,0.5c0,0.2,0,0.3,0,0.5c0,0.3-0.1,0.7-0.1,1.1c0,0.1,0,0.3,0,0.4
	c0,0.5-0.1,0.9,0,1.4c0,0.1,0,0.2,0,0.3c0,0.1-0.1,0.3,0,0.5c0.1,0.3,0.1,0.7,0,1.1c0,0.4,0,0.7,0,1.1c0,0,0,0.1,0,0.1
	c0,0.1-0.1,0.2-0.1,0.3c0,0.1,0,0.1,0,0.2c0,0.1-0.1,0.2-0.1,0.2c0,0.1,0,0.2,0,0.3c0,0.2,0,0.3,0,0.4c0,0.7-0.2,1.2-0.5,1.7
	c-0.1,0.2-0.2,0.4-0.2,0.5c0,0.1,0,0.1-0.1,0.2c0,0,0,0,0,0c-0.4,0.2-0.5,0.6-0.5,0.9c0,0.1,0,0.2-0.1,0.3c-0.1,0.2-0.1,0.3-0.2,0.4
	c-0.2,0.2-0.3,0.4-0.2,0.6c0,0-0.1,0.1-0.1,0.2c-0.1,0.1-0.1,0.2-0.1,0.4c-0.3,0.4-0.4,0.8-0.6,1.2c-0.1,0.3-0.2,0.5-0.3,0.8
	c-0.1,0.1-0.2,0.2-0.3,0.4c-0.2,0.2-0.3,0.5-0.3,0.8c0,0.1,0,0.2,0.1,0.3l0,0c0,0.1-0.1,0.2-0.1,0.3c-0.1,0.3-0.2,0.5-0.4,0.7
	c-0.1-0.2-0.2-0.4-0.3-0.6c0-0.1-0.1-0.2-0.1-0.3c0-0.1-0.1-0.3-0.2-0.4c-0.1-0.1-0.1-0.2-0.2-0.3c0,0,0-0.1,0-0.1
	c0-0.2,0-0.4-0.1-0.6c-0.1-0.4-0.3-0.7-0.5-0.9c-0.1-0.2-0.2-0.4-0.3-0.6c-0.1-0.2-0.2-0.5-0.3-0.7c-0.1-0.2-0.2-0.3-0.2-0.6
	c0-0.3-0.1-0.6-0.3-0.9c-0.1-0.2-0.2-0.4-0.3-0.6c0-0.1-0.1-0.2-0.1-0.3c-0.1-0.2-0.1-0.3-0.2-0.5c0-0.1,0-0.1,0-0.2
	c0-0.1,0-0.2-0.1-0.3c-0.1-0.1-0.1-0.4-0.2-0.6c0-0.3-0.1-0.6-0.3-0.9c0,0,0,0,0-0.2c0,0,0-0.1,0-0.1C12.8,33.9,12.8,33.6,12.7,33.4
	z M21.8,49.4C21.9,49.4,21.9,49.4,21.8,49.4c0,0.6,0.2,1.2,0.4,1.9c0.1,0.2,0,0.4,0,0.6c0,0,0,0.1,0,0.1c0,0.3,0.1,0.6,0.3,0.8
	c0,0,0.1,0.1,0.1,0.1c0,0.2,0,0.3,0.1,0.4c0,0,0,0.1,0,0.1c0,0.2,0.1,0.3,0.2,0.4l0,0l0.1,0.7c0,0.1,0,0.2,0,0.3
	c-0.2-0.5-0.5-0.8-0.8-1.2c0-0.1-0.1-0.1-0.1-0.2C22,53.4,22,53.2,21.9,53c0-0.1-0.1-0.2-0.1-0.4c0-0.1-0.1-0.2-0.3-0.2
	c0-0.3-0.2-0.7-0.6-0.8c0,0-0.1-0.1-0.1-0.1c-0.1-0.3-0.2-0.5-0.4-0.6c0-0.1-0.1-0.1-0.1-0.2c-0.1-0.3-0.2-0.5-0.3-0.7
	c-0.1-0.1-0.1-0.2-0.1-0.3c0,0,0-0.1,0-0.1l0-0.1c0,0,0,0,0,0c0,0,0,0,0,0c0.2-0.1,0.3-0.1,0.5-0.2c0.3-0.2,0.6-0.5,0.8-0.7
	c0,0,0.1,0,0.1-0.1c0.1,0,0.2-0.1,0.3-0.1c0.1,0.2,0.2,0.3,0.1,0.5C21.7,49.1,21.8,49.3,21.8,49.4z M24.5,26.6c0-0.2,0-0.5,0-0.7
	c0-0.5,0.1-0.9,0.2-1.3c0-0.1,0.2-0.2,0.5-0.2c0,0,0.1,0,0.1,0c0.1,0,0.2,0,0.2,0.1c0,0,0.1,0,0.1,0c0.1,0,0.1,0.1,0.3,0.1
	c0.3,0,0.6,0,0.8,0c0,0,0,0-0.1,0c-0.2,0-0.3,0.1-0.3,0.2c-0.2,0.3-0.3,0.6-0.5,1c-0.6,0.3-0.8,0.9-1.1,1.4c0,0,0,0.1,0,0.1
	c-0.1,0.1-0.2,0.1-0.2,0.2c0-0.1,0-0.1,0-0.2C24.5,27.2,24.5,26.9,24.5,26.6z M32.7,10.3c0,0.1,0,0.3,0.1,0.4c0,0.1,0,0.2,0,0.3
	c0,0.2,0.1,0.4,0.1,0.6c-0.1,0.5-0.1,1.2,0.2,1.9c0,0,0,0.1,0,0.1c0,0.1,0,0.2,0,0.3c0,0.1,0.1,0.2,0.1,0.3c0,0.1,0.1,0.2,0.1,0.3
	c0,0.3,0.1,0.5,0.1,0.8c0,0.1,0,0.3,0,0.4c0,0.1,0,0.1,0,0.2c0,0.1,0.1,0.2,0.1,0.3c0.1,0.2,0.1,0.4,0.2,0.7c0,0.1,0,0.1-0.1,0.1
	c-0.2,0.1-0.5,0.3-0.6,0.7c-0.3,0.1-0.5,0.4-0.6,0.5c0,0.1-0.1,0.1-0.1,0.2c-0.3,0.3-0.6,0.6-0.9,1c-0.2,0.2-0.3,0.4-0.5,0.5
	c-0.2,0.2-0.3,0.3-0.4,0.3c-0.5,0.2-0.7,0.6-0.8,0.9l0,0c-0.2,0-0.3,0-0.5,0c-0.1,0-0.2,0-0.2,0c-0.1,0-0.2,0-0.3,0c0,0,0,0,0,0
	c-0.2-0.2-0.4-0.1-0.5,0c0,0,0,0-0.2,0c-0.1,0-0.3-0.1-0.5-0.1l0,0c0,0-0.1-0.1-0.1-0.1c-0.1-0.1-0.3-0.1-0.4,0h-0.1
	c-0.2,0-0.5,0-0.7,0c-0.1,0-0.2,0-0.2,0c-0.1,0-0.1,0-0.2,0h-0.1c-0.2,0-0.3,0-0.4,0c0-0.2,0.1-0.4,0.2-0.7c0-0.1,0.1-0.1,0.1-0.2
	c0-0.1,0.1-0.2,0.1-0.3c0-0.1,0.1-0.2,0.1-0.3c0,0,0-0.1,0-0.1c0,0,0,0,0,0l0,0c0,0,0-0.1,0-0.1c0-0.1,0.1-0.2,0.1-0.3
	c0-0.1,0.1-0.3,0.1-0.4c0-0.2,0.1-0.3,0.1-0.4c0.2-0.2,0.3-0.6,0.3-0.8c0-0.1,0-0.2,0.1-0.3c0,0,0-0.1,0-0.1c0-0.1,0-0.2,0.1-0.2
	c0.3-0.4,0.6-0.9,0.6-1.4c0,0,0.1,0,0.1-0.1c0.1,0,0.1-0.1,0.2-0.1c0,0,0,0,0,0c0.1,0,0.2-0.1,0.2-0.3c0.1-0.2,0.2-0.4,0.2-0.5
	c0-0.1,0.1-0.1,0.1-0.2c0,0,0-0.1,0-0.1c0,0,0,0,0-0.1c0,0,0.1-0.1,0.1-0.1c0.1-0.1,0.2-0.2,0.2-0.3c0.1-0.5,0.5-0.9,0.8-1.2
	c0.2-0.2,0.4-0.4,0.6-0.6c0.2-0.1,0.3-0.3,0.5-0.4c0.1-0.1,0.2-0.3,0.3-0.4c0,0,0-0.1,0.1-0.1c0.1-0.2,0.3-0.3,0.6-0.4
	c0.1,0,0.2-0.1,0.3-0.1c0,0,0,0,0,0l0.8-0.4c0,0,0,0.1,0,0.1C32.6,9.8,32.7,10.1,32.7,10.3L32.7,10.3z M35.2,21.3
	c0,0,0.1,0.1,0.1,0.1c0,0.2,0.1,0.3,0.2,0.5c-0.2-0.1-0.4-0.1-0.6-0.2c-0.2,0-0.3-0.1-0.5-0.1c-0.2,0-0.3,0-0.5,0c0,0,0,0,0,0
	c0.2-0.1,0.5-0.4,0.7-0.7c0.1-0.2,0.2-0.3,0.3-0.3c0,0,0,0,0.1,0c0,0,0.1,0.1,0.1,0.1C35,21,35.1,21.2,35.2,21.3z M37,8.8
	c0,0,0-0.1,0-0.1c0.1-0.2,0.2-0.5,0-0.8l0,0c0,0,0.1,0,0.1,0c0.2,0,0.4-0.1,0.5-0.1c0.2,0,0.4,0,0.7,0c0.2,0,0.4,0,0.6,0
	c0.1,0,0.3,0,0.4,0c0.1,0,0.2,0,0.3,0c0.1,0,0.3,0,0.4,0c0.1,0,0.2,0,0.3,0l0.1,0c0.1,0,0.3,0,0.5,0c0.1,0.1,0.4,0.1,0.5,0.1
	c0,0,0.1,0,0.1,0c0.1,0,0.1,0,0.2,0c0.2,0,0.5,0.1,0.7,0.1l0,0c0.1,0,0.4,0.1,0.6,0c0.3,0.1,0.5,0.1,0.7,0c0,0,0,0,0.1,0
	c0.2,0.2,0.5,0.2,0.7,0.2c0.1,0,0.1,0,0.1,0c0.2,0,0.4,0,0.6,0.1c0,0,0.1,0,0.1,0c0.3,0.3,0.7,0.3,0.9,0.2c0.1,0,0.2,0,0.2,0
	c0.1,0.1,0.2,0.1,0.2,0.2c0,0,0,0,0.1,0c0.1,0,0.1,0,0.2,0.1c-0.3,0.1-0.7,0.2-1,0.5c-0.1,0-0.2,0-0.3,0c-0.5,0.3-1,0.5-1.5,0.8
	c-0.1,0.1-0.3,0.2-0.4,0.3c-0.1,0.1-0.2,0.2-0.3,0.2c-0.1,0-0.2,0.1-0.4,0.1c-0.1,0-0.3,0-0.4,0.1c-0.2,0-0.3,0.1-0.4,0.2
	C42,11,42,11,41.9,11c-0.1,0.1-0.2,0.1-0.4,0.2c-0.1,0-0.1,0.1-0.2,0.1c0,0-0.1,0-0.1,0c-0.3,0.1-0.7,0.3-0.9,0.8c0,0-0.1,0-0.1,0.1
	c-0.4,0-0.6,0.2-0.7,0.4l0,0c-0.1,0-0.1,0.1-0.2,0.2c0,0.1-0.1,0.1-0.1,0.2c-0.1,0-0.2,0-0.3,0c-0.1,0-0.2,0.1-0.3,0.2
	c0,0-0.1,0-0.1,0.1c-0.1,0.1-0.3,0.2-0.4,0.3c-0.1,0.1-0.1,0.1-0.2,0.2l-0.1,0c-0.1,0-0.1,0.1-0.1,0.1c-0.1,0.1-0.2,0.1-0.4,0.2
	l0-0.4c0-0.1-0.1-0.3-0.2-0.3c0,0,0,0,0,0c0,0,0-0.1-0.1-0.1c-0.1-0.7-0.2-1.4-0.3-2.1c0-0.1,0-0.2,0-0.3c0-0.1,0-0.1,0-0.2
	c0-0.1,0-0.1,0-0.2c0-0.2,0-0.4,0-0.6c0-0.1,0-0.2,0-0.2c0-0.2,0-0.2,0-0.3C37,9.1,37,8.9,37,8.8z M60.2,9.6
	c0.1,0.2,0.4,0.3,0.5,0.3c0,0,0.1,0,0.1,0c0.2,0.1,0.4,0.2,0.6,0.2c0.2,0.1,0.5,0.2,0.7,0.3c0.2,0.1,0.3,0,0.4,0
	c0,0,0.1,0.1,0.1,0.1c0.1,0.1,0.3,0.2,0.5,0.3c0.2,0.1,0.4,0.2,0.5,0.2l0.1,0c0.1,0,0.3,0.1,0.4,0.1c0.2,0.1,0.4,0.1,0.6,0.2
	c0.8,0.4,1.4,0.6,2.1,0.7c0.1,0,0.3,0.1,0.4,0.2c0.1,0.1,0.2,0.1,0.3,0.2c0.2,0.2,0.5,0.3,0.8,0.4c0,0,0.1,0,0.1,0.1
	c0.2,0.1,0.4,0.2,0.7,0.2c0,0,0.1,0.1,0.2,0.1c0.1,0.1,0.3,0.2,0.4,0.3c0.1,0,0.2,0.1,0.3,0.1c0.2,0.1,0.5,0.3,0.9,0.3
	c0,0.1,0.2,0.2,0.3,0.3c0,0,0.1,0,0.1,0c0,0,0,0,0,0c0.2,0.1,0.5,0.3,0.7,0.4c0.2,0.1,0.3,0.2,0.5,0.3c0.3,0.1,0.5,0.3,0.8,0.4
	c0.2,0.1,0.5,0.3,0.7,0.4c0.3,0.2,0.6,0.3,0.9,0.5c0.1,0,0.1,0.1,0.2,0.1c0.1,0.1,0.3,0.2,0.4,0.2c0.1,0,0.2,0.2,0.4,0.3
	c0.1,0.1,0.2,0.2,0.4,0.4c0.3,0.2,0.5,0.4,0.8,0.6c0.3,0.2,0.6,0.4,0.8,0.6c0.2,0.1,0.3,0.3,0.5,0.5c0.1,0.1,0.2,0.2,0.3,0.3
	c0.1,0.1,0.2,0.1,0.2,0.2c0,0,0.1,0.1,0.1,0.1c0.1,0.1,0.1,0.1,0.2,0.2c0.1,0.1,0.2,0.1,0.2,0.2c-0.1,0.1-0.3,0.1-0.4,0.2
	c-0.2,0.1-0.5,0.2-0.7,0.3c-0.3,0.2-0.6,0.4-1,0.6c-0.1,0.1-0.3,0.2-0.4,0.2l0,0c-0.1,0.1-0.2,0.1-0.3,0.2c-0.3,0.1-0.6,0.3-0.9,0.5
	c-0.4,0.2-0.7,0.5-1.1,0.5c-0.3,0-0.6,0.3-0.8,0.5c-0.1,0-0.1,0.1-0.2,0.1c-0.2,0.2-0.3,0.2-0.3,0.2s-0.1,0-0.2-0.2
	c-0.1-0.1-0.2-0.2-0.3-0.3c-0.1-0.1-0.1-0.1-0.2-0.2c-0.1-0.1-0.1-0.2-0.2-0.3c0-0.1-0.1-0.2-0.2-0.2c-0.1-0.1-0.1-0.1-0.2-0.2
	c0,0,0-0.1,0-0.1c0,0,0-0.1-0.1-0.1c-0.1-0.1-0.1-0.1-0.2-0.2l0,0c0.1-0.3-0.1-0.5-0.2-0.6c0,0,0,0-0.1,0c-0.1-0.1-0.1-0.1-0.2-0.2
	c-0.1-0.1-0.2-0.2-0.3-0.3c0-0.2,0-0.6-0.5-0.9c-0.3-0.2-0.6-0.5-0.9-0.9c-0.1-0.1-0.2-0.2-0.3-0.2l0,0c0,0,0,0-0.1,0l0,0
	c-0.1-0.2-0.1-0.4-0.3-0.5c0-0.1,0-0.2-0.1-0.3c-0.1-0.1-0.2-0.2-0.4-0.2c0-0.1,0-0.2-0.1-0.2c0-0.1-0.1-0.1-0.1-0.1
	c0-0.1,0-0.1-0.1-0.2c-0.1-0.1-0.2-0.2-0.3-0.2c-0.1,0-0.1,0-0.2,0c-0.1,0-0.2,0-0.3,0c0,0-0.1-0.1-0.2-0.2
	c-0.1-0.1-0.1-0.2-0.2-0.3c-0.1-0.1-0.1-0.2-0.2-0.3c-0.1-0.2-0.3-0.4-0.7-0.6c0,0-0.1-0.1-0.1-0.2c-0.1-0.1-0.1-0.2-0.2-0.3
	c0,0,0,0,0-0.1c-0.1-0.1-0.2-0.3-0.5-0.4c0-0.1-0.1-0.1-0.2-0.2l0,0c-0.1-0.1-0.2-0.1-0.2-0.2c-0.1-0.1-0.2-0.1-0.2-0.2
	c-0.1-0.2-0.3-0.4-0.7-0.5C64.2,13.2,64,13,64,13c0,0,0,0,0-0.1c0-0.1-0.1-0.2-0.2-0.3c-0.1-0.1-0.2-0.1-0.3-0.2
	c-0.1,0-0.1-0.1-0.2-0.1c-0.1-0.4-0.4-0.5-0.6-0.5c0-0.1-0.1-0.2-0.2-0.2c-0.5-0.2-0.8-0.4-1.1-0.7c-0.1-0.2-0.5-0.7-1.3-0.6
	c0,0-0.2,0-0.2-0.2c0-0.2-0.2-0.3-0.4-0.3c0,0-0.1,0-0.2-0.1c0.1,0,0.3,0,0.4,0C59.8,9.7,60,9.7,60.2,9.6
	C60.1,9.7,60.2,9.6,60.2,9.6z M81.9,23L81.9,23c0.1,0,0.2-0.1,0.3-0.1c0,0,0,0,0,0c0.1,0,0.2,0,0.2,0c0,0.1,0.1,0.2,0.2,0.3
	c0.1,0.2,0.3,0.4,0.5,0.5c0,0,0.1,0,0.1,0.1c0,0,0,0,0,0c0,0.2,0.1,0.5,0.4,0.6c0.1,0,0.1,0.1,0.2,0.2c0,0.1,0.1,0.1,0.1,0.2
	c0.1,0.2,0.2,0.4,0.4,0.5c0.1,0.2,0.3,0.3,0.4,0.5c0.3,0.5,0.5,0.9,0.7,1.2c0.1,0.1,0.2,0.2,0.2,0.3c0,0.1,0,0.1,0.1,0.2
	c0,0.1,0.1,0.1,0.1,0.2c0.1,0.1,0.1,0.2,0.2,0.4c0,0.1,0.1,0.2,0.1,0.3c0.2,0.3,0.3,0.7,0.4,1c0.1,0.2,0.1,0.5,0.5,0.7
	c0,0,0,0.1,0,0.1l0,0c0,0.2,0.1,0.3,0.1,0.5c0.1,0.3,0.1,0.5,0.2,0.8c0.1,0.3,0.3,0.5,0.4,0.6c0.1,0.1,0.2,0.2,0.1,0.6
	c0,0,0,0,0,0.1l-1.6-0.8c-0.1-0.1-0.1-0.2-0.3-0.2c-0.1-0.1-0.2-0.1-0.4-0.1c-0.2,0-0.3-0.1-0.4-0.2c-0.3-0.2-0.7-0.4-1-0.5
	c-0.2-0.1-0.3-0.1-0.5-0.2c-0.1,0-0.2-0.1-0.3-0.1C83,30.3,82.5,30,82,30c0,0,0,0-0.1,0c-0.1,0-0.1-0.1-0.2-0.1
	c-0.2-0.1-0.3-0.1-0.5-0.2c-0.2-0.1-0.4-0.1-0.6-0.2c-0.1,0-0.1-0.1-0.2-0.1c-0.1-0.1-0.2-0.2-0.3-0.2c-0.1,0-0.2,0-0.3,0
	c-0.3,0-0.5-0.1-0.7-0.2c-0.1-0.1-0.3-0.1-0.5-0.1c-0.1,0.1-0.3,0-0.5,0c-0.1,0-0.2-0.1-0.3-0.1c-0.2,0-0.4-0.1-0.6-0.1
	c0,0,0,0-0.1,0c-0.1-0.3-0.4-0.7-0.7-0.9l-0.6-1.3c0,0,0-0.1-0.1-0.1c0.2-0.1,0.4-0.2,0.5-0.3c0,0,0.1-0.1,0.1-0.1l0.1,0
	c0.3-0.1,0.6-0.3,0.8-0.6c0,0,0,0,0.1,0c0.1,0,0.1,0,0.2-0.1c0.1,0,0.2-0.1,0.3-0.1c0.3-0.1,0.6-0.2,0.8-0.3
	c0.3-0.1,0.5-0.3,0.7-0.5l0,0c0.4-0.3,0.8-0.5,1.3-0.7l0,0c0.2-0.1,0.4-0.2,0.6-0.4c0.1,0,0.2,0,0.3,0C81.7,23.2,81.8,23.1,81.9,23
	L81.9,23z M97.9,17.9c0.2,0,0.5,0.1,0.8-0.1c0.5,0.2,1,0.1,1.3,0c0,0,0,0,0.1,0c0.1,0,0.2,0.1,0.3,0.1c0.1,0,0.3,0,0.4,0
	c0.3,0,0.6,0,0.9,0.1c0.4,0,0.8,0.3,1.2,0.5l0,0c0.5,0.3,1.1,0.7,1.6,1.1c0,0,0,0.1,0,0.1c0,0.1,0,0.1,0.1,0.2
	c0.2,0.3,0.3,0.7,0.5,1.1c0,0.1,0.1,0.2,0.1,0.3c0.1,0.1,0.1,0.2,0.2,0.3c0,0.1,0.1,0.2,0.1,0.3c0.2,0.5,0.3,1,0.2,1.4
	c-0.1,0.4,0,0.8,0.1,1c0,0.1,0.1,0.3,0.1,0.4c0,0.3,0,0.6-0.1,0.9l0,0.1c0,0.2-0.1,0.4-0.1,0.6c-0.1,0.3-0.2,0.7-0.2,1
	c0,0,0,0.1,0,0.1c0,0,0,0.1,0,0.1c0,0,0,0.1,0,0.1l0,0.1c0,0.4-0.1,0.9-0.1,1.3c0,0,0,0.1-0.1,0.1c-0.1,0.1-0.2,0.2-0.2,0.4
	c-0.1,0.2-0.1,0.5-0.2,0.7c0,0.2-0.1,0.5-0.1,0.7c-0.1,0.4-0.2,0.8-0.4,1.2l0,0.1c-0.1,0.2-0.2,0.5-0.3,0.7
	c-0.1,0.2-0.2,0.5-0.3,0.7c0,0.1-0.1,0.2-0.1,0.4c0,0.1-0.1,0.2-0.1,0.3c-0.1,0.3-0.3,0.7-0.4,1c-0.1,0.3-0.3,0.6-0.4,0.9
	c-0.1,0.2-0.2,0.5-0.2,0.7c0,0.1,0,0.2,0,0.3c-0.7,0.8-1.1,1.7-1.3,2.5c-0.1,0.1-0.1,0.1-0.2,0.2c-0.2,0.2-0.3,0.3-0.4,0.5
	c-0.1,0.2-0.2,0.4-0.2,0.6c-0.1,0.2-0.1,0.4-0.2,0.5c-0.1,0.2-0.2,0.4-0.4,0.6c-0.1,0.1-0.1,0.2-0.2,0.3c-0.1,0.1-0.1,0.3-0.1,0.4
	c0,0,0,0,0,0c0,0-0.1,0.1-0.1,0.1c-0.1,0.1-0.1,0.1-0.2,0.2c-0.1,0.1-0.1,0.2-0.1,0.3c-0.3,0.3-0.5,0.8-0.5,0.8
	c-0.1,0.1-0.1,0.3-0.2,0.4l-0.2,0.3c-0.1,0.2-0.2,0.4-0.3,0.6c0-0.1-0.1-0.1-0.1-0.2c0-0.1-0.1-0.2-0.1-0.3c0-0.1,0-0.2,0-0.2
	c0.1-0.1,0.1-0.2,0.1-0.3c0-0.1,0-0.2-0.1-0.2c0-0.1,0-0.2,0-0.3c0-0.1-0.1-0.2-0.2-0.2c0-0.3-0.2-0.4-0.3-0.5c0,0,0,0,0,0
	c0,0,0-0.1,0-0.1l0,0c0.1-0.1,0.1-0.2,0.1-0.3c0-0.1-0.1-0.2-0.2-0.3L97,43c0,0-0.1,0-0.1-0.1c-0.1,0-0.1,0-0.1-0.2
	c0-0.2-0.1-0.4-0.2-0.6c0,0,0-0.1-0.1-0.1v0c0,0,0,0,0-0.1c0-0.1,0-0.4-0.2-0.5c-0.1-0.1-0.1-0.1-0.2-0.4c0-0.1,0-0.1-0.1-0.2
	c-0.1-0.2-0.2-0.4-0.3-0.5c-0.1-0.1-0.1-0.2-0.2-0.3c0-0.1,0-0.1-0.1-0.2c0-0.1,0-0.1-0.1-0.2c0-0.1-0.1-0.2-0.1-0.2
	c0-0.1-0.1-0.2-0.1-0.3c-0.1-0.7-0.3-1.3-0.6-1.9c0-0.1-0.1-0.2-0.1-0.3c-0.3-0.6-0.6-1.4-0.6-1.8c0-0.2-0.1-0.5-0.4-0.8
	c-0.1-0.1-0.1-0.3-0.2-0.4c0,0,0-0.1,0-0.1c-0.1-0.2-0.1-0.4-0.2-0.5c-0.1-0.2-0.1-0.5-0.2-0.7c-0.1-0.2-0.1-0.3-0.2-0.4
	c-0.1-0.1-0.1-0.2-0.2-0.3c0-0.1-0.1-0.2-0.1-0.3c-0.1-0.2-0.1-0.3-0.1-0.4c0.1-0.4-0.3-0.7-0.3-0.7c-0.2-0.1-0.2-0.3-0.2-0.7
	c0-0.1-0.1-0.3-0.2-0.4c-0.2-0.2-0.4-0.4-0.4-0.8c0-0.2-0.2-0.5-0.3-0.6c-0.1,0-0.1-0.1-0.2-0.1l-0.2-0.6c0-0.1,0-0.2-0.1-0.3
	L90,26.8l0,0c0,0,0-0.1-0.1-0.1l-0.8-1.6c0,0,0,0,0,0c0-0.2-0.1-0.3-0.3-0.3c-0.2-0.1-0.3-0.2-0.5-0.6c0-0.1-0.1-0.2-0.1-0.3
	c-0.1-0.2-0.2-0.4-0.4-0.6c-0.1-0.1-0.2-0.2-0.2-0.3c-0.1-0.1-0.1-0.2-0.2-0.3c-0.1-0.1-0.1-0.3-0.2-0.4c-0.1-0.2-0.3-0.4-0.4-0.5
	c-0.1-0.1-0.1-0.1-0.2-0.2c-0.1-0.1-0.1-0.2-0.2-0.2c-0.1-0.1-0.1-0.2-0.2-0.2c0,0,0.1-0.1,0.1-0.1c0.3-0.1,0.5-0.3,0.8-0.4
	c0.1,0,0.2-0.1,0.4-0.1c0.2-0.1,0.4-0.1,0.6-0.2c0.2-0.1,0.4-0.2,0.6-0.2c0.2,0,0.3-0.1,0.5-0.2c0.1-0.1,0.2-0.1,0.3-0.2
	c0.1,0,0.1-0.1,0.2-0.1c0.1,0,0.2,0,0.3,0c0.1,0,0.1,0,0.2,0c0,0,0.1,0,0.1,0c0.1,0,0.3,0,0.5-0.1c0.2-0.1,0.5-0.2,0.7-0.3
	c0.2-0.1,0.3-0.2,0.5-0.2c0,0,0.1,0,0.2,0c0,0,0.1,0,0.1,0l0.4-0.1c0.4-0.1,0.7-0.1,1.1-0.2c0.2,0,0.4-0.1,0.5-0.2
	c0.2-0.2,0.5-0.1,0.9-0.1c0.3,0,0.6,0,0.9-0.1c0.1,0,0.2,0,0.2,0c0.2,0,0.3-0.1,0.5-0.1c0.2,0,0.4-0.1,0.6-0.1
	C97.7,17.9,97.8,17.9,97.9,17.9L97.9,17.9z M20.8,43.2c0,0.4,0,0.7,0,1c0,0,0,0.1-0.1,0.1c-0.6,0.3-1,0.7-1.4,1c0,0,0,0,0,0
	c0,0,0-0.1,0-0.1c0-0.1,0-0.1,0.1-0.2c0.1-0.2,0.1-0.3,0.2-0.5c0-0.1,0-0.2,0.1-0.3c0.1-0.3,0.1-0.5,0.3-0.7
	c0.2-0.1,0.2-0.3,0.2-0.5l0,0c0-0.2,0.1-0.3,0.1-0.5c0.1-0.3,0.1-0.6,0.2-0.8c0-0.1,0.1-0.1,0.1-0.2l0-0.1c0,0,0,0,0-0.1
	c0,0.2,0,0.4,0.1,0.7c0,0,0,0,0,0.1c0,0.1,0,0.2,0,0.3C20.8,42.8,20.8,43,20.8,43.2z M15.9,60.3c0-0.1,0-0.3,0-0.4
	c0-0.5,0.1-0.9,0.2-1.3c0-0.2,0-0.3,0.1-0.5c0.1-0.4,0.1-0.8,0.2-1.2c0.1-0.2,0-0.4,0-0.6c0-0.1,0-0.1,0-0.1c0,0,0-0.1,0-0.1
	c0-0.1,0.1-0.3,0.1-0.3c0.3-0.4,0.2-0.8,0.2-1.1c0,0,0-0.1,0-0.1c0.1-0.1,0.1-0.2,0.1-0.3c0-0.1,0-0.2,0-0.3c0-0.2,0-0.4,0.1-0.5
	c0-0.1,0-0.2,0.1-0.3c0.1-0.3,0.1-0.5,0.2-0.6c0.1-0.1,0.2-0.3,0.1-0.4c0,0,0,0,0,0.1c0,0,0,0.1,0,0.2c0,0.2,0.1,0.4,0.3,0.6
	c0,0,0.1,0.1,0.1,0.2c0.1,0.2,0.2,0.4,0.6,0.6c0.1,0.1,0.1,0.3,0.2,0.4l0,0c0,0.1,0.1,0.2,0.1,0.3c0,0.3,0.2,0.6,0.5,0.8
	c0,0.1,0,0.2,0.1,0.4c0.5,0.6,1,1.2,1.4,1.7c0,0.1,0.1,0.1,0.1,0.1c0,0.2,0.1,0.4,0.3,0.6c0,0.1,0,0.2,0,0.3l0,0
	c0.1,0.2,0.2,0.4,0.4,0.5c0.2,0.1,0.2,0.2,0.4,0.5c0,0.1,0.1,0.1,0.1,0.2c0.1,0.2,0.2,0.3,0.3,0.5c0.1,0.1,0.2,0.2,0.2,0.3
	c0,0,0.1,0.1,0.1,0.2c0,0.1,0,0.1,0.1,0.2c0,0,0,0.1,0,0.1c0,0.1,0.1,0.2,0.2,0.4c0.2,0.2,0.4,0.5,0.6,0.7c0.1,0.1,0.2,0.2,0.3,0.3
	c0.1,0.1,0.2,0.2,0.2,0.3c0.1,0.1,0.1,0.2,0.2,0.2c0.2,0.2,0.3,0.4,0.5,0.6c0,0,0,0,0,0c0,0.1,0,0.3,0.1,0.4
	c0.3,0.4,0.5,0.6,0.7,0.8c0.5,0.4,0.8,1,1.1,1.6c0.1,0.3,0.3,0.5,0.5,0.6c0.1,0.1,0.2,0.1,0.2,0.2c0.1,0.1,0.1,0.1,0.2,0.2l0.1,0.1
	c0,0.1,0.1,0.1,0.1,0.2c0.1,0.1,0.2,0.2,0.3,0.4c0,0,0,0.1-0.1,0.2c0,0.1-0.1,0.1-0.1,0.2c0,0.1-0.1,0.2-0.2,0.3
	c-0.1,0.1-0.1,0.1-0.2,0.2l-0.1,0.1c-0.2,0.3-0.4,0.7-0.6,1c-0.2,0.3-0.4,0.7-0.6,1.1c0,0.1,0,0.1,0,0.2c-0.1,0.1-0.3,0.2-0.4,0.3
	C26.1,71.8,26,72,26,72.1c0,0.1,0,0.1-0.1,0.2c0,0.1-0.1,0.2-0.1,0.3c0,0-0.1,0.1-0.1,0.1c0,0-0.1,0.1-0.1,0.1
	c-0.1,0.1-0.1,0.2-0.1,0.3c0,0,0,0,0,0c0,0.1-0.1,0.2-0.1,0.3c-0.1,0.2-0.1,0.4-0.2,0.5c-0.1,0.1-0.1,0.2-0.2,0.3
	c-0.1,0.1-0.2,0.2-0.2,0.4c-0.2,0.5-0.5,1-0.7,1.5c0,0.1-0.1,0.2-0.1,0.3c0,0-0.1,0.1-0.1,0.1c0,0,0,0.1-0.1,0.1
	c-0.1,0.1-0.1,0.2-0.2,0.4c-0.1,0.2-0.2,0.4-0.3,0.7c-0.2,0.5-0.4,0.9-0.6,1.3c-0.1,0.2-0.2,0.4-0.2,0.5c-0.1,0.3-0.1,0.4-0.3,0.5
	c-0.1,0.1-0.2,0.2-0.2,0.4c0,0.3-0.1,0.5-0.3,0.7c0,0.1-0.1,0.2-0.1,0.3c-0.2,0.4-0.3,0.7-0.3,1.1c0,0.2-0.1,0.3-0.2,0.5
	c-0.1,0.1-0.2,0.3-0.2,0.5c0,0.1-0.1,0.2-0.1,0.3c0,0.1,0,0.2-0.1,0.3c0,0,0,0.1,0,0.1c-0.1-0.2-0.2-0.4-0.2-0.6
	c-0.1-0.3-0.2-0.6-0.4-0.8c-0.1-0.2-0.3-0.4-0.4-0.6c-0.1-0.1-0.1-0.1-0.2-0.2l0,0c0-0.4-0.2-0.8-0.3-1C19.1,81,19,80.9,19,80.8
	l-0.1-0.2c-0.1-0.3-0.2-0.6-0.4-0.9c0-0.1-0.1-0.2-0.2-0.2c-0.1-0.6-0.3-1.2-0.5-1.7c-0.1-0.2-0.2-0.5-0.3-0.7c0-0.1,0-0.2,0-0.3
	c0-0.1,0-0.1,0-0.2c0-0.1,0-0.1,0-0.2c0-0.1,0-0.2-0.1-0.4c-0.1-0.2-0.1-0.5-0.2-0.7c0-0.1-0.1-0.2-0.1-0.3c0-0.2-0.1-0.3-0.1-0.3
	c0,0,0-0.1-0.1-0.2c0-0.1,0-0.2-0.1-0.4c-0.1-0.2-0.1-0.5-0.2-0.7c0-0.1,0-0.2-0.1-0.3c0-0.2-0.1-0.4-0.1-0.7c0-0.1,0-0.2,0-0.3
	c0-0.2-0.1-0.3-0.3-0.3l0,0c0,0,0-0.1,0-0.1c0.1-0.1,0.2-0.2,0.2-0.3l0,0c0-0.1,0.1-0.2,0-0.4c-0.1-0.2-0.1-0.4-0.1-0.6
	c0-0.1,0-0.3,0-0.4c0-0.2-0.1-0.5-0.2-0.7c0-0.1-0.1-0.3-0.1-0.4c0-0.1,0-0.2,0-0.3c0.2-0.3,0.1-0.6,0.1-0.7c0,0,0,0,0-0.1
	c0-0.1,0-0.2,0-0.3c0-0.1,0-0.3-0.1-0.4c0-0.1-0.1-0.2-0.1-0.2c0.1-0.1,0.1-0.2,0.1-0.3c-0.2-1.8-0.1-3.7,0.1-6.1c0,0,0,0,0,0
	C15.9,60.4,15.9,60.4,15.9,60.3L15.9,60.3z M24.4,34.3c0.1-0.2,0.1-0.3,0.1-0.5c0,0,0,0,0,0c0,0,0,0,0,0c0.1-0.1,0.3-0.2,0.3-0.4
	c0.1-0.3,0.3-0.6,0.7-0.9c0.1-0.1,0.1-0.2,0.1-0.3c0.1-0.1,0.2-0.2,0.2-0.3c0.1-0.1,0.2-0.3,0.2-0.4c0-0.1,0.1-0.2,0.1-0.3
	c0,0,0.1-0.1,0.1-0.2c0.1-0.3,0.3-0.7,0.5-1c0.2-0.2,0.3-0.5,0.4-0.8c0-0.1,0.1-0.2,0.2-0.2c0.1-0.1,0.1-0.1,0.2-0.2
	c0.1-0.1,0.2-0.3,0.3-0.4c0.2-0.3,0.4-0.6,0.7-0.8c0.2-0.2,0.3-0.5,0.4-0.7c0-0.1,0.1-0.2,0.1-0.2c0-0.1,0.1-0.2,0.2-0.2
	c0.1-0.1,0.1-0.1,0.2-0.2c0.1-0.1,0.2-0.3,0.4-0.5c0,0,0.1-0.1,0.1-0.1c0.1,0,0.3-0.1,0.4-0.2l0.1,0c0.2-0.1,0.4-0.2,0.6-0.2
	c0,0,0,0,0.1,0c0.1,0.1,0.3,0.1,0.3,0.1c0,0,0.1,0,0.1,0c0.4,0.1,0.8,0.2,1.2,0.2c0.4,0,0.7,0,1.1,0.2c0.2,0.1,0.5,0.1,0.7,0.2
	c0.3,0.1,0.6,0.1,0.9,0.3c0.3,0.2,0.6,0.2,0.9,0.2c0.1,0,0.1,0,0.2,0c0.1,0,0.2,0,0.2-0.1l0,0c0,0.1,0.1,0.2,0.2,0.3
	c0.1,0.1,0.1,0.3,0.2,0.5c0.1,0.3,0.2,0.5,0.4,0.8c0.2,0.2,0.3,0.4,0.3,0.6c0,0.1,0.1,0.2,0.1,0.2c0,0.1,0.1,0.1,0.1,0.2
	c0,0.1,0,0.2,0,0.3l0.8,1.8c-0.1,0.1-0.2,0.1-0.4,0.2c-0.1,0-0.2,0.1-0.3,0.1c-0.5,0.2-0.9,0.5-1.2,0.7c-0.1,0.1-0.1,0.1-0.2,0.2
	c-0.2,0.2-0.4,0.4-0.7,0.5c-0.1,0-0.2,0.1-0.3,0.3c-0.2,0.4-0.6,0.7-1,1c-0.2,0.1-0.4,0.3-0.5,0.5c-0.1,0.2-0.3,0.3-0.4,0.4
	c-0.3,0.1-0.5,0.4-0.7,0.7c-0.1,0.1-0.1,0.2-0.2,0.2c-0.3,0.4-0.5,0.7-0.8,1.1c-0.1,0.1-0.2,0.3-0.3,0.4c-0.2,0.3-0.5,0.5-0.8,0.6
	c-0.1,0.1-0.2,0.1-0.3,0.2c-0.1,0.1-0.2,0.1-0.3,0.2c-0.1,0.1-0.2,0.1-0.3,0.2c-0.2,0.1-0.3,0.2-0.4,0.2C30,38.9,29.8,39,29.5,39
	c-0.3,0.1-0.6,0.3-0.8,0.5c-0.1,0.1-0.2,0.1-0.2,0.2c-0.1,0-0.1,0.1-0.2,0.1c-0.2,0.1-0.2,0.1-0.3,0.1c-0.2,0-0.3,0.1-0.3,0.1
	c-0.1,0.1-0.2,0.1-0.4,0.2c-0.3,0.2-0.6,0.3-0.9,0.5c-0.2,0.1-0.3,0.2-0.5,0.3c-0.1,0.1-0.2,0.1-0.3,0.2c-0.2,0.1-0.4,0.2-0.5,0.4
	c-0.1,0.1-0.3,0.2-0.4,0.3c0,0,0,0-0.1,0c-0.1-0.1-0.1-0.3-0.1-0.5c0-0.2,0-0.3-0.1-0.5c0,0,0-0.1,0-0.1c0-0.2,0-0.3,0-0.5
	c0-0.2,0-0.3,0-0.5c0-0.1-0.1-0.3-0.2-0.5c0-0.1,0-0.2,0-0.2c0-0.3,0-0.6,0-0.9l0-0.1c0-0.3-0.1-0.5,0-0.7c0.2-0.4,0.1-0.8-0.3-1
	c0-0.2,0.1-0.3,0.1-0.5c0-0.2,0-0.3,0-0.5c0-0.2,0-0.4,0-0.6c0-0.1,0.1-0.2,0.1-0.3C24.3,34.5,24.4,34.4,24.4,34.3z M93.2,53
	c0-0.1,0-0.1,0-0.2c0-0.1,0-0.1,0-0.1c0-0.1,0-0.2,0-0.3c0-0.4,0.1-0.7,0.1-1c0-0.2,0.1-0.3,0.1-0.5l0.3,0.3
	c0.2,0.2,0.4,0.3,0.7,0.5c-0.1,0.1-0.1,0.2-0.2,0.3c0,0-0.1,0.1-0.1,0.1l-0.3,0.4c-0.2,0.4-0.5,0.7-0.7,1.1
	C93.2,53.4,93.2,53.2,93.2,53z M87.4,75.3c-0.1,0-0.1,0.1-0.2,0.2c-0.1,0.2-0.3,0.4-0.4,0.6c-0.2,0.3-0.4,0.5-0.6,0.8
	c-0.1,0.1-0.2,0.2-0.3,0.3c-0.1,0.1-0.2,0.2-0.2,0.2c-0.1,0.1-0.1,0.1-0.2,0.2c0,0.1-0.1,0.1-0.1,0.2c-0.1,0.1-0.1,0.1-0.2,0.2
	c-0.1,0.1-0.2,0.2-0.3,0.3c-0.3,0.3-0.6,0.6-1,0.8c-0.2,0.1-0.4,0.3-0.6,0.4c-0.1,0.1-0.2,0.2-0.3,0.3c-0.1,0.1-0.2,0.2-0.3,0.3
	c-0.3,0.2-0.5,0.3-0.8,0.4c-0.3,0-0.5,0.2-0.6,0.3C81.1,80.9,81,81,81,81c-0.1,0.1-0.2,0.2-0.2,0.4c-0.1,0-0.2,0.1-0.3,0.2
	c-0.1,0.1-0.2,0.1-0.3,0.2c0,0-0.1,0-0.1,0c0,0,0,0,0-0.1c0.1-0.1,0.1-0.2,0.2-0.3c0.1-0.2,0.2-0.4,0.3-0.6c0.4-0.5,0.7-1.1,1.1-1.6
	c0.1-0.1,0.2-0.3,0.3-0.4c0.1-0.2,0.3-0.4,0.4-0.6c0.1-0.1,0.1-0.2,0.1-0.3c0,0,0-0.1,0-0.1c0.1-0.2,0.2-0.3,0.3-0.5
	c0.1-0.1,0.2-0.2,0.2-0.3c0.1-0.1,0.2-0.2,0.3-0.4c0.1-0.1,0.1-0.2,0.2-0.3c0.1-0.2,0.1-0.3,0.2-0.5c0.2-0.3,0.4-0.6,0.6-0.9
	c0.2-0.2,0.3-0.5,0.5-0.7c0.1-0.2,0.2-0.3,0.2-0.5c0,0,0-0.1,0-0.1c0-0.1,0-0.1,0.1-0.2c0-0.1,0-0.1,0.1-0.2l0,0
	c0.2-0.3,0.3-0.6,0.5-0.9c0.1-0.1,0.2-0.2,0.3-0.4c0.1-0.1,0.2-0.3,0.3-0.4c0.1-0.2,0.2-0.3,0.2-0.5l0,0c0.1-0.1,0.2-0.2,0.2-0.2
	c0-0.1,0.1-0.2,0-0.4c0.3-0.4,0.5-0.7,0.6-1l0.2-0.3c0.1-0.2,0.2-0.4,0.3-0.6c0.1-0.1,0.1-0.2,0.2-0.3c0.1-0.2,0.2-0.3,0.2-0.5
	c0,0,0,0,0,0c0.1-0.1,0.2-0.2,0.2-0.4c0-0.3,0.2-0.6,0.4-0.9c0.1-0.2,0.2-0.3,0.3-0.5c0.1-0.1,0.2-0.2,0.4-0.4
	c0.1,0.3,0.1,0.6,0.3,0.9c0.2,0.3,0.2,0.7,0.3,1.1c0,0.2,0,0.3,0.1,0.5c0,0.2,0.1,0.4,0.2,0.5c0.1,0.1,0.1,0.3,0.2,0.5
	c0,0.1,0,0.2,0.1,0.3c0.1,0.4-0.1,0.7-0.3,1.1c-0.1,0.2-0.2,0.3-0.3,0.5c-0.1,0.1-0.1,0.2-0.2,0.3c-0.1,0.2-0.3,0.4-0.3,0.6
	c0,0.1-0.1,0.2-0.2,0.3c-0.1,0.1-0.2,0.2-0.3,0.3c-0.1,0.2-0.2,0.4-0.3,0.6c-0.1,0.1-0.1,0.3-0.2,0.4c-0.1,0.1-0.1,0.2-0.2,0.4
	c-0.1,0.1-0.1,0.2-0.2,0.2c-0.1,0.1-0.2,0.3-0.3,0.4C87.7,74.8,87.5,75.1,87.4,75.3z M77,77.9c-0.1,0.1-0.1,0.1-0.2,0.3
	c-0.1,0.3-0.2,0.5-0.6,0.7c-0.3,0.3-0.4,0.6-0.5,0.9c-0.1,0.1-0.1,0.3-0.2,0.4c-0.1,0.1-0.2,0.2-0.3,0.4c-0.1,0.1-0.2,0.3-0.3,0.4
	c-0.1,0.2-0.2,0.3-0.3,0.5c-0.1,0.2-0.2,0.3-0.3,0.4c-0.1,0.1-0.2,0.2-0.3,0.3c-0.1,0.1-0.1,0.2-0.2,0.2c-0.2,0.2-0.3,0.4-0.4,0.6
	l0,0c0,0,0,0-0.1-0.1c0-0.3-0.3-0.7-0.5-0.9l-0.3-0.3c0-0.1,0-0.3-0.1-0.3l-0.1,0c0,0-0.1,0-0.1-0.1c-0.1-0.2-0.2-0.4-0.4-0.5
	c0-0.2-0.1-0.4-0.2-0.6c-0.1-0.2-0.2-0.3-0.3-0.4c0,0-0.1-0.1-0.1-0.1c0,0,0,0,0,0c0-0.1-0.1-0.2-0.1-0.3c-0.1-0.3-0.3-0.7-0.5-1
	c-0.1-0.1-0.1-0.2-0.2-0.3c-0.2-0.3-0.3-0.6-0.7-0.8c-0.1-0.1-0.2-0.3-0.3-0.5c-0.1-0.1-0.1-0.3-0.2-0.4c0-0.1-0.1-0.2-0.2-0.3
	c0-0.1,0-0.1,0-0.2c0-0.1-0.1-0.1-0.1-0.2c-0.1-0.1-0.1-0.3-0.2-0.4c-0.1-0.2-0.2-0.3-0.3-0.5c-0.1-0.2-0.2-0.3-0.3-0.5
	c0-0.1-0.1-0.2-0.1-0.3c-0.1-0.1-0.1-0.2-0.2-0.4c-0.1-0.2-0.3-0.4-0.4-0.6c-0.1-0.1-0.2-0.3-0.3-0.4c-0.1-0.1-0.1-0.2-0.2-0.3
	c0-0.1-0.1-0.1-0.1-0.2c-0.1-0.1-0.2-0.2-0.3-0.2c0-0.1,0-0.1-0.1-0.1c0-0.1,0-0.1,0-0.2c0-0.1,0-0.2-0.1-0.2
	c-0.1-0.1-0.1-0.2-0.2-0.3c0,0-0.1-0.1-0.1-0.1c0-0.1-0.1-0.2-0.1-0.3c-0.1-0.2-0.1-0.3-0.2-0.5c-0.1-0.2-0.2-0.2-0.3-0.3
	c0-0.2-0.1-0.4-0.3-0.6l0,0c0,0,0-0.1,0-0.1c0-0.2-0.1-0.4-0.3-0.4c0-0.1,0-0.2,0-0.3c0-0.1-0.1-0.2-0.2-0.2c-0.2-0.1-0.6-0.8-0.6-1
	c0-0.1,0-0.2-0.1-0.3C64.2,67,64.1,67,64,67c-0.1-0.3-0.3-0.6-0.5-0.7c0,0-0.1-0.2-0.1-0.3c0-0.1,0-0.2-0.1-0.3c0,0,0,0,0,0
	c0-0.3-0.2-0.5-0.3-0.5c0,0,0,0,0-0.1c0-0.1-0.1-0.3-0.3-0.5c0,0-0.1-0.1-0.1-0.2c-0.1-0.1-0.3-0.3-0.4-0.4c0,0,0-0.1-0.1-0.2
	c0-0.1-0.1-0.2-0.1-0.3c-0.1-0.2-0.3-0.5-0.4-0.7c-0.1-0.2-0.3-0.4-0.4-0.7c-0.1-0.2-0.2-0.3-0.3-0.5c-0.1-0.2-0.2-0.3-0.3-0.5
	c-0.1-0.1-0.2-0.2-0.3-0.2l0,0c0,0-0.1,0-0.1-0.1c0,0,0,0,0,0c0,0-0.1-0.1-0.1-0.1c-0.1-0.2-0.3-0.4-0.4-0.6
	c-0.1-0.1-0.1-0.3-0.1-0.5c0-0.1,0-0.2-0.1-0.3c0-0.1-0.1-0.2-0.2-0.2c-0.1-0.3-0.3-0.7-0.7-1c-0.1-0.1-0.1-0.3-0.2-0.5
	c-0.1-0.2-0.1-0.3-0.2-0.5c-0.1-0.3-0.3-0.5-0.4-0.7c-0.1-0.1-0.1-0.2-0.2-0.3c0-0.2-0.1-0.5-0.4-0.7c0,0,0-0.1-0.1-0.1
	c-0.1-0.1-0.2-0.3-0.4-0.5c0-0.2-0.1-0.4-0.3-0.6c0-0.3-0.2-0.6-0.4-0.8c-0.1-0.1-0.2-0.2-0.2-0.3c0-0.1-0.2-0.3-0.3-0.3l-0.4-1
	c0-0.1-0.1-0.2-0.2-0.2c0,0-0.1-0.1,0-0.3c0-0.2-0.1-0.3-0.2-0.4c0,0-0.1,0-0.1,0c0-0.1,0-0.2,0-0.3c-0.1-0.1-0.2-0.2-0.2-0.3
	c-0.1-0.1-0.2-0.2-0.2-0.2c-0.1-0.1-0.1-0.3-0.2-0.4c-0.1-0.3-0.3-0.6-0.5-0.8c0,0-0.1-0.1-0.1-0.2c0-0.1-0.1-0.3-0.2-0.4l0,0
	c0-0.1-0.1-0.3-0.3-0.5c0,0-0.1,0-0.1-0.1c0-0.2-0.1-0.3-0.2-0.4c0,0,0,0,0,0c-0.1-0.2-0.3-0.5-0.4-0.7c-0.1-0.1-0.1-0.2-0.2-0.4
	c-0.1-0.1-0.1-0.2-0.2-0.3c-0.1-0.2-0.2-0.3-0.3-0.5c0,0,0,0,0,0c0,0,0.1,0,0.1,0c0.3-0.1,0.5-0.4,0.5-0.5c0.1-0.1,0.2-0.2,0.3-0.3
	c0.1-0.1,0.2-0.1,0.3-0.2c0,0,0,0,0,0c0.1-0.1,0.2-0.1,0.3-0.3c0.1-0.3,0.2-0.5,0.5-0.5c0.3-0.1,0.4-0.4,0.5-0.6c0,0,0,0,0-0.1
	c0.1,0,0.2-0.1,0.2-0.1c0.1,0,0.3,0,0.4-0.1c0,0,0.1-0.1,0.1-0.1c0.1-0.1,0.2-0.2,0.3-0.4c0-0.1,0.1-0.2,0.1-0.3
	c0.1-0.1,0.2-0.1,0.3-0.1c0.4-0.1,0.6-0.3,0.7-0.5c0,0,0.1-0.1,0.1-0.1c0.3-0.3,0.6-0.7,1.1-0.9c0.2,0,0.3-0.2,0.4-0.2
	c0.1-0.2,0.3-0.3,0.5-0.5l0,0c0.1,0,0.1,0,0.2-0.1l0.2-0.1l0,0c0.1,0,0.3-0.1,0.3-0.3c0-0.1,0.1-0.3,0.3-0.4
	c0.1-0.1,0.3-0.2,0.4-0.4c0,0,0.1-0.1,0.2-0.1c0.1-0.1,0.2-0.1,0.3-0.2c0.1-0.1,0.1-0.2,0.2-0.2c0,0,0-0.1,0.1-0.1
	c0.1-0.1,0.3-0.2,0.4-0.3c0.1-0.1,0.3-0.2,0.4-0.3c0.1-0.1,0.2-0.2,0.3-0.3c0.1-0.1,0.1-0.1,0.2-0.2c0.1-0.1,0.3-0.2,0.4-0.3
	c0.1-0.1,0.2-0.2,0.4-0.3c0,0,0,0,0,0c0.1-0.1,0.3-0.2,0.3-0.4c0-0.1,0-0.1,0.2-0.2c0.1,0,0.2-0.1,0.3-0.1c0,0,0,0,0.1,0
	c0.2,0.2,0.5,0.3,0.8,0.4c0.2,0.1,0.3,0.2,0.5,0.2c0,0,0.1,0.1,0.1,0.1c0.1,0.1,0.1,0.1,0.2,0.2c0.7,0.5,1.4,0.9,2.1,1.5
	c0.1,0.1,0.2,0.2,0.4,0.2c0.2,0.1,0.4,0.2,0.5,0.4c0,0,0.1,0.1,0.1,0.1c0,0,0.1,0.1,0.1,0.1c0.1,0.1,0.2,0.1,0.3,0.1
	c0.2,0.2,0.4,0.3,0.6,0.4c0.1,0.1,0.2,0.2,0.3,0.3c0,0,0,0.1,0,0.1c0.1,0.1,0.2,0.2,0.3,0.2c0.1,0.2,0.3,0.4,0.7,0.5
	c0.1,0,0.1,0.1,0.2,0.2c0.1,0.1,0.2,0.3,0.5,0.4c0.1,0.1,0.2,0.2,0.4,0.4c0.1,0.1,0.2,0.3,0.3,0.4c0.1,0.1,0.3,0.2,0.4,0.3
	c0.1,0.1,0.2,0.2,0.3,0.2c0.2,0.2,0.3,0.3,0.5,0.5c0.1,0.1,0.1,0.2,0.2,0.3l0,0c0,0,0.1,0.1,0.2,0.2c0.1,0.1,0.2,0.2,0.4,0.3
	c0.2,0.2,0.5,0.4,0.7,0.6c0.1,0.1,0.2,0.2,0.3,0.4c0.1,0.1,0.2,0.2,0.3,0.3c0.3,0.3,0.6,0.6,0.9,0.9c0.1,0.1,0.2,0.1,0.3,0.2
	c0,0.1,0,0.2,0.1,0.3c0.1,0.1,0.3,0.2,0.4,0.4c0.4,0.3,0.8,0.7,1.2,1.1c0,0,0.1,0.1,0.1,0.1c0,0.1,0.1,0.1,0.1,0.2c0,0,0,0,0,0
	c0,0.1,0.1,0.2,0.2,0.3c0.6,0.5,1.1,1.1,1.5,1.7c0.2,0.2,0.3,0.4,0.5,0.5c0,0,0.1,0.1,0.1,0.1c0.1,0.2,0.3,0.4,0.4,0.5
	c0,0,0.1,0.1,0.1,0.1c0.1,0.2,0.3,0.4,0.4,0.5c0.1,0.2,0.3,0.4,0.4,0.5c0.3,0.4,0.7,0.8,1,1.2c0.2,0.2,0.4,0.4,0.6,0.6
	c0.2,0.2,0.3,0.3,0.5,0.5l0,0c0,0.1,0.1,0.2,0.1,0.3c0.2,0.2,0.4,0.4,0.5,0.6c0.1,0.1,0.2,0.2,0.3,0.3l0,0c0.1,0.1,0.1,0.1,0.1,0.2
	c0.2,0.4,0.5,0.9,1,1.3c0.1,0,0.1,0.2,0.2,0.3c0.1,0.1,0.1,0.2,0.2,0.3l0.2,0.3c0.3,0.5,0.7,1,1.1,1.5c0.1,0.2,0.2,0.6,0,0.8
	c-0.3,0.4-0.5,0.9-0.6,1.5c0,0.1-0.1,0.3-0.2,0.4c0,0.1-0.1,0.2-0.1,0.3c0,0.1-0.1,0.2-0.1,0.3c0,0,0,0.1,0,0.1
	c-0.1,0.1-0.1,0.2-0.2,0.3c-0.1,0.3-0.3,0.6-0.4,0.9c-0.1,0.4-0.3,0.7-0.5,1c-0.1,0.1-0.2,0.3-0.2,0.4l0,0c0,0.1-0.1,0.2-0.1,0.3
	c0,0,0,0.1,0,0.1c-0.3,0.2-0.4,0.4-0.4,0.6c0,0.1,0,0.1-0.1,0.2c-0.2,0.2-0.3,0.4-0.4,0.6c-0.1,0.1-0.1,0.2-0.2,0.3
	c-0.1,0.1-0.2,0.3-0.3,0.4c-0.2,0.2-0.4,0.4-0.5,0.7c-0.1,0.2-0.2,0.4-0.3,0.6c-0.1,0.2-0.2,0.5-0.4,0.7c-0.2,0.2-0.3,0.5-0.5,0.7
	c-0.3,0.5-0.6,1-1,1.4c0,0-0.1,0.1-0.1,0.1c-0.3,0.3-0.7,0.8-0.8,1.4c0,0-0.1,0.1-0.1,0.1c-0.1,0.1-0.1,0.1-0.2,0.2
	c-0.1,0.1-0.1,0.3-0.1,0.4c0,0,0,0,0,0c-0.1,0.1-0.2,0.2-0.3,0.4c-0.4,0.5-0.8,1-1.1,1.7c-0.2,0.3-0.4,0.7-0.7,1
	c-0.1,0.2-0.3,0.3-0.4,0.5C77,77.7,77,77.8,77,77.9L77,77.9z M54.1,33.4c0.1,0,0.1,0,0.2,0c0.1,0,0.2,0,0.3,0c0,0,0.1,0,0.1,0
	c0.2,0,0.4,0,0.6-0.1c0.5-0.2,1-0.5,1.5-0.4c0.2,0,0.6,0,0.9-0.2c0.2-0.1,0.3-0.1,0.6,0.1c0.1,0,0.1,0.1,0.2,0.1
	c0.4,0.2,0.7,0.3,1.1,0.5c0,0,0.1,0,0.1,0.1c-0.1,0-0.2,0.1-0.3,0.1c-0.4,0.1-0.6,0.3-0.7,0.5c-0.1,0.1-0.2,0.2-0.3,0.3
	c-0.1,0.1-0.2,0.2-0.3,0.3c-0.3,0.3-0.6,0.6-1,0.9c-0.2,0.2-0.5,0.4-0.8,0.5c-0.4,0.2-0.5,0.4-0.7,0.7c-0.2,0.4-0.5,0.6-0.9,0.7
	c-0.2,0-0.3,0.2-0.3,0.3l0,0c-0.4,0-0.6,0.4-0.7,0.5c0,0.1-0.1,0.1-0.1,0.1c-0.2,0.2-0.4,0.4-0.5,0.6c-0.3,0.3-0.5,0.6-0.9,0.8
	c-0.2,0.1-0.3,0.3-0.4,0.4c0,0.1-0.1,0.1-0.1,0.1c-0.2,0.1-0.3,0.3-0.5,0.4c-0.2,0.2-0.4,0.3-0.5,0.5c-0.1,0.1-0.1,0.1-0.1,0.2
	c-0.1,0-0.1,0-0.2,0C50.2,41.5,50,41.7,50,42c0,0.1,0,0.1-0.2,0.2c-0.1,0.1-0.2,0.1-0.3,0.2c0,0-0.1-0.1-0.1-0.2
	c-0.1-0.2-0.1-0.3-0.3-0.5c-0.1-0.1-0.1-0.2-0.2-0.4c-0.1-0.4-0.4-0.8-0.6-1.2c-0.1-0.2-0.2-0.3-0.3-0.5c-0.1-0.1-0.1-0.3-0.2-0.4
	c-0.1-0.1-0.1-0.2-0.2-0.4c-0.1-0.1-0.1-0.2-0.2-0.4c0.1-0.1,0.1-0.2,0.1-0.3c0-0.2-0.2-0.3-0.3-0.3c0-0.1,0-0.1-0.1-0.3
	c0-0.2-0.1-0.3-0.3-0.3c0,0,0,0,0,0c-0.1-0.2-0.3-0.5-0.5-0.7c0,0-0.1-0.1-0.1-0.2c0-0.1-0.1-0.2-0.1-0.3c0-0.1-0.1-0.2-0.2-0.3
	c0.2-0.1,0.3-0.1,0.5-0.2c0.1,0,0.2-0.1,0.3-0.1c0,0,0,0,0.1,0c0.1,0,0.3-0.1,0.4-0.2c0-0.1,0.1-0.1,0.3-0.1c0.1,0,0.2,0,0.2,0
	c0.1,0,0.2,0,0.3,0c0.3,0,0.6-0.1,0.9-0.3c0,0,0.1,0,0.1,0c0.1,0,0.2,0,0.3,0c0.2,0,0.3-0.1,0.5-0.1c0.1,0,0.2-0.1,0.4-0.1
	c0,0,0.1,0,0.1,0c0.1,0,0.3,0,0.4-0.1c0.2-0.1,0.4-0.1,0.6-0.1c0.3,0,0.6,0,0.9-0.2c0,0,0.1,0,0.1,0c0.1,0,0.2,0,0.3-0.1
	c0.1,0,0.1-0.1,0.1-0.2C53,33.4,53.8,33.2,54.1,33.4z M25.1,46.6c-0.1-0.3,0-0.5,0.3-0.6c0.2-0.1,0.3-0.2,0.4-0.3
	c0-0.1,0.1-0.1,0.1-0.1c0.1-0.1,0.1-0.1,0.2-0.2c0.3-0.2,0.5-0.4,0.8-0.6c0.2-0.1,0.4-0.2,0.6-0.3c0.2-0.1,0.5-0.2,0.7-0.3
	c0.2-0.1,0.4-0.3,0.6-0.5c0,0,0.1-0.1,0.1-0.1l0.4-0.2c-0.1,0.2-0.2,0.4-0.2,0.6c0,0.1-0.1,0.2-0.1,0.3c-0.1,0.2-0.1,0.5-0.1,0.6
	c-0.1,0.1-0.1,0.2-0.1,0.4c0,0.1,0,0.2-0.1,0.4c-0.1,0.2-0.1,0.4-0.1,0.6c0,0.2-0.1,0.3-0.1,0.5c0,0.1-0.1,0.3-0.1,0.4
	c-0.1,0.4-0.2,0.8-0.2,1.1c0,0.2-0.1,0.4-0.1,0.6l0,0.1c0,0.1,0,0.3,0,0.4c0,0.2,0,0.5-0.1,0.7c0,0.1,0,0.3-0.1,0.4
	c-0.1,0.3-0.1,0.6-0.1,1c0,0.2,0,0.3-0.1,0.5c0,0.2-0.1,0.4-0.1,0.6c0,0.2,0,0.4,0,0.6c0,0.2,0,0.4,0,0.6c0,0.1,0,0.2,0.1,0.2
	c0,0,0,0.1,0,0.2c0,0.1,0,0.3,0,0.4c0,0.5-0.1,0.9,0,1.4c0,0,0,0.1,0,0.1c-0.1-0.2-0.2-0.4-0.3-0.6c0,0,0-0.1-0.1-0.1
	c0-0.2-0.1-0.4-0.1-0.6l0-0.2c0-0.1-0.1-0.2-0.1-0.2c0-0.2,0.1-0.4-0.1-0.6c0,0-0.1-0.1-0.1-0.1c0-0.3-0.1-0.7-0.4-1.1
	c0,0,0-0.1,0-0.1c0-0.1,0-0.2,0-0.3c0-0.1-0.1-0.2-0.1-0.3c0,0,0-0.1,0-0.1c0,0,0-0.1,0-0.1c0.1-0.5-0.1-0.9-0.2-1.3
	c0-0.1-0.1-0.2-0.1-0.3v0c0-0.1,0-0.1,0-0.2c0-0.1-0.1-0.2-0.1-0.3c0,0,0,0,0,0c0.1-0.3,0.1-0.7,0-0.9c0-0.1-0.1-0.1-0.1-0.2
	c0-0.4-0.1-0.8-0.4-1.2l0,0C25.2,47,25.2,46.7,25.1,46.6L25.1,46.6z M23.5,86.9c0,0,0-0.1,0.1-0.1c0.1-0.1,0.1-0.2,0.2-0.4
	c0.2-0.2,0.3-0.5,0.3-0.7c0-0.1,0-0.2,0.1-0.2c0-0.1,0.1-0.1,0.1-0.2c0,0,0,0,0-0.1c0.2-0.1,0.3-0.3,0.3-0.5c0.1,0,0.1,0,0.1-0.1
	c0.1-0.1,0.1-0.2,0.1-0.3c0,0,0-0.1,0-0.1c0-0.1,0-0.2,0-0.2c0-0.1,0-0.2,0-0.3c0-0.2,0.1-0.4,0.1-0.6c0-0.1,0.1-0.2,0.2-0.4
	c0.2-0.2,0.3-0.5,0.3-0.8c0-0.1,0.1-0.2,0.2-0.3c0.1-0.2,0.2-0.3,0.3-0.6c0-0.2,0.1-0.4,0.3-0.7c0-0.1,0.1-0.1,0.1-0.2
	c0.1-0.1,0.1-0.2,0.1-0.3c0.1-0.2,0.1-0.2,0.1-0.3c0.2-0.2,0.3-0.4,0.3-0.7l0-0.1c0-0.2,0.1-0.3,0.2-0.4c0.4-0.2,0.5-0.7,0.5-0.8
	c0-0.2,0.2-0.4,0.3-0.7c0.1-0.2,0.2-0.4,0.3-0.6c0.1-0.2,0.2-0.4,0.4-0.7c0.1-0.2,0.1-0.3,0.2-0.5c0,0,0-0.1,0-0.1
	c0.1-0.1,0.1-0.2,0.2-0.3c0,0,0.1-0.1,0.1-0.1c0.1-0.1,0.2-0.3,0.2-0.4c0,0,0,0,0.1,0c0,0,0.1-0.1,0.2-0.2c0.1-0.1,0.2-0.3,0.3-0.5
	c0-0.1,0.1-0.1,0.1-0.2c0,0,0,0,0-0.1c0.1-0.1,0.1-0.2,0.2-0.3c0-0.1,0.1-0.2,0.1-0.4c0.1-0.2,0.1-0.4,0.2-0.5
	c0.1-0.1,0.1-0.2,0.2-0.4c0,0,0,0.1,0.1,0.1c0.1,0.3,0.2,0.6,0.3,0.8c0.1,0.4,0.3,0.8,0.5,1.2c0.1,0.3,0.2,0.5,0.4,0.7
	c0.1,0.1,0.1,0.2,0.2,0.3c0,0.1,0.1,0.2,0.1,0.3l0,0.1c0,0.1,0,0.2,0,0.3l0,0c0.2,0.4,0.3,0.8,0.6,1.3c0.1,0.2,0.2,0.3,0.3,0.4
	c0.1,0.1,0.2,0.3,0.2,0.3c0,0.3,0.2,0.5,0.3,0.6c0,0.1,0.1,0.1,0.1,0.2c0.1,0.2,0.2,0.4,0.3,0.6c0.1,0.1,0.2,0.2,0.2,0.2
	c0,0.1,0,0.2,0,0.3v0.2c0,0.1,0.1,0.3,0.2,0.3c0,0,0.1,0,0.1,0.1c0.1,0.2,0.1,0.3,0.2,0.5c0.1,0.2,0.2,0.3,0.4,0.5
	c0.1,0.2,0.2,0.3,0.3,0.5c0.2,0.2,0.3,0.5,0.4,0.8c0.1,0.1,0.1,0.2,0.2,0.4c0,0.1,0.1,0.1,0.1,0.2c0.1,0.1,0.1,0.2,0.2,0.2
	c0.1,0.2,0.3,0.4,0.4,0.7c0.1,0.1,0.2,0.2,0.2,0.3c0.1,0.1,0.1,0.1,0.2,0.2c0.1,0.1,0.2,0.3,0.3,0.4c0.1,0.2,0.2,0.4,0.4,0.6
	c0.2,0.2,0.3,0.4,0.5,0.6c0.2,0.2,0.4,0.5,0.6,0.7c0.3,0.5,0.8,1.1,1.4,1.6c0,0,0,0,0,0.1c0,0.1,0.1,0.3,0.2,0.4
	c0.5,0.6,1,1.2,1.6,1.8c0.1,0.1,0.2,0.2,0.3,0.3c0,0,0.1,0.1,0.1,0.1c0.3,0.3,0.6,0.6,1,0.9c0.1,0.1,0.2,0.2,0.3,0.3
	c0.2,0.2,0.5,0.5,0.7,0.7c0.2,0.1,0.3,0.3,0.4,0.5c0.1,0.2,0.2,0.3,0.4,0.5c0.1,0.1,0.1,0.1,0.2,0.2c0.1,0.1,0.2,0.2,0.3,0.3
	c0.3,0.3,0.7,0.6,1,0.9c0.1,0.1,0.3,0.2,0.4,0.4c0.1,0.1,0.1,0.1,0.2,0.1c0.2,0.2,0.4,0.4,0.6,0.5c0,0,0,0,0.1,0
	c-0.4,0.1-0.7,0.1-1.1,0.1c-0.2,0-0.4,0-0.5,0c-0.2,0-0.4,0-0.6,0c-0.1,0-0.2,0-0.3,0c-0.1,0-0.3,0-0.4,0c-0.1,0-0.2,0-0.3,0
	c-0.2,0-0.5,0-0.7,0c-0.3,0-0.6,0-0.9-0.1c-0.4-0.1-0.8-0.1-1.2,0c-0.2,0-0.4,0-0.5,0c-0.1,0-0.2,0-0.3,0c-0.1,0-0.1,0-0.2,0
	c-0.1,0-0.2,0-0.2,0c-0.2-0.2-0.5-0.1-0.6-0.1c0,0-0.1,0-0.1,0c-0.4-0.2-0.9-0.1-1.2-0.1c-0.5,0.1-0.9,0.1-1.2-0.2
	c-0.2-0.1-0.3-0.1-0.5-0.1c0,0-0.1,0-0.1,0c-0.1,0-0.3,0-0.4-0.1c-0.3,0-0.5-0.1-0.8-0.1c-0.2-0.1-0.4-0.1-0.7-0.2
	c-0.1-0.1-0.3-0.1-0.5-0.2c-0.2-0.1-0.4-0.1-0.6-0.1c-0.2,0-0.4,0-0.7-0.1c-0.2-0.1-0.4-0.1-0.6-0.1c-0.3-0.2-0.6-0.3-0.8-0.4
	c-0.2,0-0.3-0.1-0.4-0.2c-0.1,0-0.1-0.1-0.2-0.2c0,0-0.1-0.1-0.1-0.1c0,0-0.1-0.1-0.2-0.1c0,0-0.1,0-0.1,0c-0.1,0-0.1,0-0.2,0
	c-0.1,0-0.1,0-0.2-0.1c-0.2,0-0.3-0.1-0.5-0.2c-0.2-0.1-0.4-0.2-0.6-0.4c-0.2-0.1-0.3-0.2-0.5-0.3c-0.1-0.1-0.2-0.1-0.3-0.1
	c0,0-0.1,0-0.1-0.1c-0.1-0.1-0.2-0.1-0.3-0.2c-0.1-0.1-0.3-0.1-0.4-0.2c-0.1-0.1-0.2-0.1-0.3-0.1c-0.2-0.3-0.6-0.4-0.9-0.5
	c0,0,0,0,0,0l0,0c-0.1-0.2-0.3-0.5-0.7-0.6c0,0-0.1-0.1-0.2-0.2c-0.1-0.1-0.1-0.2-0.2-0.2c-0.1-0.1-0.2-0.1-0.2-0.2c0,0,0,0,0-0.1
	c-0.1-0.1-0.1-0.2-0.2-0.3c-0.1-0.1-0.2-0.3-0.4-0.4c-0.1-0.1-0.3-0.2-0.4-0.2l-1-1.2c0,0-0.1-0.1-0.1-0.1c0,0-0.1,0-0.1,0
	c-0.1-0.2-0.1-0.3,0.1-0.5C23.4,87.5,23.6,87.2,23.5,86.9z M30.4,51.5c0,0,0-0.1,0.1-0.2c0.1-0.2,0.2-0.5,0-0.9c0,0,0-0.1,0-0.1
	c0-0.1,0-0.2,0.1-0.3c0-0.1,0-0.2,0-0.3c0-0.1,0.1-0.1,0.1-0.2c0.1-0.1,0.1-0.4,0.1-0.6c-0.1-0.4,0-0.7,0.2-1.2l0-0.1
	c0.1-0.2,0.1-0.4,0.2-0.6c0-0.1,0-0.2,0.1-0.3c0-0.2,0.1-0.3,0.1-0.5c0.1-0.5,0.2-1,0.4-1.4c0,0,0-0.1,0.1-0.1
	c0.1-0.1,0.2-0.3,0.1-0.6c0.2-0.2,0.3-0.4,0.4-0.8c0-0.2,0.1-0.4,0.2-0.7c0.1-0.1,0.1-0.2,0.1-0.4c0-0.1,0-0.1,0.1-0.2
	c0-0.1,0.1-0.2,0.1-0.2c0.2-0.5,0.7-0.9,1.4-1.1c0.2-0.1,0.5-0.2,0.6-0.5c0.1-0.2,0.2-0.2,0.4-0.3c0.1,0,0.2-0.1,0.3-0.1
	c0.1-0.1,0.3-0.1,0.4-0.2c0.1,0,0.1,0,0.2,0c0.1,0,0.1,0,0.2,0c0.1,0,0.2-0.1,0.3-0.2l0,0c0.2,0,0.3-0.1,0.4-0.2
	c0,0,0.1-0.1,0.1-0.1c0,0,0,0,0,0c0.1,0,0.1,0,0.2-0.1c0.1,0,0.1-0.1,0.2-0.1c0.2-0.1,0.4-0.1,0.6-0.2c0.2-0.1,0.4-0.2,0.6-0.3
	c0.1-0.1,0.3-0.2,0.4-0.2c0,0,0.1,0,0.2-0.1c0.1,0,0.3-0.1,0.4-0.2c0.2-0.2,0.5-0.2,0.9-0.3c0.3-0.1,0.5-0.1,0.8-0.3
	c0.2-0.1,0.3-0.2,0.4-0.3c0,0,0.1-0.1,0.1-0.1c0,0,0,0,0.1,0.1c0.1,0.1,0.1,0.2,0.2,0.2c0,0.1,0,0.3,0.1,0.4
	c0.1,0.3,0.3,0.5,0.5,0.7c0.1,0.2,0.3,0.4,0.4,0.6l0,0.1c0.2,0.3,0.3,0.5,0.4,0.7c0.1,0.2,0.2,0.5,0.3,0.8v0c0,0.1,0,0.2,0.1,0.3
	c0.1,0.3,0.3,0.5,0.5,0.8c0.1,0.1,0.1,0.1,0.2,0.2c0,0.1,0.1,0.2,0.2,0.3c0.1,0.1,0.1,0.1,0.2,0.4l0,0.1c0,0.2,0.2,0.4,0.3,0.5
	c0,0,0.1,0.1,0.1,0.1c0.1,0.2,0.2,0.4,0.3,0.6c0.2,0.4,0.5,0.8,0.7,1.2c0,0,0,0,0,0c0,0-0.1,0.1-0.1,0.1c-0.1,0.2-0.3,0.3-0.5,0.5
	c-0.2,0.2-0.4,0.4-0.5,0.6c0,0-0.1,0.1-0.1,0.1c-0.2,0.2-0.3,0.4-0.6,0.5c-0.2,0.1-0.2,0.2-0.3,0.2l-0.4,0.5
	c-0.3,0.4-0.6,0.7-0.9,1.1c-0.1,0.1-0.1,0.2-0.2,0.2c0,0-0.1,0.1-0.1,0.1c-0.1,0.1-0.2,0.2-0.3,0.2c-0.4,0.4-0.9,0.8-1.1,1.5
	c0,0,0,0.1-0.1,0.1c-0.4,0.3-0.9,0.7-1.2,1.3l0,0c-0.1,0-0.2,0.1-0.3,0.2c-0.3,0.3-0.5,0.5-0.7,0.8c-0.2,0.2-0.3,0.4-0.5,0.6
	c-0.2,0.3-0.4,0.5-0.6,0.8c-0.1,0.1-0.1,0.2-0.2,0.3c0,0,0,0.1-0.1,0.1c-0.1,0-0.2,0.1-0.2,0.2c-0.1,0-0.2,0.1-0.2,0.2
	c-0.1,0.1-0.1,0.1-0.1,0.2c0,0-0.1,0.1-0.1,0.1C37,55.8,37,56.1,37,56.3l-1.2,1.2c-0.1,0.1-0.1,0.2-0.1,0.3c0,0,0,0.1,0,0.1
	c0,0-0.1,0.1-0.1,0.1c0,0,0,0,0,0c-0.1,0-0.1,0.1-0.2,0.2c-0.1,0.1-0.2,0.2-0.2,0.3c-0.1,0.1-0.1,0.2-0.2,0.2c0,0-0.1,0.1-0.1,0.1
	c0,0,0,0-0.1,0.1l0,0c-0.1,0-0.3,0.2-0.2,0.4c0,0,0,0-0.1,0.1c-0.1,0.1-0.2,0.1-0.2,0.2c-0.1,0.2-0.2,0.4-0.4,0.6
	c-0.2,0.3-0.4,0.6-0.6,0.9c-0.2,0.2-0.3,0.4-0.5,0.6c-0.1,0.1-0.2,0.2-0.3,0.4c-0.1,0.1-0.1,0.2-0.2,0.3c-0.1,0-0.1,0-0.1,0.1
	c-0.1,0.1-0.2,0.2-0.1,0.4c0,0.1,0,0.1-0.2,0.3c-0.1,0.1-0.2,0.3-0.2,0.5c0,0.1,0,0.2,0,0.2L31.2,64c0-0.1,0-0.2,0-0.3
	C31,63.4,31,63.1,31,62.8c0-0.1,0-0.2,0-0.3c0-0.2-0.1-0.3-0.1-0.5c-0.1-0.4-0.2-0.8-0.1-1.3c0-0.3,0-0.5-0.1-0.7
	c0-0.1-0.1-0.2-0.1-0.3c0-0.2-0.1-0.5-0.1-0.7c0-0.2,0-0.4-0.1-0.6c0-0.2-0.1-0.4-0.1-0.6c0-0.1,0-0.3-0.1-0.4c0,0,0-0.1,0-0.1
	c0-0.1,0-0.1,0-0.2c0-0.1,0-0.2,0-0.3c0,0,0,0,0,0c0.2-0.3,0.1-0.6,0-0.8c0-0.1,0-0.2,0-0.2c0-0.2,0-0.3,0-0.5c0-0.2,0-0.3,0-0.5
	c0-0.1,0-0.1,0-0.2c0-0.3,0.1-0.6,0-0.9c0-0.1,0-0.2,0-0.3c0-0.2,0-0.5,0-0.7c0-0.1,0-0.3,0-0.4C30.4,52.1,30.5,51.8,30.4,51.5z
	 M47.8,31.1c-0.2,0-0.3,0.1-0.4,0.2c-0.1,0-0.1,0.1-0.2,0.1c-0.1,0.1-0.2,0.1-0.3,0.2c-0.4,0.2-0.7,0.3-1.1,0.5
	c-0.3,0.1-0.6,0.2-0.9,0.2c-0.2,0-0.4,0.1-0.6,0.1c0,0,0,0,0,0L44,31.8c0.3-0.1,0.7-0.2,1-0.3c0.2-0.1,0.5-0.1,0.7-0.2
	c0.2,0,0.4-0.1,0.6-0.1c0.1,0,0.2,0,0.3-0.1c0.1,0,0.2,0,0.3-0.1c0.2,0,0.4-0.1,0.6-0.1c0.1,0,0.3,0,0.4,0
	C48,31,47.9,31.1,47.8,31.1z M45.6,28.8c-0.5,0.1-1,0.2-1.5,0.3c-0.2,0-0.4,0.1-0.5,0.1c-0.1,0-0.2,0.1-0.3,0.1
	c-0.1,0-0.1,0-0.2,0.1c0-0.1-0.1-0.1-0.2-0.2l0,0c-0.1-0.1-0.2-0.4-0.3-0.5c0-0.1,0-0.3-0.2-0.5c-0.1-0.2-0.2-0.4-0.3-0.6
	c0-0.1-0.1-0.2-0.1-0.3c0.1,0,0.1,0,0.2,0.1c0.2,0.2,0.5,0.2,0.8,0.2c0.1,0,0.1,0,0.2,0c0.2,0,0.4,0.1,0.6,0.1c0.1,0,0.2,0,0.3,0
	c0.2,0,0.3,0,0.4,0.1c0.3,0.4,0.7,0.3,0.9,0.3l0,0c0,0,0.1,0.1,0.1,0.1c0.2,0.1,0.4,0.3,0.7,0.2c0.1,0,0.3,0,0.5,0.1
	c0.1,0,0.1,0.1,0.2,0.1c0,0,0,0,0.1,0C46.4,28.7,46,28.7,45.6,28.8z M40.1,34c-0.2,0.1-0.4,0.2-0.6,0.3c-0.4,0.2-0.8,0.3-1.2,0.4
	c0,0-0.1,0-0.1,0l0,0c0.1,0,0.2-0.1,0.2-0.2c0.1-0.2,0.3-0.3,0.5-0.4c0.2-0.1,0.4-0.2,0.6-0.4c0.2-0.2,0.4-0.3,0.7-0.5l0,0
	c0.1,0.1,0.1,0.2,0.2,0.4C40.4,33.9,40.2,34,40.1,34z M81.9,34.1c0.1,0,0.1,0,0.2,0c0.1,0.1,0.1,0.1,0.2,0.1
	c0.3,0.1,0.6,0.2,0.8,0.3l0,0c0,0,0,0,0.1,0.1c0.1,0.1,0.2,0.1,0.3,0.1c0,0,0.1,0,0.1,0l0.2,0.2C83.9,35,84,35,84.1,35
	c0.1,0,0.1,0.1,0.2,0.1c0.1,0.1,0.3,0.2,0.4,0.3c0.2,0.2,0.5,0.3,0.7,0.5c0.1,0.1,0.2,0.1,0.3,0.1c0.2,0.1,0.3,0.3,0.5,0.4
	c0.5,0.4,0.9,0.7,1.3,1c0.1,0.1,0.2,0.1,0.3,0.2c0.1,0.1,0.2,0.1,0.3,0.2c0.1,0.1,0.1,0.1,0.2,0.2c0.2,0.2,0.3,0.3,0.4,0.5
	c0.1,0.2,0.3,0.4,0.5,0.5c0.1,0,0.1,0.1,0.2,0.1c0.1,0.1,0.1,0.2,0.1,0.2c0,0.2,0.1,0.4,0.1,0.6c0,0.1,0,0.1,0.1,0.2
	c0,0,0,0.1,0,0.1c0,0,0,0,0,0c0,0.1-0.1,0.2,0,0.3c0,0.1,0,0.2,0,0.3c0,0.3,0.1,0.4,0,0.5c-0.1,0.2,0,0.4,0.1,0.6
	c0.1,0.1,0.1,0.2,0.1,0.5c0,0.1,0,0.2,0,0.4c0,0.1,0,0.2,0,0.4c0,0,0,0,0,0c-0.2-0.1-0.3-0.1-0.5-0.2c-0.3-0.1-0.6-0.2-0.9-0.3
	c-0.2-0.1-0.3-0.2-0.5-0.3c-0.2-0.2-0.4-0.3-0.7-0.4c-0.1,0-0.1-0.1-0.2-0.2c-0.2-0.2-0.4-0.4-0.8-0.4c0,0,0,0,0,0
	c-0.1-0.1-0.2-0.2-0.4-0.3c-0.3-0.2-0.7-0.4-1-0.6c-0.1-0.1-0.2-0.1-0.4-0.2c-0.1,0-0.1-0.1-0.2-0.1c-0.1,0-0.2-0.1-0.3-0.1
	c-0.1-0.1-0.2-0.1-0.3-0.2c-0.3-0.2-0.5-0.3-0.7-0.5c0,0-0.1-0.2-0.1-0.2c0-0.1-0.1-0.2-0.1-0.3c-0.1-0.2-0.2-0.4-0.4-0.6l0,0
	c0,0,0,0-0.1,0c0-0.2-0.1-0.4-0.2-0.5l0,0c0-0.2-0.1-0.4-0.4-0.6c0,0,0,0-0.1,0c-0.2-0.2-0.3-0.4-0.4-0.7c0-0.1-0.1-0.3-0.1-0.4
	c0-0.1-0.1-0.2-0.2-0.3c-0.1-0.1-0.1-0.2-0.1-0.3c-0.1-0.4-0.3-0.6-0.5-0.7c-0.1,0-0.1-0.1-0.2-0.1c0-0.1-0.1-0.1-0.1-0.2
	c0-0.1-0.1-0.2-0.1-0.3c0-0.1-0.1-0.2-0.1-0.3c0,0,0,0,0.1,0c0.1,0,0.2,0.1,0.4,0.1c0.2,0,0.3,0.1,0.5,0.1c0.2,0.1,0.4,0.2,0.7,0.3
	c0.1,0,0.1,0,0.2,0.1C81.6,34,81.7,34.1,81.9,34.1z M89.9,48.6c0,0,0,0.1,0,0.1c0,0.1,0,0.3-0.1,0.4c0,0.1-0.1,0.2-0.1,0.3
	c0,0.1,0,0.3,0,0.4c0.1,0.3,0.1,0.5-0.1,0.9c-0.1,0.2-0.1,0.3-0.1,0.5c0,0.1,0,0.2-0.1,0.4c-0.1,0.4-0.2,0.8-0.1,1.2l0,0
	c0,0,0,0,0,0.1c0,0.1,0,0.1-0.1,0.2c0-0.1-0.1-0.2-0.1-0.3c0-0.3-0.1-0.4-0.2-0.4c-0.1,0-0.1-0.1-0.1-0.4c0-0.2-0.1-0.4-0.2-0.6
	c-0.1-0.2-0.2-0.4-0.3-0.6c0-0.1-0.1-0.2-0.1-0.3c0,0,0-0.1,0-0.1c0,0,0,0,0,0c0-0.1,0-0.2-0.1-0.3c0-0.1-0.1-0.1-0.2-0.1l-0.2-0.3
	c0-0.1,0.1-0.2,0-0.4c-0.1-0.1-0.1-0.3-0.2-0.4c-0.1-0.2-0.2-0.3-0.2-0.5c0-0.1-0.1-0.2-0.2-0.3c0,0-0.1-0.1-0.1-0.1c0,0,0,0,0,0
	c0.1-0.3,0-0.6-0.2-0.8c0,0-0.1-0.1-0.1-0.1c-0.1-0.1-0.1-0.2-0.2-0.3c0-0.1-0.1-0.1-0.1-0.2c-0.1-0.2-0.3-0.4-0.3-0.6
	c0,0,0-0.1,0-0.1c0,0,0-0.1,0-0.1c0,0,0.1,0,0.1,0c0.3,0.1,0.6,0.4,1,0.6c0.1,0.1,0.1,0.1,0.2,0.2c0,0,0.1,0.1,0.1,0.1
	c0.2,0.1,0.3,0.3,0.6,0.4c0.2,0.1,0.3,0.2,0.5,0.3c0,0,0.1,0.1,0.1,0.1c0.4,0.3,0.8,0.6,1.1,0.9C89.9,48.3,89.9,48.4,89.9,48.6z
	 M80.4,43c0.1,0.1,0.2,0.3,0.3,0.4c0.1,0.6,0.4,1,0.7,1.4c0.1,0.2,0.3,0.5,0.4,0.7c0.1,0.1,0.1,0.3,0.2,0.5c0.1,0.2,0.1,0.4,0.2,0.5
	c0.1,0.3,0.3,0.5,0.4,0.8c0,0.1,0.1,0.1,0.1,0.2c-0.1,0.4,0,0.8,0.3,1.1c0.1,0.1,0.2,0.1,0.3,0.1c0,0,0,0,0,0
	c0.1,0.2,0.1,0.3,0.2,0.4c0,0.1,0.1,0.3,0.1,0.4c0.1,0.2,0.1,0.4,0.2,0.6l0,0c0.1,0.2,0.2,0.5,0.4,0.7c0.1,0.1,0.1,0.1,0.1,0.3
	c0,0,0,0.1,0,0.1c0,0,0-0.1-0.1-0.1c-0.1-0.1-0.2-0.2-0.2-0.3c-0.1-0.1-0.2-0.2-0.3-0.3c-0.3-0.3-0.5-0.7-0.9-0.9
	c-0.1-0.1-0.3-0.3-0.4-0.5c-0.1-0.1-0.2-0.3-0.3-0.4c-0.4-0.4-0.8-0.9-1.2-1.3c-0.2-0.3-0.5-0.5-0.7-0.8c-0.1-0.1-0.2-0.3-0.3-0.4
	c-0.1-0.1-0.1-0.2-0.2-0.3c-0.1-0.1-0.2-0.2-0.3-0.3c-0.3-0.3-0.5-0.6-0.8-0.9c-0.1-0.1-0.3-0.2-0.4-0.3c-0.1-0.1-0.3-0.2-0.3-0.3
	c-0.1-0.3-0.3-0.4-0.5-0.5c0,0-0.1-0.1-0.1-0.1c-0.2-0.4-0.6-0.7-0.9-0.9c-0.3-0.3-0.6-0.6-0.8-0.9c-0.2-0.3-0.5-0.5-0.7-0.7
	c-0.1-0.1-0.2-0.1-0.2-0.2l-0.1-0.1c-0.4-0.3-0.7-0.6-1-1c-0.2-0.3-0.5-0.5-0.8-0.7c-0.1-0.1-0.2-0.1-0.3-0.2
	c-0.1-0.1-0.1-0.1-0.2-0.1c0,0,0,0,0,0c-0.1-0.1-0.2-0.2-0.4-0.3c-0.3-0.3-0.6-0.5-0.9-0.8c-0.2-0.3-0.5-0.5-0.8-0.7
	c-0.2-0.1-0.4-0.2-0.5-0.4c0.2,0.1,0.3,0.2,0.5,0.3c0.4,0.2,0.8,0.4,1.2,0.5l0,0c0,0,0,0,0.1,0c0,0.1,0.1,0.2,0.2,0.2
	c0.1,0,0.1,0.1,0.2,0.1c0.2,0.1,0.3,0.2,0.5,0.3c0.1,0.1,0.2,0.1,0.3,0.1c0,0,0.1,0,0.1,0c0.2,0.1,0.3,0.1,0.5,0.2l0.1,0.1l0,0
	c0.1,0,0.2,0.2,0.5,0.1c0.1,0,0.1,0,0.2,0.1c0.2,0.1,0.4,0.3,0.8,0.3c0.1,0.1,0.2,0.1,0.2,0.2c0.3,0.2,0.6,0.5,1,0.6l0,0
	c0.1,0.1,0.2,0.1,0.3,0.2c0.2,0.1,0.4,0.2,0.7,0.3c0.1,0,0.2,0,0.3,0c0.7,0.6,1.6,1.1,2.5,1.4c0,0,0,0,0,0c0,0.1,0.1,0.1,0.1,0.2
	c0,0.1,0.1,0.1,0.1,0.2c0,0,0,0.1,0,0.1c0,0.1,0,0.1,0,0.1l0,0c0,0.1,0.1,0.2,0.1,0.3C80.2,42.8,80.3,42.9,80.4,43L80.4,43z
	 M76.1,35.4c-0.2-0.4-0.7-0.6-1.2-0.5c0,0-0.2,0-0.2-0.1c-0.2-0.2-0.5-0.5-0.9-0.6c0,0,0-0.1,0-0.1c-0.1-0.1-0.2-0.2-0.4-0.2
	c-0.3,0.1-0.6-0.1-1-0.3c-0.3-0.2-0.6-0.3-1-0.4c-0.2-0.3-0.5-0.7-1.1-0.7h0c0,0-0.1-0.1-0.1-0.1c-0.1-0.1-0.2-0.1-0.3-0.1
	c-0.1,0-0.2,0-0.2,0.1c0,0,0,0-0.1,0c-0.1,0-0.2-0.1-0.3-0.1c-0.2,0-0.4-0.2-0.6-0.3c-0.1,0-0.2-0.1-0.3-0.1
	c-0.1-0.1-0.3-0.1-0.4-0.2c0.2-0.1,0.3-0.1,0.6,0c0.1,0,0.1,0,0.2,0c0.1,0,0.3,0,0.5,0c0.4,0.1,0.9,0.1,1.4-0.1c0,0,0.2,0,0.3,0
	c0,0,0.1,0,0.1,0c0.1,0.1,0.2,0.2,0.4,0.1c0.5-0.1,0.9,0,1.4,0.1c0.4,0.1,0.8,0.1,1.1,0.1c0.3,0,0.5,0.1,0.6,0.4
	c0.2,0.5,0.6,0.9,0.9,1.2c0.2,0.1,0.2,0.3,0.3,0.6l0,0.1c0.2,0.6,0.4,1.1,0.8,1.5L76.1,35.4z M52.7,95.5c-0.4,0-0.7,0.1-1-0.1l0,0
	c0-0.2-0.2-0.4-0.5-0.6c-0.1,0-0.1-0.1-0.2-0.1c-0.2-0.1-0.4-0.2-0.5-0.3c-0.1-0.1-0.2-0.2-0.3-0.3c-0.1-0.1-0.1-0.1-0.2-0.2
	c-0.1-0.1-0.3-0.2-0.4-0.4c-0.1-0.1-0.3-0.2-0.4-0.3c-0.3-0.3-0.7-0.6-1.1-0.8c-0.2-0.1-0.4-0.3-0.6-0.6c-0.1-0.1-0.2-0.2-0.2-0.3
	c-0.2-0.2-0.3-0.3-0.5-0.4c-0.2-0.1-0.3-0.3-0.5-0.4c-0.2-0.2-0.4-0.4-0.6-0.5c-0.2-0.2-0.4-0.4-0.6-0.6c-0.2-0.3-0.5-0.6-0.7-0.8
	c-0.1-0.1-0.2-0.2-0.3-0.3c-0.1-0.1-0.1-0.2-0.2-0.2c-0.1-0.1-0.2-0.3-0.3-0.4c-0.1-0.1-0.3-0.3-0.5-0.4c-0.2-0.1-0.3-0.3-0.4-0.4
	c0,0-0.1-0.1-0.1-0.2l0-0.1c-0.2-0.5-0.6-0.8-0.9-1.1c-0.1-0.1-0.2-0.2-0.2-0.2c-0.2-0.2-0.3-0.4-0.4-0.6c-0.1-0.2-0.2-0.3-0.3-0.5
	c-0.1-0.1-0.2-0.3-0.3-0.4c0.1,0.1,0.2,0.2,0.3,0.3c0.1,0.1,0.2,0.2,0.3,0.3c0,0,0,0,0,0c0.1,0.1,0.1,0.2,0.3,0.2
	c0.2,0.1,0.2,0.2,0.4,0.4c0,0.1,0.1,0.1,0.1,0.2c0.1,0.1,0.2,0.2,0.3,0.3c0.1,0.1,0.1,0.1,0.2,0.2c0.2,0.3,0.5,0.5,0.8,0.6
	c0.1,0.1,0.2,0.1,0.3,0.2c0,0,0.1,0.1,0.1,0.1c0,0,0,0.1,0.1,0.1c0,0.1,0.1,0.2,0.1,0.3c0,0.1,0.1,0.1,0.1,0.2
	c0.1,0.1,0.2,0.2,0.3,0.2c0,0,0.1,0,0.1,0c0.4,0.5,1.2,1,1.8,1.2c0,0.1,0.1,0.2,0.2,0.2l0.2,0.2c0.2,0.1,0.3,0.2,0.5,0.3
	c0.2,0.1,0.3,0.2,0.5,0.3l0.2,0.1c0.1,0.3,0.4,0.4,0.6,0.6c0.1,0.1,0.2,0.1,0.3,0.2c0.1,0.1,0.2,0.1,0.2,0.2
	c0.2,0.2,0.4,0.4,0.7,0.6c0.2,0.1,0.4,0.3,0.6,0.5c0.4,0.3,0.7,0.6,1.2,0.8c0,0,0,0,0,0l0.1,0.1c0.1,0.1,0.1,0.2,0.2,0.2
	c0,0,0.1,0.1,0.1,0.1c0,0,0,0.1,0.1,0.1c0.1,0.1,0.1,0.2,0.3,0.2c0,0,0.1,0,0.1,0c0.1,0.1,0.1,0.2,0.3,0.3c0.2,0.1,0.4,0.3,0.7,0.4
	c0.1,0.1,0.2,0.1,0.3,0.2c0.2,0.1,0.3,0.2,0.5,0.3l0,0c0,0,0,0,0,0.1c0.1,0.1,0.1,0.1,0.2,0.2l0.8,0.4c0,0,0,0,0.1,0
	c-0.5,0.2-0.9,0.2-1.4,0.2C53.2,95.4,52.9,95.4,52.7,95.5L52.7,95.5z M60.4,91.4c-0.1,0-0.2,0-0.3,0c0,0,0,0,0,0c-0.1,0-0.2,0-0.3,0
	c-0.3,0.1-0.5,0-0.9-0.1c-0.1,0-0.3-0.1-0.5-0.1c-0.1,0-0.2,0-0.3,0l0,0c-0.1,0-0.1-0.1-0.2-0.1c-0.4-0.1-0.8-0.2-1.3-0.4
	c-0.1,0-0.2,0-0.3,0c-0.1,0-0.2,0-0.3,0c-0.1-0.2-0.4-0.3-0.6-0.3c-0.2,0-0.4-0.1-0.7-0.2c-0.1-0.1-0.2-0.1-0.4-0.2
	c0,0-0.1,0-0.2-0.1c-0.1-0.1-0.3-0.2-0.6-0.2c-0.1,0-0.2-0.1-0.2-0.2c0,0-0.1-0.1-0.1-0.1c-0.1-0.1-0.1-0.1-0.2-0.1
	c0-0.1-0.1-0.3-0.3-0.3c0,0,0,0,0,0c-0.1,0-0.2-0.1-0.4-0.1c-0.1-0.1-0.3-0.2-0.3-0.2c0,0,0,0-0.1,0c0,0-0.1,0-0.1-0.1
	c-0.1,0-0.2-0.1-0.2-0.1c-0.2-0.1-0.3-0.2-0.5-0.2c-0.2-0.1-0.4-0.2-0.5-0.3c-0.1-0.3-0.4-0.3-0.6-0.4c0,0,0,0,0,0l-2.6-2.3
	c-0.1-0.2-0.2-0.5-0.6-0.6c-0.3-0.1-0.4-0.3-0.6-0.7c0,0,0-0.1-0.1-0.1c-0.2-0.3-0.4-0.5-0.8-0.7c-0.1,0-0.1-0.1-0.2-0.2
	c-0.1-0.1-0.2-0.3-0.4-0.4c-0.1,0-0.1-0.1-0.2-0.1c0,0,0,0-0.1,0l0,0c-0.1-0.1-0.1-0.1-0.2-0.2c0-0.1-0.1-0.1-0.1-0.2
	c-0.1-0.2-0.3-0.3-0.5-0.5c-0.2-0.1-0.3-0.3-0.4-0.5l0-0.1c-0.2-0.4-0.6-0.7-0.8-0.9c-0.3-0.2-0.5-0.4-0.6-0.6
	c-0.1-0.2-0.3-0.4-0.5-0.5c-0.2-0.1-0.3-0.2-0.3-0.3c-0.1-0.1-0.2-0.2-0.3-0.3c0,0,0-0.1-0.1-0.1l-1.1-1.4c0-0.1-0.1-0.1-0.2-0.1
	c-0.1-0.3-0.3-0.5-0.6-0.7c-0.2-0.1-0.3-0.4-0.5-0.6c0-0.1-0.1-0.1-0.1-0.2c0,0,0-0.1-0.1-0.1c-0.1-0.1-0.2-0.4-0.6-0.5
	c-0.1-0.3-0.3-0.4-0.5-0.6v0c0-0.1-0.1-0.2-0.2-0.3c-0.1-0.1-0.2-0.1-0.3-0.2c-0.2-0.1-0.3-0.2-0.3-0.2c0-0.2-0.2-0.4-0.3-0.4
	c0,0,0,0,0,0c0,0-0.1,0-0.1-0.1l0,0c-0.2-0.4-0.5-0.8-0.8-1.1c-0.2-0.3-0.4-0.5-0.6-0.8c-0.1-0.1-0.2-0.2-0.3-0.3
	c-0.2-0.2-0.2-0.2-0.2-0.4c0-0.3-0.2-0.4-0.3-0.5c0-0.1-0.1-0.2-0.2-0.3c-0.1-0.2-0.2-0.3-0.4-0.4c-0.1-0.1-0.2-0.2-0.3-0.4
	c-0.1-0.2-0.2-0.4-0.3-0.7c0.3-0.2,0.4-0.5,0.5-0.8c0-0.2,0.2-0.3,0.4-0.5c0.1-0.1,0.1-0.1,0.2-0.2c0.1-0.2,0.3-0.3,0.4-0.5
	c0.2-0.2,0.4-0.4,0.6-0.6c0.1-0.1,0.1-0.3,0.1-0.4c0,0,0,0,0-0.1c0,0,0-0.1,0.1-0.1c0-0.1,0.1-0.2,0.1-0.2c0,0,0.1-0.1,0.1-0.1
	c0.1,0,0.2-0.1,0.2-0.2c0.1-0.1,0.2-0.2,0.2-0.3c0,0,0.1-0.1,0.1-0.1c0,0,0,0,0,0c0.5-0.1,0.5-0.6,0.6-0.8l0,0
	c0-0.2,0.1-0.3,0.2-0.4c0.4-0.3,0.9-0.8,1.1-1.5c0,0,0.1-0.1,0.1-0.1l0,0c0.3-0.3,0.5-0.6,0.8-0.9c0-0.1,0.1-0.1,0.1-0.2
	c0.3-0.1,0.4-0.4,0.5-0.5c0-0.1,0.1-0.2,0.1-0.2c0.1-0.1,0.2-0.2,0.2-0.3c0.1-0.1,0.1-0.1,0.2-0.2c0.1-0.1,0.2-0.1,0.2-0.2
	c0.2-0.1,0.3-0.3,0.5-0.4c0.1-0.2,0.1-0.3,0.2-0.5c0.2-0.1,0.3-0.3,0.4-0.4c0.1,0,0.1-0.1,0.2-0.1c0.1-0.1,0.2-0.2,0.3-0.3
	c0.1-0.1,0.1-0.1,0.2-0.2c0.1-0.1,0.1-0.2,0.2-0.2c0.3-0.2,0.5-0.5,0.6-0.8c0.3-0.2,0.5-0.5,0.7-0.7c0-0.1,0.1-0.1,0.1-0.2
	c0.2-0.2,0.4-0.4,0.6-0.6c0.1-0.1,0.3-0.3,0.4-0.4c0.1-0.1,0.1-0.2,0.2-0.3c0,0,0-0.1,0-0.1c0.1-0.1,0.3-0.2,0.4-0.3
	c0.1-0.1,0.1-0.1,0.2-0.2c0.1-0.1,0.2-0.2,0.1-0.4c0.1-0.1,0.1-0.2,0.2-0.2c0-0.1,0.1-0.1,0.1-0.2c0,0,0,0,0,0
	c0.4-0.2,0.7-0.6,0.9-0.8c0.1-0.2,0.2-0.3,0.4-0.5c0.2-0.1,0.3-0.3,0.4-0.5c0.1-0.2,0.2-0.3,0.3-0.4c0.2-0.1,0.4-0.3,0.5-0.5
	c0-0.1,0.1-0.1,0.1-0.2c0,0,0,0,0,0c0.1-0.1,0.3-0.2,0.4-0.2c0,0,0,0,0,0.1c0.2,0.3,0.4,0.5,0.6,0.8c0.3,0.4,0.5,0.9,0.7,1.3
	c0.1,0.1,0.2,0.3,0.2,0.3c0,0,0,0,0,0.1c0.2,0.2,0.3,0.5,0.4,0.9c0.1,0.4,0.4,0.7,0.6,0.9c0.1,0.1,0.2,0.2,0.3,0.3
	c0.1,0.1,0.1,0.3,0.2,0.5c0.1,0.1,0.1,0.2,0.2,0.4c0.1,0.2,0.2,0.4,0.3,0.6l0.1,0.1c0,0,0,0.1,0.1,0.1c0.1,0.1,0.2,0.3,0.3,0.4
	c0.1,0.1,0.1,0.1,0.2,0.2l0,0c0,0.1,0,0.3,0.1,0.4c0.3,0.5,0.6,1.1,1.2,1.5c0,0,0,0,0,0.1c0,0,0,0.1,0,0.1c0,0,0,0,0,0
	c0,0.1,0,0.1,0.1,0.2c0.1,0.2,0.2,0.3,0.3,0.5c0.3,0.5,0.6,1.1,0.9,1.6c0.2,0.3,0.4,0.6,0.5,0.8c0.1,0.1,0.2,0.3,0.3,0.4
	c0,0,0,0,0,0c0,0,0,0,0,0.1c0,0,0,0.1,0,0.1c0,0.1,0.1,0.3,0.2,0.5c0.3,0.5,0.6,1,1,1.4c0.1,0.1,0.2,0.3,0.3,0.4l0,0
	c-0.1,0.4,0.2,0.6,0.3,0.7c0,0,0.1,0.1,0.1,0.1c0,0,0,0.1,0,0.1c0.1,0.2,0.2,0.4,0.4,0.6c0,0.1,0,0.2,0,0.3c0.2,0.3,0.3,0.5,0.4,0.7
	c0,0.1,0,0.3,0.2,0.4c0.1,0.1,0.2,0.1,0.3,0.1c0.1,0.5,0.3,1,0.7,1.5c0.2,0.3,0.4,0.6,0.6,0.9l0.1,0.1c0.2,0.4,0.4,0.8,0.6,1.2
	c0.2,0.2,0.4,0.4,0.6,0.6c0,0,0.1,0.1,0.1,0.1c-0.1,0.2-0.1,0.5,0.1,0.6c0,0,0,0.1,0,0.1c0,0.1,0.1,0.3,0.2,0.4
	c0.1,0.1,0.2,0.2,0.2,0.3c0.1,0.1,0.1,0.2,0.2,0.3c0.1,0.2,0.2,0.3,0.3,0.5c0.1,0.1,0.2,0.3,0.3,0.4c0.1,0.1,0.1,0.2,0.2,0.2
	c0.1,0.2,0.2,0.3,0.3,0.4c0.1,0.4,0.3,0.7,0.5,1v0c0,0,0,0.1,0,0.1c0,0.1,0,0.1,0.1,0.2c0,0.1,0.1,0.1,0.1,0.2
	c0.1,0.1,0.2,0.3,0.3,0.4c0.1,0.1,0.2,0.3,0.3,0.4c0.1,0.2,0.2,0.3,0.3,0.5c0.1,0.2,0.2,0.3,0.3,0.5c0.2,0.2,0.3,0.5,0.5,0.7
	c0,0,0,0,0,0.1c0,0.1,0,0.2,0.1,0.4c0.1,0.1,0.1,0.3,0.2,0.3c0,0.1,0.1,0.1,0.1,0.2c0,0,0,0.1,0,0.1c0,0,0,0.1,0,0.1
	c0,0.1,0.1,0.2,0.2,0.3c0,0,0.1,0,0.1,0c0.1,0.2,0.2,0.4,0.3,0.5c0.1,0.1,0.2,0.2,0.3,0.3c0.1,0.1,0.1,0.2,0.2,0.2
	c0.2,0.4,0.5,0.8,0.8,1.2c0,0,0.1,0.1,0.1,0.2c0,0.1,0.1,0.1,0.1,0.2c0.1,0.2,0.2,0.4,0.4,0.6c0.1,0.2,0.3,0.4,0.4,0.6
	c0.1,0.1,0.1,0.2,0.2,0.3c0.1,0.2,0.3,0.4,0.4,0.6l0,0c0.1,0.5,0.3,0.7,0.5,0.8c0,0,0,0.1,0.1,0.1c0.1,0.2,0.2,0.3,0.3,0.5
	c0,0.1,0.1,0.2,0.2,0.2c0,0.1-0.1,0.2-0.1,0.2c-0.2,0.2-0.3,0.5-0.4,0.7c-0.1,0.2-0.2,0.3-0.3,0.5c0,0,0,0,0,0
	c-0.1,0-0.1,0.1-0.2,0.2C70,88,70,88.1,69.9,88.1l0,0l0,0c-0.1,0.1-0.1,0.1-0.2,0.2l0,0c-0.3,0.2-0.5,0.4-0.8,0.4
	c-0.3,0.1-0.6,0.2-0.8,0.4c-0.1,0-0.1,0.1-0.2,0.1c-0.1,0.1-0.2,0.1-0.3,0.2c-0.1,0.1-0.2,0.1-0.2,0.2c-0.2,0.1-0.4,0.1-0.5,0.2
	c-0.2,0.1-0.4,0.2-0.6,0.2c-0.4,0-0.7,0.2-1,0.3c-0.1,0.1-0.3,0.1-0.4,0.2c0,0-0.1,0-0.1,0c-0.1,0-0.3,0-0.4,0.1
	c-0.1,0.1-0.3,0.1-0.4,0.1c-0.1,0-0.3,0-0.5,0.1c-0.4,0.1-0.9,0.2-1.5,0.4c-0.2,0.1-0.5,0.1-0.8,0.1C60.9,91.4,60.7,91.4,60.4,91.4z
	 M54.9,101c0,0-0.1,0-0.2,0c-0.2,0-0.5-0.1-0.8,0.1c0,0-0.1,0-0.2,0c0,0-0.1,0-0.1,0l-0.1,0c0,0-0.1,0-0.1,0c-0.2,0-0.4-0.1-0.6-0.1
	c-0.3,0-0.5-0.1-0.8-0.1c-0.2,0-0.4,0-0.6,0c-0.2,0-0.4,0-0.5,0c-0.6-0.1-1.2-0.1-1.9-0.3c-0.1,0-0.2-0.1-0.4-0.1
	c-0.1-0.1-0.3-0.1-0.4-0.1c-0.2-0.1-0.4-0.1-0.6-0.1h-0.1c-0.1,0-0.2,0-0.2,0c-0.1,0-0.3,0-0.4,0c-0.4,0-0.8,0-1.2,0l-0.2,0
	c-0.5,0-1.1-0.1-1.6-0.2c-0.4-0.1-0.9-0.2-1.3-0.2l-0.1,0c-0.2,0-0.4-0.1-0.6-0.2c-0.2-0.1-0.4-0.1-0.6-0.2c-0.2,0-0.4,0-0.5,0
	c-0.1,0-0.1,0-0.2,0c-0.2,0-0.5,0-0.7,0l0,0c-0.1-0.1-0.2-0.2-0.3-0.2c-0.1,0-0.1,0-0.2,0c-0.1,0-0.1,0-0.2-0.1
	c-0.3-0.1-0.7-0.2-1-0.2c-0.3,0-0.6-0.1-0.8-0.1c-0.2,0-0.3,0-0.5,0c-0.1,0-0.2,0-0.2,0c0,0-0.1,0-0.1,0c-0.1-0.1-0.2-0.2-0.4-0.2
	c-0.2,0-0.3,0-0.5-0.1c-0.4-0.1-0.7-0.1-1.1-0.1c-0.3,0-0.6,0-0.9-0.1c-0.1,0-0.3-0.1-0.4-0.1c-0.3-0.1-0.5-0.1-0.8-0.1
	c-0.1,0-0.3,0-0.4,0c0,0,0,0-0.1,0c0,0-0.1-0.1-0.1-0.1c-0.1,0-0.2-0.1-0.3,0c0,0,0,0-0.1,0c-0.2,0-0.4-0.1-0.6-0.1
	c-0.2,0-0.5-0.1-0.7-0.1c-0.1,0-0.2,0-0.2-0.1c-0.1-0.2-0.3-0.3-0.6-0.2c-0.1-0.1-0.2-0.1-0.4-0.1c-0.7,0-1.3-0.1-1.8-0.2
	c-0.3-0.1-0.6-0.1-0.8-0.1c-0.3,0-0.5,0-0.7-0.1c-0.3-0.1-0.6-0.2-0.9-0.2c-0.2,0-0.4-0.1-0.5-0.1c-0.1,0-0.3-0.1-0.4-0.2
	c0,0,0,0-0.1,0c0-0.1-0.1-0.2-0.2-0.2c-0.1,0-0.2,0-0.3,0c-0.1,0-0.2-0.1-0.3-0.1c0,0-0.1,0-0.1-0.1c-0.2-0.1-0.4-0.2-0.6-0.1
	c0,0,0,0,0,0l0,0c-0.1-0.1-0.2-0.2-0.3-0.2h-0.1c0,0-0.1-0.1-0.2-0.1c0,0-0.1,0-0.1-0.1c-0.1,0-0.2-0.1-0.3-0.1
	c0.1-0.2,0.1-0.5,0.2-0.7c0-0.1,0.1-0.3,0.1-0.4c0,0,0.1-0.1,0.1-0.2c0-0.1,0-0.2,0-0.2c0.1-0.1,0.2-0.2,0.2-0.4c0-0.3,0-0.7,0-0.9
	c0-0.1,0-0.1,0-0.2c0,0,0-0.1,0.1-0.1c0.1-0.2,0.1-0.3,0.2-0.5c0,0,0-0.1,0-0.1c0.1,0.1,0.2,0.2,0.3,0.4c0.2,0.2,0.5,0.5,0.9,0.8
	c0.1,0.1,0.2,0.2,0.3,0.3c0.4,0.3,0.8,0.7,1.3,1c0.3,0.2,0.6,0.4,0.9,0.5c0.1,0.1,0.3,0.1,0.4,0.2c0.1,0.1,0.2,0.1,0.3,0.2
	c0.2,0.1,0.5,0.3,0.7,0.4c0.1,0.1,0.2,0.1,0.3,0.1c0.1,0,0.2,0.1,0.2,0.1c0.2,0.1,0.4,0.2,0.5,0.4c0.3,0.2,0.6,0.4,0.9,0.6
	c0.2,0.1,0.4,0.1,0.6,0.2c0.1,0,0.2,0,0.3,0.1c0.2,0.1,0.3,0.1,0.5,0.2c0.2,0.1,0.3,0.2,0.5,0.3c0.3,0.1,0.5,0.2,0.8,0.2
	c0.1,0,0.2,0.1,0.3,0.1c0.2,0.1,0.5,0.1,0.7,0.2c0.3,0.1,0.5,0.1,0.8,0.2c0.3,0.1,0.5,0.2,0.8,0.2l0.5,0.1c0,0,0.1,0,0.1,0
	c0.2,0,0.3,0.1,0.5,0.1c0.4,0.1,0.8,0.2,1.2,0.3c0.2,0,0.3,0.1,0.5,0.1c0.1,0,0.2,0,0.3,0c0.1,0,0.2,0,0.3,0.1
	c0.1,0,0.3,0.1,0.4,0.1c0.1,0,0.3,0,0.4,0c0.1,0,0.2,0,0.4,0c0.1,0,0.2,0,0.3,0.1c0.1,0,0.2,0.1,0.3,0.1c0.1,0,0.2,0,0.3,0
	c0.1,0,0.2,0,0.2,0c0.2,0,0.4,0,0.6,0.1c0.3,0,0.6,0.1,1,0.1c0.2,0,0.3,0,0.4,0c0.2,0,0.3,0,0.5,0c0.5,0.2,1,0.1,1.4,0.1
	c0.2,0,0.4,0,0.6,0c0.2,0,0.4,0,0.6,0c0.1,0,0.3,0,0.4,0c0.2,0,0.4,0,0.6,0.1c0.4,0.2,0.7,0.1,1,0.1c0.1,0,0.2,0,0.3,0
	c0.1,0,0.2,0,0.2,0c0,0,0.1,0,0.1,0c0.2,0.1,0.4,0.1,0.6,0c0.1,0,0.1-0.1,0.2-0.1c0.2,0,0.3,0,0.5,0c0.3,0,0.5-0.1,0.8-0.1
	c0.2,0,0.4-0.1,0.6-0.1c0.1,0,0.2,0,0.4,0c0.4,0,0.7-0.1,1-0.1c0.3,0,0.5,0.2,0.8,0.3c0.1,0,0.1,0.1,0.2,0.1
	c0.5,0.2,0.8,0.5,1.3,0.9c0.1,0.1,0.2,0.2,0.3,0.2C54.7,100.9,54.8,100.9,54.9,101c0.1,0,0.1,0,0.2,0C55,101,55,101,54.9,101
	L54.9,101z M58.6,14.2C58.6,14.3,58.7,14.3,58.6,14.2c0.1,0.1,0.2,0.1,0.3,0.2c0.1,0,0.2,0.1,0.3,0.1c0.2,0.1,0.3,0.1,0.5,0.2
	c0,0,0,0,0.1,0.1c0,0.4,0.3,0.5,0.4,0.6l0,0c0.1,0.1,0.2,0.3,0.5,0.3l0,0c0,0.1,0.2,0.3,0.3,0.3c0.1,0,0.1,0,0.2,0l0.4,0.3
	c0,0.1,0,0.1,0,0.2c0.1,0.2,0.3,0.4,0.5,0.4c0.1,0,0.2,0.1,0.2,0.1c0,0.1,0.1,0.3,0.3,0.4c0.1,0,0.2,0,0.2,0
	c0.1,0.2,0.2,0.3,0.4,0.4c0,0.1,0.1,0.2,0.2,0.3c0,0,0.1,0,0.1,0l0.1,0.1c0.2,0.2,0.4,0.5,0.7,0.7c0.1,0.1,0.1,0.1,0.2,0.2
	c0.1,0.1,0.2,0.2,0.3,0.3c0.3,0.3,0.5,0.5,0.8,0.6c0.1,0.1,0.3,0.2,0.4,0.3c0.1,0.1,0.2,0.2,0.3,0.3c0.1,0.1,0.1,0.2,0.2,0.3
	c0,0,0,0.1,0.1,0.1c0.1,0.2,0.3,0.5,0.6,0.5c0,0,0.1,0.1,0.1,0.1c0.1,0.1,0.1,0.2,0.2,0.3c0.2,0.2,0.3,0.4,0.5,0.6
	c0.1,0.1,0.1,0.1,0.2,0.2c0,0.1,0.1,0.1,0.1,0.2c0,0,0.1,0.1,0.1,0.1c0.1,0.1,0.2,0.2,0.3,0.2c0,0,0,0.1,0,0.1c0,0,0,0.1,0.1,0.1
	c0,0,0.1,0.1,0.1,0.2c0.1,0.2,0.2,0.4,0.4,0.5c0,0.1,0,0.2,0.1,0.3c0.1,0.1,0.2,0.3,0.3,0.4c0.1,0.1,0.2,0.2,0.3,0.4
	c0,0.1,0.1,0.1,0.1,0.2L70,25.6l-1.1,0.8c-0.1,0-0.2,0-0.3,0.1l0,0c0,0-0.1,0.1-0.1,0.1c-0.1,0.1-0.2,0.2-0.3,0.3
	c-0.2,0.2-0.4,0.4-0.7,0.6c-0.2,0.1-0.4,0.2-0.7,0.3c-0.2,0-0.4,0-0.7,0c-0.1,0-0.2,0-0.3,0.1c-0.1,0-0.1,0-0.1,0
	c-0.7,0.1-1.2,0.1-1.6,0.1c-0.2,0-0.3,0-0.5,0c-0.2,0-0.3,0-0.5,0c-0.1,0-0.2,0-0.2,0c0,0-0.1,0-0.1,0c-0.1,0-0.1,0-0.2,0
	c-0.2,0-0.4,0-0.6,0c-0.2,0-0.3,0.1-0.4,0.1c0,0-0.1,0-0.1,0l-0.2,0.1c-0.2,0.1-0.4,0.1-0.6,0.2c-0.2,0.1-0.5,0-0.8-0.1
	c-0.1,0-0.2,0-0.2-0.1c-0.6-0.1-1.1-0.3-1.8-0.7c-0.2-0.1-0.5-0.1-0.7-0.2c-0.1,0-0.2,0-0.2,0l0,0c-0.2,0-0.3-0.1-0.5-0.1
	c-0.1,0-0.1-0.1-0.2-0.1c-0.4-0.2-0.8-0.4-1.3-0.4h0c-0.3,0-0.5-0.1-0.8-0.4c-0.1-0.1-0.3-0.2-0.5-0.1c-0.1-0.1-0.3-0.1-0.5-0.2
	c0,0-0.1,0-0.1,0c-0.1,0-0.2,0-0.3,0c-0.1,0-0.3,0-0.4-0.1c-0.4-0.1-1-0.3-1.6-0.5c-0.2-0.1-0.4-0.2-0.6-0.3c0-0.1-0.1-0.2-0.2-0.3
	c-0.2-0.1-0.3,0-0.4,0.1l0,0c0,0,0,0,0,0c-0.2-0.1-0.3-0.1-0.4-0.1c0,0,0,0,0,0c-0.1-0.2-0.3-0.3-0.4-0.3c0,0,0,0-0.1,0
	c-0.1-0.1-0.1-0.1-0.2-0.1l-0.6-0.1c-0.1,0-0.2,0-0.3,0.1c0,0,0,0-0.1,0c-0.1,0-0.1,0-0.2,0c-0.1,0-0.2,0-0.3-0.1
	c-0.2-0.1-0.3-0.1-0.5-0.2c-0.2-0.1-0.5-0.2-0.7-0.2c-0.2-0.1-0.3,0-0.5,0c0,0-0.1,0-0.1,0c0,0-0.1,0-0.1,0c0,0-0.1,0-0.1,0
	c-0.1,0-0.2,0-0.3,0c-0.1,0-0.2,0-0.3,0c-0.3-0.3-0.6-0.4-0.8-0.4c-0.1,0-0.2,0-0.3-0.1c-0.2-0.1-0.5-0.2-0.7-0.2
	c-0.1,0-0.2,0-0.2,0c-0.3-0.1-0.6-0.1-0.8-0.2l0,0c0,0,0,0-0.1,0c-0.1,0-0.3-0.1-0.5,0c0,0-0.1,0-0.2,0c-0.1,0-0.1,0-0.2,0
	c-0.1,0-0.2,0-0.2,0l0,0c0-0.1-0.1-0.1-0.2-0.2c-0.1-0.1-0.2-0.5-0.2-0.6c0-0.2-0.1-0.3-0.2-0.4c0,0,0,0,0-0.1l0,0c0,0,0-0.1,0-0.2
	c0-0.1-0.1-0.3-0.2-0.3l-0.2-0.1c0-0.2-0.1-0.5-0.2-0.6c-0.1-0.1-0.1-0.1-0.2-0.2l-0.5-2.5c0-0.1,0-0.1-0.1-0.2
	c0.1-0.1,0.1-0.2,0.2-0.2c0.1-0.1,0.3-0.2,0.4-0.3c0,0,0.1-0.1,0.1-0.1c0,0,0.1,0,0.1,0c0.1,0,0.2-0.1,0.2-0.1
	c0.3-0.2,0.6-0.4,0.8-0.6c0.1-0.1,0.1-0.1,0.2-0.2c0,0,0.1,0,0.1,0l1.1-0.7c0,0,0,0,0,0c0.1,0,0.3,0,0.4-0.1
	c0.1-0.1,0.2-0.2,0.2-0.2c0,0,0.1-0.1,0.1-0.1l0,0c0.1,0,0.1,0,0.2-0.1c0.1-0.1,0.1-0.1,0.2-0.2c0,0,0,0,0,0
	c0.1-0.1,0.3-0.1,0.4-0.2c0.1-0.1,0.3-0.1,0.4-0.2c0.1-0.1,0.3-0.2,0.4-0.2c0.1-0.1,0.2-0.1,0.3-0.2l0.2-0.1
	c0.2-0.1,0.4-0.3,0.7-0.4c0,0,0.1,0,0.2,0c0.1,0,0.2,0,0.3-0.1c0.2-0.1,0.4-0.2,0.6-0.3c0.1-0.1,0.2-0.1,0.3-0.2l0,0
	c0.1,0,0.1,0,0.2-0.1c0.1-0.1,0.2-0.1,0.3-0.2c0,0,0.1,0,0.1-0.1l0.1-0.1c0.2-0.1,0.4-0.1,0.6-0.2c0.1,0,0.2-0.1,0.3-0.1
	c0.1,0,0.2-0.1,0.3-0.1c0.2-0.1,0.3-0.1,0.5-0.2c0.1,0,0.3-0.1,0.4-0.1c0.4-0.1,0.8-0.3,1.2-0.4l0.2-0.1c0.2-0.1,0.4-0.2,0.7-0.2
	c0.2-0.1,0.5-0.1,0.7-0.2c0,0,0,0,0,0c0.1,0,0.1,0.1,0.2,0.1c0.1,0,0.1,0,0.1,0c0.1,0.2,0.2,0.3,0.4,0.2c0.3,0,0.5,0.1,0.9,0.3
	c0.2,0.1,0.3,0.2,0.5,0.3c0.1,0.1,0.2,0.1,0.3,0.2c0.1,0.1,0.2,0.1,0.3,0.1c0.1,0.1,0.2,0.1,0.2,0.1c0.2,0.3,0.5,0.3,0.8,0.4
	c0.1,0,0.2,0,0.2,0c0.2,0.1,0.3,0.2,0.5,0.4c0.1,0.3,0.4,0.4,0.6,0.5c0,0,0.1,0.1,0.1,0.1c0.3,0.2,0.6,0.3,0.8,0.5
	C58.4,14.1,58.5,14.2,58.6,14.2z M57.3,98.3c0.2-0.1,0.5-0.2,0.7-0.2c0.2-0.1,0.4-0.1,0.6-0.1c0.1,0,0.2,0,0.3,0
	c0.2,0,0.4-0.1,0.6-0.1c0.5-0.1,1.1-0.2,1.6-0.3c0.1,0,0.3,0,0.5,0c0.2,0,0.4,0,0.7-0.1c0.2,0,0.4-0.1,0.6-0.1
	c0.3-0.1,0.6-0.1,1-0.2l0,0c0,0.1-0.1,0.2-0.2,0.3c-0.2,0.2-0.4,0.4-0.4,0.8c0,0-0.1,0-0.1,0.1c-0.1,0.1-0.2,0.1-0.2,0.2
	c-0.2,0.1-0.3,0.3-0.5,0.4c-0.1,0.1-0.1,0.2-0.2,0.3c-0.2,0.2-0.4,0.4-0.5,0.6c-0.1,0.2-0.2,0.3-0.3,0.4c-0.3,0.2-0.6,0.4-0.8,0.6
	c0-0.1-0.1-0.1-0.2-0.1c-0.1,0-0.2-0.1-0.3-0.1c-0.2-0.1-0.4-0.2-0.6-0.3c-0.4-0.2-0.7-0.4-1.1-0.6l0,0c-0.2-0.1-0.3-0.2-0.5-0.2
	c-0.4-0.2-0.7-0.4-1-0.6c-0.1-0.1-0.2-0.1-0.3-0.2C56.9,98.4,57.1,98.3,57.3,98.3L57.3,98.3z M81.5,94.8c0-0.1,0-0.1,0-0.2
	c0-0.1-0.2-0.2-0.3-0.2c0-0.1-0.1-0.3-0.2-0.4c-0.1-0.1-0.2-0.2-0.3-0.3c0-0.1,0-0.2-0.1-0.2L80,92.8c0,0,0,0,0-0.1l-0.3-0.6
	c-0.1-0.1-0.2-0.2-0.3-0.2l-0.1,0c0-0.1,0-0.2-0.1-0.3l-0.1-0.1c-0.2-0.2-0.3-0.3-0.5-0.5c0,0,0,0,0-0.1c0,0,0,0,0-0.1
	c0-0.2,0-0.4-0.2-0.5c-0.1-0.1-0.1-0.1-0.2-0.3c0-0.1-0.1-0.2-0.1-0.4c0,0,0-0.1-0.1-0.1c0.1,0,0.1-0.1,0.2-0.1
	c0.1-0.1,0.3-0.1,0.4-0.2c0.2-0.1,0.3-0.2,0.4-0.4c0.1-0.1,0.2-0.2,0.3-0.2c0.4-0.4,0.9-0.7,1.3-1.1c0,0,0,0,0.1,0
	c0.1,0,0.2-0.1,0.3-0.2c0.2-0.3,0.5-0.5,0.9-0.7c0.2-0.1,0.4-0.2,0.6-0.4c0.2-0.2,0.3-0.3,0.5-0.5c0.1-0.1,0.2-0.2,0.3-0.3
	c0.1-0.1,0.2-0.2,0.4-0.3c0.1-0.1,0.2-0.2,0.4-0.3c0.2-0.2,0.3-0.3,0.5-0.5c0.1-0.1,0.2-0.2,0.3-0.3c0.1-0.1,0.2-0.2,0.3-0.3
	c0.2-0.2,0.4-0.3,0.5-0.5c0.1-0.1,0.1-0.2,0.2-0.2c0.1,0,0.2-0.1,0.3-0.2c0-0.1,0-0.1,0-0.2c0,0,0.1-0.1,0.1-0.1
	c0.2-0.2,0.5-0.5,0.7-0.7c0.1-0.1,0.2-0.2,0.3-0.4c0.1-0.1,0.2-0.2,0.2-0.3c0.2-0.2,0.3-0.4,0.5-0.5l0.1-0.1
	c0.1-0.1,0.2-0.2,0.4-0.3c0.3-0.3,0.6-0.5,0.8-0.9c0.2-0.3,0.4-0.5,0.7-0.8c0.2-0.2,0.3-0.4,0.5-0.6c0.2-0.2,0.4-0.5,0.6-0.7
	c0.2-0.2,0.4-0.4,0.6-0.6c0.1-0.1,0.2-0.3,0.2-0.4c0,0,0,0,0.1,0c0.1-0.1,0.2-0.2,0.2-0.3l0-0.1c0-0.2-0.1-0.3-0.2-0.4
	c0.2-0.3,0.4-0.6,0.5-0.9l0.1-0.1c0,0.2,0.1,0.4,0.1,0.5c0,0.2,0.1,0.3,0.1,0.5c0,0.1,0,0.2,0,0.3c0,0.3,0.1,0.5,0,0.7
	c-0.1,0.5,0.1,0.9,0.2,1c0.1,0.2,0.1,0.4,0.2,0.6c0,0.2,0,0.4,0.1,0.6c0,0,0,0.1,0,0.1c0,0,0,0.1,0,0.1c0,0.1,0.1,0.2,0.1,0.2
	C93,79.4,93,79.6,93,79.8c0,0.3,0.1,0.5,0.2,0.7c0.1,0.3,0.2,0.5,0.1,0.7c-0.1,0.3,0,0.6,0,0.9c0,0.2,0,0.3,0,0.5
	c0,0.4-0.1,0.7-0.2,1c-0.2,0.6-0.5,1.3-0.7,1.9c-0.1,0.2-0.2,0.5-0.3,0.7c-0.1,0.2-0.2,0.4-0.2,0.5c-0.1,0.1-0.1,0.3-0.1,0.4
	c0,0,0,0.1,0,0.1c0,0.1,0,0.2,0,0.3c0,0.1,0,0.3-0.1,0.3l-0.1,0.2c-0.3,0.6-0.7,1.2-0.9,1.9c-0.1,0.3-0.2,0.5-0.4,0.8
	c-0.1,0.1-0.2,0.3-0.3,0.4c-0.1,0.1-0.2,0.3-0.2,0.4c-0.1,0.2-0.2,0.4-0.4,0.6c-0.3,0.4-0.6,0.8-0.9,1.2l-0.2,0.2
	c-0.2,0.2-0.4,0.5-0.6,0.7c-0.1,0.1-0.2,0.2-0.3,0.3c-0.1,0.1-0.2,0.3-0.3,0.4c-0.2,0.3-0.4,0.5-0.6,0.7c-0.2,0.2-0.4,0.4-0.5,0.6
	c-0.3,0.3-0.5,0.6-0.9,0.8c-0.2,0.1-0.3,0.3-0.4,0.4c0,0.1-0.1,0.1-0.1,0.2c-0.1,0-0.1,0.1-0.2,0.1c-0.1,0.1-0.2,0.2-0.3,0.2
	c0,0-0.1-0.1-0.2-0.1l0,0c0,0,0,0,0-0.1c0-0.1-0.1-0.1-0.1-0.2c-0.2-0.3-0.5-0.6-0.7-0.9l-0.1-0.1c0,0-0.1-0.1-0.1-0.1
	c-0.1-0.1-0.2-0.3-0.3-0.4c-0.1,0-0.1-0.1-0.2-0.1c0-0.1-0.2-0.3-0.3-0.4c-0.2-0.1-0.3-0.3-0.5-0.6C81.6,94.9,81.5,94.8,81.5,94.8
	L81.5,94.8z M95.4,68.8c0,0,0.1-0.1,0.1-0.1c0,0,0,0.1,0,0.1c0,0.2,0,0.4,0,0.6v0.1c-0.1-0.1-0.1-0.3-0.1-0.4c0,0,0-0.1,0-0.1
	C95.4,68.9,95.4,68.9,95.4,68.8C95.4,68.8,95.4,68.8,95.4,68.8z"/>
</svg>
